<svg width="48" height="48" viewBox="0 0 48 48" fill="none" xmlns="http://www.w3.org/2000/svg">
<g id="Document Mention / undefined / Glyph: undefined">
<path id="Vector" d="M24 4V16C24 18.2091 25.7908 20 28 20H40V40C40 42.2092 38.2092 44 36 44H20.0496C20.0418 43.6948 19.996 43.3864 19.9092 43.0812C23.8324 42.6532 26.4016 38.8846 26.4016 35.0016C26.4016 27.601 20.4022 21.6016 13.0016 21.6016C11.2335 21.6016 9.5454 21.944 8 22.5662V8C8 5.79086 9.79086 4 12 4H24ZM27 5V16C27 16.5523 27.4478 17 28 17H39L27 5ZM24 35C24 28.9248 19.0751 24 13 24C6.92486 24 2 28.9248 2 35C2 41.0752 6.92486 46 13 46C14.1418 46 15.2616 45.8256 16.33 45.4866L16.7819 45.3322L16.9459 45.2594C17.5209 44.9558 17.7974 44.2664 17.5676 43.6388C17.317 42.9544 16.5588 42.6026 15.8742 42.8532L15.5315 42.9702L15.0404 43.1096C14.3796 43.2752 13.696 43.36 13 43.36C8.3829 43.36 4.64 39.617 4.64 35C4.64 30.383 8.3829 26.64 13 26.64C17.6171 26.64 21.36 30.383 21.36 35C21.36 36.8056 20.2676 38.08 19.16 38.08C18.3348 38.08 17.84 37.188 17.84 35V30.6L17.828 30.4208C17.7405 29.7766 17.1883 29.28 16.52 29.28C16.0277 29.28 15.5984 29.5494 15.3725 29.9484C14.697 29.5238 13.8992 29.28 13 29.28C10.0251 29.28 8.16 31.9494 8.16 35C8.16 38.0506 10.0251 40.72 13 40.72C14.3394 40.72 15.4539 40.1788 16.2701 39.3052C16.9218 40.2098 17.8785 40.72 19.16 40.72C21.8238 40.72 24 38.181 24 35ZM10.8 35C10.8 33.247 11.7272 31.92 13 31.92C14.2728 31.92 15.2 33.247 15.2 35C15.2 36.753 14.2728 38.08 13 38.08C11.7272 38.08 10.8 36.753 10.8 35Z" fill="#A1CD38"/>
</g>
</svg>
