<svg width="97" height="97" viewBox="0 0 97 97" fill="none" xmlns="http://www.w3.org/2000/svg">
<g id="Data Line / undefined / Glyph: undefined">
<path id="Vector" d="M64.6667 24.25C64.6667 17.5536 70.0951 12.125 76.7917 12.125C83.4883 12.125 88.9167 17.5536 88.9167 24.25C88.9167 30.9464 83.4883 36.375 76.7917 36.375C76.137 36.375 75.4943 36.3231 74.8679 36.2232L66.6318 49.7954C67.9425 51.7321 68.7084 54.0682 68.7084 56.5833C68.7084 63.28 63.28 68.7083 56.5834 68.7083C52.9346 68.7083 49.662 67.0965 47.4391 64.5458L32.3166 72.1062C32.3277 72.3192 32.3334 72.5342 32.3334 72.75C32.3334 79.4466 26.9048 84.875 20.2084 84.875C13.5119 84.875 8.08337 79.4466 8.08337 72.75C8.08337 66.0534 13.5119 60.625 20.2084 60.625C24.5176 60.625 28.3018 62.873 30.4522 66.2603L44.7251 59.1247C44.5505 58.3055 44.4584 57.4551 44.4584 56.5833C44.4584 49.8867 49.8867 44.4583 56.5834 44.4583C58.5319 44.4583 60.3728 44.9179 62.0045 45.7347L69.2706 33.7611C66.4661 31.5403 64.6667 28.1053 64.6667 24.25Z" fill="#A1CD38"/>
</g>
</svg>
