<?xml version="1.0" encoding="utf-8"?>
<!-- Generator: Adobe Illustrator 25.2.1, SVG Export Plug-In . SVG Version: 6.00 Build 0)  -->
<svg version="1.1" id="Layer_1" xmlns="http://www.w3.org/2000/svg" xmlns:xlink="http://www.w3.org/1999/xlink" x="0px" y="0px"
	 viewBox="0 0 107.3 44.9" style="enable-background:new 0 0 107.3 44.9;" xml:space="preserve">
<style type="text/css">
	.st0{fill:#FFFFFF;}
</style>
<g id="Layer_2_1_">
	<g id="Layer_1-2">
		<path class="st0" d="M50.3,43.5v0.4h-2.2c0-0.5,0-1.2,0-1.8s0-1.2,0-1.6h2v0.4c-0.5,0-1,0-1.5,0c0,0.3,0,0.7,0,1.1
			c0.5,0,0.9,0,1.3,0v0.4h-1.3c0,0.5,0,0.9,0,1.3C49.2,43.5,49.8,43.5,50.3,43.5z"/>
		<path class="st0" d="M54.1,43c0,0.7-0.5,1-1.4,1c-0.3,0-0.6,0-0.9-0.1l0.1-0.4c0.3,0.1,0.6,0.1,0.8,0.1c0.6,0,0.9-0.2,0.9-0.5
			c0-0.2-0.1-0.3-0.2-0.4c-0.2-0.1-0.4-0.2-0.6-0.3c-0.2-0.1-0.5-0.2-0.7-0.4c-0.2-0.2-0.3-0.4-0.3-0.6c0-0.2,0.1-0.5,0.3-0.7
			c0.2-0.2,0.6-0.3,0.9-0.3c0.3,0,0.6,0,0.9,0.1l-0.1,0.4c-0.3-0.1-0.6-0.1-0.8-0.1c-0.5,0-0.7,0.2-0.7,0.5c0,0.1,0.1,0.3,0.2,0.4
			c0.2,0.1,0.4,0.2,0.6,0.3c0.3,0.1,0.5,0.2,0.7,0.4C54,42.5,54.1,42.7,54.1,43z"/>
		<path class="st0" d="M58.2,40.4v0.4c-0.3,0-0.7,0-1.1,0V42c0,0.6,0,1.2,0,1.8h-0.5c0-0.6,0-1.2,0-1.8s0-0.9,0-1.3
			c-0.3,0-0.6,0-1.1,0v-0.4L58.2,40.4z"/>
		<path class="st0" d="M60.4,43.5c0,0.1,0,0.2-0.1,0.3c-0.1,0.1-0.2,0.1-0.3,0.1c-0.1,0-0.2,0-0.2-0.1c-0.1-0.1-0.1-0.2-0.1-0.2
			c0-0.1,0-0.2,0.1-0.3c0.1-0.1,0.2-0.1,0.3-0.1c0.1,0,0.2,0,0.2,0.1C60.4,43.3,60.4,43.4,60.4,43.5z"/>
		<path class="st0" d="M65.5,43.8H65c0-0.4,0-0.8,0-1.2s0-0.8,0-1L64.4,42l-0.1-0.2l1-0.7h0.2c0,0.6,0,1.1,0,1.7
			C65.4,43.1,65.4,43.5,65.5,43.8z"/>
		<path class="st0" d="M69.8,42.5c0,1.5-0.7,2.3-1.9,2.4l-0.1-0.3c0.9,0,1.5-0.7,1.5-1.5c0,0,0-0.1,0-0.1l0,0
			c-0.2,0.3-0.5,0.4-0.9,0.4c-0.3,0-0.6-0.1-0.7-0.3c-0.2-0.2-0.3-0.5-0.3-0.8c0-0.3,0.1-0.6,0.3-0.8c0.2-0.2,0.5-0.4,0.9-0.3
			c0.3,0,0.6,0.1,0.8,0.4C69.7,41.7,69.8,42.1,69.8,42.5z M69.3,42.6c0-0.3-0.1-0.6-0.2-0.9c-0.1-0.2-0.3-0.3-0.5-0.3
			c-0.2,0-0.4,0.1-0.5,0.2c-0.1,0.2-0.2,0.3-0.2,0.5c0,0.2,0.1,0.4,0.2,0.6c0.2,0.2,0.4,0.3,0.6,0.3C68.9,43,69.2,42.8,69.3,42.6z"
			/>
		<path class="st0" d="M73.8,42.4c0,0.4-0.1,0.8-0.3,1.1c-0.2,0.3-0.5,0.5-0.9,0.4c-0.3,0-0.7-0.1-0.9-0.4c-0.2-0.3-0.3-0.6-0.3-1
			c0-0.4,0.1-0.8,0.3-1.1c0.2-0.3,0.5-0.5,0.9-0.4c0.3,0,0.7,0.1,0.8,0.4C73.8,41.7,73.9,42.1,73.8,42.4z M73.4,42.5
			c0-0.3-0.1-0.6-0.2-0.8c-0.2-0.3-0.6-0.4-0.8-0.2c-0.1,0.1-0.2,0.1-0.2,0.2c-0.1,0.2-0.2,0.5-0.2,0.8c0,0.3,0.1,0.6,0.2,0.8
			c0.1,0.2,0.3,0.3,0.6,0.3c0.2,0,0.4-0.1,0.5-0.3C73.4,43.1,73.4,42.8,73.4,42.5z"/>
		<path class="st0" d="M78,42.5c0,1.5-0.6,2.3-1.9,2.4L76,44.6c1-0.1,1.5-0.6,1.6-1.7l0,0c-0.2,0.3-0.5,0.4-0.8,0.4
			c-0.3,0-0.6-0.1-0.7-0.3c-0.2-0.2-0.3-0.5-0.3-0.8c0-0.3,0.1-0.6,0.3-0.8c0.2-0.2,0.5-0.4,0.9-0.3c0.3,0,0.6,0.1,0.8,0.4
			C77.9,41.7,78,42.1,78,42.5z M77.5,42.6c0-0.3-0.1-0.6-0.2-0.9c-0.1-0.2-0.3-0.3-0.5-0.3c-0.2,0-0.4,0.1-0.5,0.2
			c-0.1,0.2-0.2,0.3-0.2,0.5c0,0.2,0.1,0.4,0.2,0.6c0.2,0.2,0.4,0.3,0.6,0.3C77.2,43,77.4,42.8,77.5,42.6L77.5,42.6z"/>
		<path class="st0" d="M45.6,42.5h-1.7c-0.1,0-0.3-0.1-0.2-0.3c0-0.1,0.1-0.2,0.2-0.2h1.7c0.1,0,0.2,0.1,0.2,0.2
			C45.8,42.3,45.7,42.5,45.6,42.5z"/>
		<path class="st0" d="M82.2,42.5h-1.7c-0.1,0-0.3-0.1-0.3-0.3l0,0c0-0.1,0.1-0.2,0.3-0.2h1.7c0.1,0,0.3,0.1,0.3,0.2
			C82.5,42.4,82.4,42.5,82.2,42.5z"/>
		<path class="st0" d="M13,2.2c6.8-2.6,14.3-2.9,21.3-0.7l5.4,1.6C43.9,4.3,46,4.3,47.3,3c0.5-0.6,0.6-1.5,0.2-2.2
			c-0.2-0.2,0.1-0.3,0.3-0.1c0.4,0.8,0.3,1.8-0.3,2.5c-1,1.2-3.1,1.6-5.2,1.6c-2-0.1-4-0.4-6-0.9l-2.1-0.5c-1,1.2-1.9,2.6-2.6,4.1
			l-2.2,4.1c2.5,0.3,5,0.2,7.4-0.5c-0.6,1.4-1.1,2.1-2.2,2.3c-1.5,0.2-4-0.5-5.6-1.1l-0.6,1.1c-3.6,6.4-8.2,11.1-14.7,13.4
			c-0.8,0.2-1.5,0.5-2.3,0.6c2.4,4.2,7.8,5.6,12,3.2c0.7-0.4,1.3-0.9,1.9-1.5c0.5-0.5,0.6-0.2,0.2,0.2c-3.7,4.3-11.4,4.2-15.5-1.6
			c-3.8,0.6-7.4,0.1-9.6-2.7c-0.6-0.7-0.8-1.9,0.5-2.4c1.1,4.2,5,5.1,8.8,4.6c-0.9-1.3-1.5-2.8-1.9-4.3c-5-0.3-6.4-5.1-5.3-9.4
			C4.1,8.3,8,4.1,13,2.2z M11.3,26.9c0.8-0.2,1.6-0.4,2.3-0.7c6.1-2.4,8.8-7.1,12.3-13.4l1.5-2.7c1.8-3.1,3.4-5.4,5.4-6.9l-2.7-0.6
			c-5.7-1.3-10.9-2.7-16.5,0.5C9.4,5.6,6.3,9.8,5.1,14.6c-0.6,3-0.2,6.5,2.6,7.5c-0.1-0.7-0.2-1.4-0.3-2.1c0-4.4,1.8-8.5,4.8-11.7
			c6.7-6.7,13.1-4,9.8,4.2c-1.6,3.9-5,8.2-9.6,9.7c-0.8,0.3-1.6,0.5-2.5,0.6C10.1,24.2,10.5,25.7,11.3,26.9z M11.3,21.9
			c5.5-1.4,8.6-6,10.1-9.6c2.7-6.4-0.9-10.1-6.6-3.9c-3.6,3.8-5.5,9.5-5,13.7C10.3,22.2,10.7,22.1,11.3,21.9L11.3,21.9z"/>
		<path class="st0" d="M45.8,13.5c1.1-1.8,2.1-2,3.8-2l-5,9.1c-1.2,2.2,0.5,1.2,2,0.2c1.6-1.3,3-2.9,4-4.7c0.2-0.3,0.4-0.1,0.3,0.1
			c-2.3,3.9-5.5,6.6-7.5,6.6c-0.8,0-1.6-0.8-1.2-2.5c-1.3,1.6-2.7,2.5-4,2.5c-2.5-0.1-2.3-3.1-0.9-5.7c1.3-2.4,4.5-6.2,7.3-5.7
			C45.6,11.5,45.9,12.3,45.8,13.5z M40.1,17c-1.6,2.9-2.1,5-0.9,5c0.9,0,3-2.1,4.6-5s2-4.9,1-4.9S41.7,14.1,40.1,17z"/>
		<path class="st0" d="M52.8,11.6c1,0,2.4,0.7,1.2,2.8l-3.5,6.3c-1.2,2.2,0.5,1.2,2,0.2c1.6-1.3,3-2.9,4.1-4.7
			c0.1-0.3,0.4-0.1,0.2,0.1c-2.3,3.9-5.5,6.6-7.5,6.6c-1.1,0-2-1.3-0.3-4.3L52.8,11.6z M55.9,7c0.7-0.1,1.2,0.4,1.3,1.1
			c0,0.1,0,0.2,0,0.2c-0.2,0.8-0.9,1.3-1.8,1.3c-0.7,0.1-1.3-0.4-1.3-1.1c0-0.1,0-0.2,0-0.3C54.4,7.5,55.1,7,55.9,7z"/>
		<path class="st0" d="M58.5,18.5l1.4-2.5c0.5-1,0.7-1.8-0.5-2.7L58.8,13c-1.1,2.2-2.5,4.2-4,6.1c-0.2,0.3-0.4,0-0.2-0.2
			c1.5-2,2.8-4.1,3.8-6.3c-1.7-1.3,0.6-3.9,2-3.9c-0.3,1.3-0.8,2.6-1.4,3.8l1.6,1.2c0.7,0.5,2.3,1.7,0.8,4.4l-1.4,2.4
			c-1.2,2.2,0.2,1.4,1.6,0.3c1.6-1.4,3-3,4.1-4.8c0.2-0.3,0.4-0.1,0.3,0.1c-0.8,1.4-1.7,2.7-2.8,3.8c-1.7,1.7-3,2.8-4.3,2.8
			C57.8,22.8,56.8,21.5,58.5,18.5z"/>
		<path class="st0" d="M63.8,22.5c-1.5-1-0.4-3.1,0.3-4.5l3.6-6.5c1,0,2.4,0.7,1.2,2.8l-3.5,6.4c-0.2,0.3-0.9,1.7,0,1.7
			c1.8,0,4.6-2.9,6-6c1.3-2.6,1.6-5.8,0.5-7.3c-0.2-0.4,0.2-0.3,0.3-0.1c3.4,3.5,2.4,8.1-1.5,11.5C68.3,22.6,65.1,23.4,63.8,22.5z"
			/>
		<path class="st0" d="M78.8,11.6c1,0,2.4,0.7,1.2,2.8l-3.5,6.3c-1.2,2.2,0.5,1.2,2,0.2c1.6-1.3,3-2.9,4-4.7
			c0.2-0.3,0.4-0.1,0.2,0.1c-2.3,3.9-5.5,6.6-7.5,6.6c-1.1,0-2-1.3-0.4-4.3L78.8,11.6z M81.9,7c0.7-0.1,1.2,0.4,1.3,1.1
			c0,0.1,0,0.2,0,0.2c-0.2,0.8-0.9,1.3-1.8,1.3c-0.7,0.1-1.3-0.4-1.3-1.1c0-0.1,0-0.2,0-0.2C80.3,7.5,81.1,7,81.9,7z"/>
		<path class="st0" d="M88.9,11.3c1.9,0,3.4,1.2,2,3.3s-4.7,3-7.8,3.5c-0.6,1.5-0.7,3,0.3,3.6c1.6,0.9,3.9,0.1,5.8-1.2
			c1.5-1.2,2.8-2.7,3.8-4.4c0.2-0.3,0.4-0.1,0.3,0.1c-1,1.8-2.4,3.4-4,4.6c-1.9,1.5-4.1,2.4-6.6,1.7c-1.7-0.5-3-2.6-1.7-5.7
			S85.4,11.3,88.9,11.3z M84.3,16c-0.4,0.6-0.7,1.1-1,1.7c2.2-0.4,4-1.7,5.2-3.6c0.8-1.4,0.9-2.4,0.1-2.4
			C87.6,11.8,85.8,13.6,84.3,16z"/>
		<path class="st0" d="M98.8,22.8c-1.7,0.2-1.9-1.7-1.5-2.7c-1.9,2-4.7,3.3-6.1,2.3s-0.4-3.1,0.3-4.5l3.6-6.5c1,0,2.3,0.7,1.1,2.8
			l-3.5,6.3c-0.1,0.3-0.8,1.6,0,1.6c1.3,0,3.8-3.1,4.9-5.1l2.9-5.3c1,0,2.3,0.6,1.2,2.8l-3.4,6.1c-0.2,0.3-0.9,1.7,0,1.7
			c1.8,0,4.4-2.9,5.8-6c1.3-2.6,1.5-5.8,0.5-7.3c-0.2-0.4,0.1-0.3,0.3-0.1c3.4,3.5,2.4,8.1-1.5,11.5
			C102.3,21.7,100.6,22.5,98.8,22.8z"/>
		<path class="st0" d="M38,36.5h-7.1v-0.1H31c0.5,0,0.9-0.4,0.9-0.9v-7.7C31.8,27.3,31.4,27,31,27h-0.2v-0.1h5.3
			c0.6,0,1.1-0.1,1.6-0.2V29h-0.1v-0.2c0-0.7-0.5-1.3-1.2-1.4c0,0-0.1,0-0.1,0H34v4h1.8c0.6,0,1.2-0.5,1.2-1.2v-0.1h0.1v3.2H37v-0.1
			c0-0.6-0.5-1.2-1.1-1.2c0,0,0,0,0,0H34v3.9h1.8c1.3,0,2.4-0.9,2.7-2.2h0.1L38,36.5z"/>
		<path class="st0" d="M47.8,31.5c0.8,0.5,1.3,1.3,1.2,2.3c-0.1,1.8-1.4,2.9-3.6,2.9c-1,0.1-2.1-0.2-2.9-0.8
			c-0.2-0.8-0.1-1.6,0.3-2.3H43c-0.1,1.3,0.9,2.5,2.2,2.6c0.1,0,0.3,0,0.4,0c1.2,0,1.9-0.7,1.9-1.5c0-0.6-0.4-0.9-1.1-1.4L44,31.5
			C43.1,31,42.6,30,42.7,29c0.1-1.4,1.4-2.5,2.8-2.4c0,0,0.1,0,0.1,0c0.6,0,1.3,0.1,1.9,0.1h0.9l-0.2,2H48c0-1-0.8-1.6-1.9-1.6
			s-1.8,0.6-1.8,1.3c0,0.5,0.4,0.9,1,1.3L47.8,31.5z"/>
		<path class="st0" d="M61.5,29h-0.1v-0.2c0.1-0.7-0.5-1.4-1.2-1.5c-0.1,0-0.1,0-0.2,0h-1.9v8.1c0,0.5,0.4,0.8,0.9,0.9h0.2v0.1H55
			v-0.1h0.2c0.5,0,0.9-0.4,0.9-0.8v-8.1h-1.9c-0.7,0-1.4,0.5-1.4,1.3c0,0,0,0.1,0,0.1v0.2h-0.1v-2.4c0.5,0.2,1.1,0.2,1.6,0.2h5.5
			c0.6,0,1.1-0.1,1.6-0.2V29z"/>
		<path class="st0" d="M72.2,35.5c0.2,0.5,0.7,0.8,1.2,0.8h0.1v0.1h-4.4v-0.1h0.1c0.3,0,0.6-0.2,0.6-0.6c0-0.1,0-0.2-0.1-0.3
			l-0.7-1.7h-3.2l-0.7,1.7c-0.2,0.3-0.1,0.6,0.2,0.8c0.1,0.1,0.2,0.1,0.3,0.1h0.1v0.1h-3v-0.1H63c0.5,0,0.9-0.3,1.2-0.8l3.2-7.2
			c0.3-0.6,0.5-1.2,0.7-1.8h0.1L72.2,35.5z M68.8,33.2l-1.3-3.4l-1.4,3.4H68.8z"/>
		<path class="st0" d="M83.6,29h-0.1v-0.2c0-0.7-0.5-1.4-1.2-1.4c0,0-0.1,0-0.1,0h-1.8v8.1c0,0.5,0.4,0.9,0.9,0.9h0.2v0.1h-4.2v-0.1
			h0.2c0.5,0,0.9-0.4,0.9-0.8v-8.2h-1.9c-0.7,0-1.3,0.6-1.3,1.3c0,0,0,0.1,0,0.1v0.2h-0.1v-2.4c0.5,0.2,1.1,0.2,1.6,0.2H82
			c0.6,0,1.1-0.1,1.6-0.2V29z"/>
		<path class="st0" d="M94.3,36.5h-7.1v-0.1h0.2c0.5,0,0.9-0.4,0.9-0.9v-7.7c0-0.5-0.4-0.8-0.9-0.8h-0.2v-0.1h5.3
			c0.6,0,1.1-0.1,1.7-0.2V29h-0.1v-0.2c0.1-0.7-0.5-1.3-1.2-1.4c0,0-0.1,0-0.1,0h-2.3v4h1.8c0.6,0,1.2-0.5,1.2-1.1c0,0,0,0,0,0v-0.1
			h0.1v3.2h-0.1v-0.1c0-0.6-0.5-1.1-1.1-1.2c0,0,0,0,0,0h-1.9v3.9h1.8c1.3,0,2.4-0.9,2.7-2.2h0.1L94.3,36.5z"/>
	</g>
</g>
</svg>
