<svg width="34" height="33" viewBox="0 0 34 33" fill="none" xmlns="http://www.w3.org/2000/svg">
<g id="GO ICON 1" clip-path="url(#clip0_8_242)">
<g id="Layer_x0020_1">
<path id="Vector" fill-rule="evenodd" clip-rule="evenodd" d="M29.51 0.0379486C21.4778 1.99435 8.80102 5.32471 4.16639 6.61902C3.30517 6.86046 2.37924 7.0347 1.48816 7.25871C1.04511 7.37072 0.716553 7.67439 0.574677 8.10748C0.430311 8.54058 0.50996 8.98114 0.796202 9.33459C2.7526 11.749 6.73759 16.3214 8.48491 18.1334C8.93792 18.6039 9.65726 18.6661 10.1849 18.2803C10.9317 17.7352 11.6834 17.1005 12.4624 16.4956L30.6152 2.32042C31.103 1.93959 31.2548 1.28745 30.986 0.732395C30.7172 0.174845 30.1099 -0.10891 29.51 0.0354557V0.0379486Z" fill="#A1CD38"/>
<path id="Vector_2" fill-rule="evenodd" clip-rule="evenodd" d="M31.2797 3.05711C30.7471 3.58479 30.2244 4.10749 29.7191 4.60779L17.8089 16.1346C17.804 16.1396 17.799 16.1446 17.7915 16.1496C16.8332 17.1103 14.0231 19.6019 12.5894 21.1899C12.1314 21.6977 12.1438 22.4693 12.6193 22.9596C14.4811 24.8936 17.9906 29.2819 20.1014 31.6365C20.4075 31.9775 20.8332 32.1269 21.2862 32.0497C21.7392 31.9725 22.0901 31.6913 22.2669 31.2681L33.393 4.47587C33.6319 3.89841 33.4378 3.24877 32.9175 2.9003C32.3998 2.55183 31.7228 2.61654 31.2797 3.05462V3.05711Z" fill="#A1CD38"/>
</g>
</g>
<defs>
<clipPath id="clip0_8_242">
<rect width="32.99" height="32.0727" fill="white" transform="matrix(-1 0 0 -1 33.495 32.0728)"/>
</clipPath>
</defs>
</svg>
