<svg width="113" height="72" viewBox="0 0 113 72" fill="none" xmlns="http://www.w3.org/2000/svg">
<g clip-path="url(#clip0_155_349)">
<path fill-rule="evenodd" clip-rule="evenodd" d="M12.9861 36.6726L17.5546 42.2217C19.9431 40.9539 18.6309 40.5331 22.6046 40.5331C25.2129 40.5331 27.6473 43.0133 28.136 45.1172C29.644 44.0088 29.9669 41.2567 33.9078 41.2567C37.8873 41.2567 40.4003 44.7852 40.4003 49.2188C43.863 49.5078 46.8933 52.3114 46.8933 55.4915V57.1805C51.105 57.1805 53.8671 60.6922 53.8671 63.4537C53.8671 65.9551 52.7024 67.2638 51.7027 68.7615C53.0441 68.8735 55.0824 69.4477 56.464 69.7748C57.8023 70.0916 59.8054 70.5562 61.3295 70.7027C64.8372 71.0397 68.1544 69.1691 68.7763 66.8314L58.341 61.8594C56.4969 60.934 57.1256 59.5932 58.436 59.5932C60.1735 59.5932 68.2433 65.1423 71.9028 65.1423C73.3833 65.1423 75.2677 65.2853 76.146 63.8503C76.5393 63.2076 77.0581 61.1521 76.7296 60.5596C75.9341 59.1251 63.0308 53.2411 62.4167 51.4565C61.2882 48.176 67.9957 52.6601 68.6103 53.0044C70.7658 54.2136 77.8321 58.8934 79.8159 58.8346C83.2247 58.7329 84.4077 56.8278 84.4077 53.8026C84.4077 52.5955 76.9864 48.5924 75.705 47.8165L68.8217 43.6246C67.7532 42.9275 67.3338 42.9907 67.3338 41.2567C70.239 41.2567 69.3866 41.4106 73.5726 43.9244L82.8888 49.5361C84.7783 50.6673 86.1358 51.8728 88.4954 51.8728C90.376 51.8728 92.3432 50.272 92.3432 48.4952C92.3432 45.5508 91.645 45.2257 88.7363 42.9457L82.0708 37.811C74.4548 32.1091 69.1389 28.2091 60.3567 23.6473C59.3355 23.1166 55.9754 20.9904 54.8288 20.9904C50.7041 20.9904 48.7576 24.9116 46.489 26.8576C43.6009 29.3344 40.7566 31.1236 36.3119 31.1236C35.3487 31.1236 34.1392 30.7412 33.5128 30.3132C30.2839 28.1066 33.9809 22.4561 35.1122 20.7518L39.198 14.4762C34.8782 14.4762 31.0589 13.1439 27.6552 10.8569C26.7957 11.4888 14.6662 33.4876 12.9863 36.6728L12.9861 36.6726Z" fill="#112E2C"/>
<path fill-rule="evenodd" clip-rule="evenodd" d="M37.5144 28.7108C40.5444 28.7108 44.3687 26.3273 46.248 23.962C46.801 23.2655 47.1826 22.7762 47.7776 22.1186C47.8485 22.0406 48.1056 21.7517 48.1188 21.7373C48.1527 21.7018 48.2019 21.65 48.2368 21.615C49.7871 20.0498 52.9549 18.5779 54.5881 18.5779C58.8286 18.5779 79.5335 33.0056 83.1703 35.7423L89.6662 40.8064C92.9742 43.4579 92.1162 42.377 97.8736 37.8792C98.7021 37.232 98.7881 36.9675 99.7979 36.4314L85.6093 10.6156C84.3777 10.6432 84.5094 10.9268 83.3073 11.2011C79.3199 12.1118 76.425 11.0971 72.6238 10.1332C65.2154 8.25373 55.3353 8.61623 47.9111 10.1899C44.0165 11.0152 44.1537 11.8085 41.6005 15.4395C40.5508 16.9322 35.0903 24.4263 34.8917 26.0837C34.847 26.4575 34.8203 27.1023 34.7978 27.494C34.7393 28.5038 34.3799 27.9912 35.0022 28.3616C35.1832 28.4696 37.1386 28.7108 37.5142 28.7108H37.5144Z" fill="#112E2C"/>
<path fill-rule="evenodd" clip-rule="evenodd" d="M0 33.0539C0 34.0582 5.45553 36.8804 6.53962 37.5912C7.51502 38.2304 7.81064 38.6029 9.37847 38.6029C9.56832 37.8897 10.0859 37.2375 10.4803 36.5715L23.0032 14.152C23.7757 12.7338 24.5215 11.4824 25.2501 10.1331C27.4174 6.11878 28.6245 5.69745 25.5667 4.02472C23.9609 3.14617 19.7055 0.119394 18.2763 0L12.5508 10.1796C11.2985 12.2603 0 32.0342 0 33.0539Z" fill="#112E2C"/>
<path fill-rule="evenodd" clip-rule="evenodd" d="M85.6095 5.79027C85.6095 6.77286 87.1966 9.03669 87.6941 9.97234C88.5119 11.5108 89.1977 12.6406 90.0207 14.152L103.252 37.7913C103.574 38.2955 103.754 38.7487 104.508 38.6487C105.202 38.5564 110 35.424 110.964 34.8474C114.504 32.7278 113.241 33.3893 108.616 24.6896C107.866 23.2806 107.149 22.0805 106.365 20.6747L94.7476 0C93.988 0.0636654 85.6094 4.57821 85.6094 5.79027H85.6095Z" fill="#112E2C"/>
<path fill-rule="evenodd" clip-rule="evenodd" d="M23.3263 56.4565C23.3263 58.9324 26.7261 64.5465 30.956 58.8035C31.8293 57.6177 32.5249 56.6108 33.3923 55.4581C33.8456 54.8557 34.1471 54.3728 34.5914 53.7657C35.0246 53.1732 35.4312 52.682 35.8294 52.1126C37.1716 50.1952 39.5489 47.718 36.745 44.9239C32.4685 40.662 29.8566 46.944 25.5605 52.6671C25.025 53.3804 23.3263 55.5326 23.3263 56.4565Z" fill="#112E2C"/>
<path fill-rule="evenodd" clip-rule="evenodd" d="M31.7432 62.2471C31.7432 66.3128 36.067 68.947 38.7884 65.2142L43.0437 59.3499C43.7631 58.3278 44.7287 57.3063 44.7287 55.9739C44.7287 53.5548 42.8332 51.6316 40.1596 51.6316C38.4147 51.6316 36.8532 54.4498 35.4529 56.3188C34.6377 57.407 31.7432 61.086 31.7432 62.2471Z" fill="#112E2C"/>
<path fill-rule="evenodd" clip-rule="evenodd" d="M40.6405 67.7967C40.6405 70.6608 44.5007 73.6294 47.1536 70.9532L49.6415 67.659C51.5478 65.1234 52.9534 62.2802 49.4522 60.1626C47.8178 59.1739 46.6078 59.2593 45.2685 60.3762C44.6819 60.8655 40.6405 65.9133 40.6405 67.7967Z" fill="#112E2C"/>
<path fill-rule="evenodd" clip-rule="evenodd" d="M16.5929 48.7359C16.5929 51.9384 20.5449 54.8319 22.9084 52.4189L24.1868 50.8058C25.8462 48.6788 27.2928 46.2887 24.9612 43.9595C22.0481 41.05 20.2491 42.9281 18.6999 44.8184C18.1024 45.547 16.5931 47.6315 16.5931 48.7361L16.5929 48.7359Z" fill="#112E2C"/>
</g>
<defs>
<clipPath id="clip0_155_349">
<rect width="113" height="72" fill="white"/>
</clipPath>
</defs>
</svg>
