<svg width="95" height="97" viewBox="0 0 95 97" fill="none" xmlns="http://www.w3.org/2000/svg">
<g id="plane 1" clip-path="url(#clip0_1_84)">
<g id="Layer_x0020_1">
<path id="Vector" fill-rule="evenodd" clip-rule="evenodd" d="M58.4804 51.7295L61.0241 44.6516L62.3124 45.1395C66.1645 42.4297 63.6399 41.5454 62.4749 40.3425L63.6833 36.4236L64.0579 36.4859C64.0929 36.4956 64.1512 36.5161 64.1901 36.5273C64.451 36.6026 64.2761 36.6471 64.7023 36.6777C65.6225 36.7434 67.4252 34.6183 67.0135 33.8604L65.0477 31.867L69.4601 18.5937C69.8065 17.5373 68.7936 15.0467 68.2289 14.1931C67.2683 15.3648 60.6677 26.9108 59.2697 29.2704C57.7744 31.7951 56.2673 34.2918 54.7711 36.8617C54.5553 37.2324 50.7902 44.1631 50.1589 44.1108C49.4019 43.8549 38.7223 34.8461 37.6471 33.6958L38.7972 20.0217L36.4663 17.8847C35.8342 18.7403 34.3697 22.6707 33.9334 23.805L31.4074 29.9123C30.1095 29.089 28.8259 28.737 27.6161 29.1175C26.1904 30.4766 27.7451 31.914 28.1966 33.3902L16.6913 39.2424C19.6839 41.9915 18.7982 41.6729 20.7392 41.3061L32.4423 39.3518L44.2564 50.9183L15.3948 71.5495C16.2186 71.9749 17.0004 72.0256 17.7553 72.2034C18.9061 72.475 19.0105 72.7552 19.9708 72.3954C22.6775 71.3807 31.5416 67.1194 33.0287 66.9117C35.221 68.9488 35.3175 69.4262 37.2295 67.102C37.7855 66.4258 37.8878 66.4183 37.6119 65.6013C37.5934 65.5469 37.5238 65.3768 37.5055 65.328L41.1503 63.3989C42.3025 64.4188 43.1429 65.8848 44.2853 64.8846C44.5295 64.6706 45.5396 63.5476 45.7037 63.2877C46.1926 62.5144 45.8137 62.4835 45.2001 61.6737L52.2062 58.5287C55.9624 61.8489 59.4604 65.8328 64.5553 67.3201C71.7462 69.4192 68.6518 63.1816 66.1137 59.5055C63.9967 56.4386 61.23 54.3116 58.4767 51.7324L58.4804 51.7295Z" fill="#A1CD38"/>
</g>
</g>
<defs>
<clipPath id="clip0_1_84">
<rect width="77.9797" height="57.1247" fill="white" transform="translate(94.8408 38.6863) rotate(132.627)"/>
</clipPath>
</defs>
</svg>
