<svg width="71" height="70" viewBox="0 0 71 70" fill="none" xmlns="http://www.w3.org/2000/svg">
<g id="Frame">
<path id="Vector" d="M23.8078 8.7002C15.8007 8.7002 9.3075 15.1934 9.3075 23.2005V46.401C9.3075 54.408 15.8007 60.9013 23.8078 60.9013H47.0083C55.0153 60.9013 61.5086 54.408 61.5086 46.401V23.2005C61.5086 15.1934 55.0153 8.7002 47.0083 8.7002H23.8078ZM52.8084 14.5003C54.4092 14.5003 55.7084 15.7995 55.7084 17.4004C55.7084 19.0012 54.4092 20.3004 52.8084 20.3004C51.2076 20.3004 49.9083 19.0012 49.9083 17.4004C49.9083 15.7995 51.2076 14.5003 52.8084 14.5003ZM35.408 20.3004C43.4151 20.3004 49.9083 26.7937 49.9083 34.8007C49.9083 42.8078 43.4151 49.301 35.408 49.301C27.401 49.301 20.9077 42.8078 20.9077 34.8007C20.9077 26.7937 27.401 20.3004 35.408 20.3004ZM35.408 26.1006C33.1006 26.1006 30.8877 27.0172 29.2561 28.6488C27.6245 30.2804 26.7079 32.4933 26.7079 34.8007C26.7079 37.1082 27.6245 39.3211 29.2561 40.9527C30.8877 42.5843 33.1006 43.5009 35.408 43.5009C37.7155 43.5009 39.9284 42.5843 41.56 40.9527C43.1916 39.3211 44.1082 37.1082 44.1082 34.8007C44.1082 32.4933 43.1916 30.2804 41.56 28.6488C39.9284 27.0172 37.7155 26.1006 35.408 26.1006Z" fill="#93C754"/>
</g>
</svg>
