<svg width="113" height="113" viewBox="0 0 113 113" fill="none" xmlns="http://www.w3.org/2000/svg">
<g id="Code Block / undefined / Glyph: undefined">
<path id="Vector" d="M26.9821 24.3983C19.8378 25.658 15.0675 32.4708 16.3272 39.6151L24.3982 85.3881C25.6579 92.5323 32.4708 97.3027 39.615 96.043L85.3881 87.972C92.5322 86.7123 97.3027 79.8994 96.043 72.7552L87.972 26.9822C86.7122 19.8379 79.8993 15.0675 72.7552 16.3272L26.9821 24.3983ZM48.4266 46.3916L39.5104 59.1253L52.2441 68.0417C53.6154 69.002 53.9487 70.8918 52.9884 72.2632C52.0282 73.6346 50.1382 73.9678 48.7668 73.0076L33.55 62.3527C32.1787 61.3924 31.8455 59.5026 32.8057 58.1312L43.4606 42.9143C44.4208 41.5429 46.3108 41.2097 47.6822 42.1699C49.0535 43.1301 49.3868 45.0203 48.4266 46.3916ZM63.6032 39.3626L78.82 50.0176C80.1914 50.9779 80.5247 52.8677 79.5644 54.2391L68.9095 69.4559C67.9492 70.8273 66.0594 71.1605 64.688 70.2002C63.3166 69.24 62.9834 67.3502 63.9437 65.9788L72.8596 53.245L60.1262 44.3286C58.7548 43.3684 58.4215 41.4783 59.3818 40.1069C60.342 38.7356 62.2318 38.4024 63.6032 39.3626Z" fill="#A1CD38"/>
</g>
</svg>
