<svg width="59" height="58" viewBox="0 0 59 58" fill="none" xmlns="http://www.w3.org/2000/svg">
<g id="Frame" clip-path="url(#clip0_8_450)">
<path id="Vector" d="M47.2127 0.200684H11.212C5.24934 0.200684 0.411743 5.03828 0.411743 11.0009V47.0016C0.411743 52.9643 5.24934 57.8019 11.212 57.8019H47.2127C53.1753 57.8019 58.0129 52.9643 58.0129 47.0016V11.0009C58.0129 5.03828 53.1753 0.200684 47.2127 0.200684ZM18.2217 49.0959H9.27346L9.22154 22.3031H18.1698L18.2217 49.0959ZM13.5226 18.7982H13.4707C10.5456 18.7982 8.65903 16.7818 8.65903 14.2721C8.65903 11.7019 10.6062 9.75472 13.5832 9.75472C16.5601 9.75472 18.3861 11.7019 18.4467 14.2721C18.4467 16.7818 16.5515 18.7982 13.5226 18.7982ZM49.2464 49.0959H40.2202V34.5398C40.2202 31.0177 39.2856 28.6205 36.1355 28.6205C33.7297 28.6205 32.4316 30.2388 31.8085 31.8052C31.5749 32.3677 31.5143 33.1379 31.5143 33.9254V49.0959H22.4449L22.393 22.3031H31.4624L31.5143 26.0849C32.6739 24.2935 34.6038 21.7579 39.225 21.7579C44.954 21.7579 49.2377 25.4964 49.2377 33.536V49.0959H49.2464Z" fill="#93C754"/>
</g>
<defs>
<clipPath id="clip0_8_450">
<rect width="57.6012" height="57.6012" fill="white" transform="translate(0.411743 0.200684)"/>
</clipPath>
</defs>
</svg>
