<svg width="48" height="48" viewBox="0 0 48 48" fill="none" xmlns="http://www.w3.org/2000/svg">
<g id="Location / undefined / Glyph: undefined">
<path id="Vector" d="M36.3136 33.7638L33.9396 36.1116C32.1898 37.8288 29.9196 40.0368 27.1278 42.7358C25.3834 44.4226 22.6158 44.4224 20.8716 42.7354L13.8893 35.9436C13.0118 35.082 12.2773 34.3554 11.6856 33.7638C4.88476 26.963 4.88476 15.9366 11.6856 9.13577C18.4864 2.33495 29.5128 2.33495 36.3136 9.13577C43.1144 15.9366 43.1144 26.963 36.3136 33.7638ZM29 21.9992C29 19.2375 26.7612 16.9987 23.9996 16.9987C21.238 16.9987 18.9992 19.2375 18.9992 21.9992C18.9992 24.7608 21.238 26.9996 23.9996 26.9996C26.7612 26.9996 29 24.7608 29 21.9992Z" fill="#A1CD38"/>
</g>
</svg>
