<?xml version="1.0" encoding="utf-8"?>
<!-- Generator: Adobe Illustrator 27.5.0, SVG Export Plug-In . SVG Version: 6.00 Build 0)  -->
<svg version="1.1" xmlns="http://www.w3.org/2000/svg" xmlns:xlink="http://www.w3.org/1999/xlink" x="0px" y="0px"
	 viewBox="0 0 1100 800" style="enable-background:new 0 0 1100 800;" xml:space="preserve">
<g id="Background">
	<rect style="fill:#FFFFFF;" width="1100" height="800"/>
</g>
<g id="Shadow">
	<g>
		<path style="fill:#F1F2F2;" d="M521.964,644.118c-28.193,0.084-56.385,0.762-84.528,3.892c-10.611,1.18-21,3.776-31.635,4.823
			c-21.244,2.092-42.107,5.993-63.426,7.793c-17.168,1.449-34.408,2.305-51.526,4.143c-16.049,1.724-33.816,1.326-49.742-1.522
			c-11.79-2.109-23.633-3.296-35.225-6.682c-12.967-3.789-27.055-6.498-40.565-6.4c-19.266,0.139-38.028,0.155-56.466,6.845
			c-6.472,2.348-14.395,6.209-19.31,11.137c-11.251,11.282-12.774,39.432-1.54,51.133c18.921,19.693,59.305,27.42,85.827,27.785
			c29.063,0.4,57.296-1.758,86.401-3.026c27.045-1.179,54.023-2.856,81.113-2.797c55.328,0.121,110.664,0,165.893-3.696
			c51.888-3.472,103.907-2.28,155.909-2.28c53.326,0,106.291,0.419,159.233,7.506c23.067,3.088,46.567,4.169,69.75,6.332
			c20.762,1.938,40.714-0.038,61.394-1.829c17.365-1.504,34.616-5.964,50.391-13.503c12.487-5.968,34.749-24.507,38.579-38.752
			c10.736-39.935-151.3-38.975-176.179-38.885c-27.831,0.101-55.884,1.016-83.693-0.045c-11.698-0.446-23.224-2.733-34.641-5.238
			c-11.372-2.495-22.83-1.861-34.362-2.91c-48.092-4.374-96.291-3.734-144.536-3.734
			C553.379,644.209,537.671,644.071,521.964,644.118z"/>
	</g>
</g>
<g id="Object">
	<g>
		<g>
			<g>
				<g>
					<path style="fill:#EBB044;" d="M331.884,187.123c0.262,26.188-45.546,95.751-45.546,95.751s-47.188-68.634-47.45-94.822
						c-0.262-26.188,20.344-47.625,46.024-47.882C310.592,139.914,331.622,160.935,331.884,187.123z"/>
					<path style="fill:#FFFFFF;" d="M307.221,185.279c0.123,12.31-9.563,22.387-21.634,22.507
						c-12.071,0.121-21.956-9.761-22.079-22.071c-0.123-12.31,9.563-22.386,21.634-22.507
						C297.213,163.089,307.099,172.97,307.221,185.279z"/>
				</g>
				<path style="fill:#FFFFFF;" d="M246.898,192.137c-0.227-22.749,17.673-41.372,39.981-41.595
					c13.04-0.13,24.697,6.057,32.18,15.762c-7.098-12.278-20.254-20.461-35.232-20.311c-22.308,0.223-40.208,18.846-39.981,41.595
					c0.094,9.452,3.305,18.127,8.624,25.026C248.996,206.604,246.973,199.613,246.898,192.137z"/>
				<path style="fill:#D19534;" d="M275.191,264.848c6.444,10.762,11.147,18.026,11.147,18.026s45.808-69.563,45.546-95.751
					c-0.014-1.375-0.097-2.732-0.223-4.076c-1.763,7.294-4.286,14.403-7.403,21.195c-8.614,18.77-21.511,30.871-35.222,46.167
					C284.615,255.34,280.011,260.218,275.191,264.848z"/>
			</g>
		</g>
	</g>
	<g>
		<g>
			<path style="fill:#AA6755;" d="M657.949,182.353c0.278,0.233,0.563,0.476,0.756,0.768c1.801,2.727,1.106,5.227,2.088,8.333
				c0.438,1.385,4.041,2.374,2.11,4.713c-0.712,0.864-2.759,2.735-4.296,4.561c-2.241,2.664-3.472,7.395-3.756,11.331
				c-1.116,15.466,2.008,30.808,5.575,45.886c0.203,0.86,0.429,1.754,1.005,2.423c1.032,1.198,2.816,1.306,4.396,1.356
				c7.331,0.231,14.641,1.145,21.803,2.726c6.391,1.411,12.823,3.433,17.981,7.461c5.158,4.028,8.864,10.406,8.224,16.92
				c-0.479,4.877-3.464,9.441-7.741,11.834c-10.607,5.935-24.605-4.987-33.878-9.734c-8.773-4.491-17.232-9.597-25.291-15.271
				c-0.995-0.701-2.011-1.437-2.65-2.473c-0.682-1.103-0.867-2.432-1.035-3.718c-2.154-16.561-2.833-33.218-3.178-49.976
				c-0.095-4.605,2.243-8.674,2.117-12.932c-0.081-2.717-2.098-4.79-2.741-7.337c-0.637-2.52-0.83-5.99-0.492-8.564
				c0.666-5.077,5.299-7.628,9.128-10.255c0.953-0.654,1.595-1.099,2.672-1.223c1.75-0.202,3.219,0.673,4.708,1.489
				C656.336,181.155,657.183,181.711,657.949,182.353z"/>
		</g>
		<g>
			<path style="fill:#EBB044;" d="M676.846,290.063c1.596-9.697,3.192-19.395,4.788-29.092c-0.102,0.622,44.446,4.549,47.09,4.874
				c10.091,1.239,20.537,2.598,29.188,7.938c18.471,11.403,13.846,39.603-8.397,42.696c-24.147,3.358-51.605-2.222-72.818-14.114
				c-0.461-0.258-0.94-0.539-1.212-0.992c-0.373-0.622-0.267-1.408-0.15-2.124C675.838,296.187,676.342,293.125,676.846,290.063z"/>
		</g>
	</g>
	<g>
		<g>
			<g>
				<g>
					<g>
						<path style="fill:#E2B596;" d="M685.165,676.306c-2.963-0.333-5.7-1.411-8.556-2.103c2.718-28.929,9.846-58.62,15.256-87.293
							c7.318,1.476,14.635,2.951,21.953,4.427c-7.398,14.663-13.398,30.03-17.906,45.822
							C695.197,639.662,685.588,676.353,685.165,676.306z"/>
					</g>
					<g>
						<path style="fill:#3B455A;" d="M676.533,668.503c-1.773-0.592-2.966,0.061-4.342,0.992c-0.799,0.541-1.412,1.382-2.33,1.718
							c-0.918,0.336-1.765,0.304-2.79,0.257c-5.399-0.246-17.624-2.266-12.4,7.59c4.745,8.951,20.966,8.045,30.386,7.185
							c0.619-0.057,1.265-0.054,1.771-0.453c0.506-0.399,0.899-1.015,1.186-1.671c1.596-3.65,3.712-8.19-0.729-10.469
							c-1.895-0.972-3.925,0.078-5.929-0.963C679.715,671.837,678.306,669.095,676.533,668.503z"/>
					</g>
				</g>
			</g>
			<path style="fill:#3B455A;" d="M676.39,608.734c15.083,1.915,30.167,3.831,45.25,5.746
				c20.666-56.135,52.188-101.904,57.751-169.888c0.378-4.622,2.772-9.038,2.112-13.629c-1.25-8.682-9.463-14.737-17.761-17.583
				c-12.894-4.422-37.759-4.547-46.58,8.239c-9.323,13.513-11.934,39.708-16.039,55.55
				C689.921,520.399,681.648,564.387,676.39,608.734z"/>
		</g>
		<g>
			<g>
				<g>
					<g>
						<path style="fill:#E2B596;" d="M807.89,680.141c-2.919,0.611-5.855,0.443-8.785,0.679
							c-6.465-28.328-8.98-58.759-12.809-87.686c7.412-0.887,14.824-1.773,22.236-2.66c-2.441,16.241-3.335,32.714-2.677,49.124
							C805.959,642.198,808.306,680.054,807.89,680.141z"/>
					</g>
					<g>
						<path style="fill:#3B455A;" d="M797.251,675.429c-1.869-0.007-2.798,0.986-3.814,2.3c-0.59,0.763-0.909,1.754-1.676,2.36
							c-0.766,0.606-1.581,0.841-2.57,1.117c-5.205,1.455-17.449,3.359-9.404,11.087c7.306,7.018,22.431,1.085,31.109-2.678
							c0.571-0.247,1.184-0.446,1.541-0.984c0.356-0.537,0.536-1.245,0.604-1.958c0.375-3.966,0.965-8.94-3.966-9.716
							c-2.104-0.331-3.704,1.302-5.933,0.94C801.316,677.601,799.12,675.436,797.251,675.429z"/>
					</g>
				</g>
			</g>
			<path style="fill:#3B455A;" d="M772.832,613.242c14.926-2.898,29.852-5.796,44.777-8.693
				c2.074-59.782,2.649-119.616,1.725-179.427c-0.072-4.637-0.193-9.452-2.257-13.605c-3.902-7.856-13.597-11.039-22.369-11.147
				c-13.63-0.168-37.287,7.489-41.667,22.393c-4.629,15.751,1.082,41.449,2.138,57.779
				C758.06,525.106,763.958,569.475,772.832,613.242z"/>
		</g>
		<g>
			<path style="fill:#EBB044;" d="M792.195,287.874c12.187,11.599,21.317,26.499,26.815,41.933
				c9.737,27.332,9.925,56.514,10.014,85.11c0.03,9.518,0.059,19.035,0.089,28.553c0.03,9.364-0.799,11.38-10.975,10.145
				c-18.858-2.288-38.463-6.175-55.55-14.556c-8.131-3.988-15.73-9.025-24.256-12.165c-12.4-4.567-25.114-2.499-37.383-5.471
				c3.112-9.407,7.765-17.998,9.929-27.867c2.166-9.879,3.189-19.976,3.87-30.063c1.191-17.63,3.386-35.155,4.708-52.719
				c0.947-12.58-0.711-22.883,12.67-31.134c7.284-4.492,20.535-12.178,30.813-10.099
				C773.845,271.749,785.383,281.39,792.195,287.874z"/>
		</g>
		<g>
			<g>
				<g>
					<path style="fill:#AA6755;" d="M748.22,247.778c2.302,5.031,6.063,9.224,9.134,13.826c2.988,4.477,4.062,8.528,4.855,13.72
						c0.573,3.749,1.913,6.68,6.429,7.322c8.518,1.21,6.082-5.827,8.017-10.947c2.212-5.852,6.928-10.477,10.224-15.7
						c9.524-15.094,6.806-44.928-12.989-51.294C752.245,197.743,741.235,232.512,748.22,247.778z"/>
				</g>
			</g>
			<g>
				<path style="fill:#2A3444;" d="M782.722,233.172c2.457,0.099,5.16,0.294,6.982,1.944c1.822,1.65,1.624,5.25-0.781,5.639
					c-2.181,0.353-5.005-1.923-6.337-0.262c-0.779,0.971-0.095,2.391,0.496,3.527c2.267,4.357,2.946,9.409,1.888,14.05
					c0.897,0.831,2.297-0.031,3.085-0.897c3.913-4.298,6.971-9.319,8.973-14.735c0.786,1.311,1.939,2.427,3.298,3.193
					c-0.815-2.036-0.299-4.265,0.204-6.343c1.849-7.635,3.108-16.58-2.224-22.82c-2.853-3.338-7.191-5.259-11.554-6.066
					c-4.363-0.807-8.81-0.611-13.206-0.412c-1.882,0.085-4.199,0.49-4.651,2.231c4.126,1.654,8.395,4.877,10.46,8.784
					C779.989,222.203,782.471,233.162,782.722,233.172z"/>
			</g>
			<g>
				<path style="fill:#3B455A;" d="M774.003,214.827c0.15,0.109,0.298,0.219,0.443,0.329c1.87,1.423,3.623,3.155,5.887,3.786
					c3.262,0.91,6.767-0.662,9.978,0.449c3.59,1.242,5.95,5.535,8.571,8.076c4.297,4.166,9.625,7.23,15.344,8.97
					c2.921,0.889,5.948,1.435,8.997,1.608c1.382,0.078,3.231,0.34,4.579-0.023c1.809-0.487,1.746-1.309-0.18-1.927
					c-6.043-1.936-7.937-10.424-7.481-16.05c0.361-4.441,1.892-9.083,0.198-13.203c-1.294-3.148-4.072-4.773-6.758-6.574
					c-2.962-1.986-6.174-1.451-9.537-2.406c-3.509-0.996-6.367-3.759-9.946-4.464c-3.78-0.744-7.558,0.931-11.339,1.666
					c-3.125,0.607-6.373,0.567-9.482-0.117c-2.785-0.613-5.504-1.74-8.356-1.714c-4.206,0.039-8.074,2.664-10.528,6.08
					c-3.472,4.832-5.716,13.099-4.493,19.461c-0.19-0.987,3.132-4.564,3.816-5.333c1.442-1.624,3.184-3.146,5.386-3.408
					C764.087,209.438,769.996,211.917,774.003,214.827z"/>
			</g>
		</g>
	</g>
	<g>
		<g>
			<g>
				<g>
					<path style="fill:#3B455A;" d="M311.307,671.083c0.38-1.171,1.009-2.243,1.928-3.018c0.484-0.408,1.036-0.725,1.508-1.148
						c2.218-1.994,2.003-3.94,5.206-3.445c3.645,0.564,7.274,1.299,10.906,1.947c0.143,0.026,0.295,0.055,0.406,0.152
						c0.16,0.14,0.193,0.379,0.215,0.596c0.129,1.265,0.258,2.529,0.387,3.794c0.349,3.419,3.388,4.469,5.87,5.861
						c0.638,0.358,1.3,0.719,1.973,1.09c2.815,1.554,11.371,5.051,7.045,9.428c-1.789,1.809-4.832,1.756-7.175,1.954
						c-2.264,0.191-4.529-0.389-6.751-0.738c-7.123-1.472-13.677-3.7-20.087-7.259c-2.296-1.276-2.087-4.771-1.837-7.25
						C310.967,672.383,311.101,671.718,311.307,671.083z"/>
					<g>
						<polygon style="fill:#3B455A;" points="325.308,449.415 317.536,477.81 324.231,559.219 312.899,667.185 334.21,669.355 
							363.662,566.393 387.434,453.595 						"/>
					</g>
				</g>
				<g>
					<path style="fill:#3B455A;" d="M410.282,681.415c0.087-1.229,0.439-2.42,1.145-3.394c0.372-0.513,0.831-0.953,1.187-1.477
						c1.672-2.469,0.995-4.306,4.224-4.597c3.674-0.331,7.373-0.49,11.054-0.735c0.145-0.01,0.299-0.018,0.431,0.05
						c0.189,0.098,0.279,0.321,0.352,0.526c0.43,1.196,0.859,2.393,1.289,3.589c1.161,3.235,4.364,3.523,7.108,4.276
						c0.705,0.194,1.435,0.385,2.177,0.583c3.107,0.831,12.253,2.166,9.107,7.455c-1.3,2.186-4.267,2.868-6.494,3.624
						c-2.151,0.73-4.49,0.712-6.73,0.909c-7.268,0.286-14.165-0.299-21.244-2.211c-2.535-0.685-3.174-4.128-3.528-6.595
						C410.266,682.758,410.235,682.081,410.282,681.415z"/>
					<g>
						<polygon style="fill:#3B455A;" points="370.518,462.894 360.274,483.504 395.902,569.729 410.889,677.249 432.096,674.225 
							435.9,567.201 431.824,451.998 						"/>
					</g>
				</g>
			</g>
			<path style="fill:#7FC5A3;" d="M300.776,449.626c0.845-5.242,1.719-9.607,1.963-11.178c3.315-21.297,12.854-41.656,18.999-62.224
				c7.308-24.46,15.828-48.558,25.521-72.175c3.592-8.753,8.151-18.258,16.934-21.783c10.096-4.05,19.828-12.244,29.903-6.325
				c2.059,1.21,4.582,1.784,6.737,2.862c12.804,6.405,19.253,16.841,22.077,30.849c2.273,11.271,4.545,22.541,6.818,33.812
				c1.866,9.256,3.733,18.515,5.185,27.848c3.8,24.432,4.727,49.229,4.58,73.949c-0.074,12.393-0.42,24.784-0.811,37.171
				c-0.25,7.917-3.81,4.12-8.201,1.133c-7.57-5.15-15.057-10.518-23.947-13.161c-4.317-1.284-8.802-1.891-13.277-2.396
				c-27.218-3.072-55-2.503-81.706,3.584c-1.587,0.362-3.204,0.757-4.574,1.636c-1.83,1.173-4.469,4.034-6.648,2.086
				c-1.355-1.212-1.27-4.744-1.342-6.349C298.701,462.528,299.754,455.962,300.776,449.626z"/>
		</g>
		<g>
			<g>
				<g>
					<path style="fill:#3B455A;" d="M409.241,226.961c2.029,4.752,2.682,10.041,2.35,15.215c-0.089,1.376-0.167,2.967,0.834,3.894
						c1.072,0.993-0.157,2.779,0.854,1.719c1.011-1.06,4.454-4.751,4.747-6.197c0.686-3.387,1.054-6.841,1.097-10.298
						c0.037-3.006-0.225-6.181-1.895-8.659c-0.99-1.47-2.403-2.581-3.795-3.661c-2.02-1.567-4.104-3.152-6.538-3.895
						c-4.195-1.281-6.99-0.007-3.539,3.445C405.827,220.997,407.851,223.706,409.241,226.961z"/>
				</g>
				<g>
					<g>
						<path style="fill:#EFC9AF;" d="M376.323,282.478c5.831,1.206,11.662,2.413,17.493,3.619
							c1.455-5.077,2.548-10.277,3.266-15.534c5.228-0.332,11.445-1.358,13.789-6.632c0.738-1.661,0.96-3.532,1.171-5.362
							c0.872-7.568,1.744-15.135,2.616-22.703c0.302-2.617,0.599-5.316-0.021-7.843c-1.087-4.435-4.745-7.409-8.428-9.431
							c-9.4-5.162-20.887-6.257-30.596-1.447c-2.584,1.28-5.08,3.017-6.763,5.563c-2.596,3.925-2.88,9.091-3.065,13.928
							c-0.171,4.465-0.341,8.93-0.512,13.395c-0.196,5.135-0.077,11.084,3.524,14.203c1.912,1.656,4.553,2.211,6.134,4.256
							C377.719,272.095,375.658,277.74,376.323,282.478z"/>
					</g>
				</g>
				<g>
					<path style="fill:#3B455A;" d="M414.173,255.746c0.068-1.414-0.091-5.595-2.447-3.236c-0.616,0.617-0.853,1.558-0.984,2.455
						c-0.13,0.897-0.19,1.828-0.561,2.645c-0.851,1.876-3.064,2.529-4.947,2.288c-0.749-0.096-1.5-0.305-2.122-0.762
						c-0.604-0.444-1.051-1.092-1.487-1.729c-1.058-1.546-2.117-3.092-3.175-4.637c-1.819-2.657-6.06-2.06-8.905-1.995
						c-3.278,0.075-6.618,0.712-9.493,2.585c-0.29,0.189-0.575,0.39-0.86,0.59c-0.697,0.488-1.397,0.972-2.176,1.257
						c-2.63,0.962-5.581-0.667-7.081-3.171c-0.688-1.148-1.288-2.593-2.514-2.907c-0.959-0.245-1.984,0.361-2.584,1.233
						c-0.6,0.872-0.853,1.963-1.037,3.03c-0.668,3.885-0.574,7.977,0.719,11.63c2.803,7.921,9.693,9.611,16.736,10.213
						c2.784,0.238,5.568,0.476,8.352,0.714c5.09,0.435,10.479,0.809,15.079-1.723c4.058-2.234,6.786-6.49,8.214-11.103
						C413.638,260.741,414.052,258.245,414.173,255.746z M394.449,264.374c-2.871,1.535-5.828,1.31-8.709,0.071
						c-1.225-0.527-0.454-2.63,0.773-2.102c2.388,1.027,4.721,1.263,7.111-0.015C394.826,261.685,395.644,263.735,394.449,264.374z"
						/>
				</g>
				<g>
					<path style="fill:#3B455A;" d="M419.662,214.824c0.688-1.782,1.253-3.613,1.687-5.475c-1.784,0.425-3.673,0.383-5.435-0.121
						c0.113-1.089,0.227-2.179,0.34-3.268c0.09-0.907-11.889-2.862-12.859-3.051c-9.082-1.77-17.385-3.416-26.212,0.677
						c-7.54,3.497-12.767,9.38-14.75,17.567c-1.894,7.821-0.459,18.465,3.342,25.545c0.202-2.115-0.455-7.229,0.251-9.183
						c0.518-1.979,1.41-3.844,2.546-5.532c2.269-3.37,5.51-6.059,9.111-7.837c5.741-2.835,12.182-3.96,18.514-4.16
						c5.802-0.183,12.847-0.166,18.327,1.993c2.634,1.038,3.009,1.78,4.954-0.826c0.343-0.459,3.259-5.943,3.035-5.971
						C421.563,215.062,420.613,214.943,419.662,214.824z"/>
				</g>
			</g>
		</g>
	</g>
	<g>
		<g>
			<g>
				<g>
					<g>
						<path style="fill:#E2B596;" d="M976.869,672.17c2.979,0.368,5.775-0.528,8.692-0.69c0.441-10.247-0.113-20.127-1.747-30.361
							c-4.791,4.749-8.422,1.626-8.801,11.036C974.891,655.201,977.717,667.572,976.869,672.17z"/>
						<path style="fill:#3B455A;" d="M986.503,666.424c3.47-1.025,3.778,7.141,3.696,9.052c-0.049,1.148-0.251,2.311-0.023,3.438
							c0.252,1.24,1,2.312,1.73,3.345c1.529,2.163,3.059,4.326,4.588,6.489c0.688,0.973,1.387,1.969,1.72,3.112
							c0.826,2.834-0.985,6.037-3.691,7.217c-9.389,4.095-17.096-7.543-18.656-15.026c-0.239-1.147-0.395-2.309-0.551-3.471
							c-0.322-2.402-1.828-7.686-0.753-9.954c1.254-2.646,4.476-0.495,6.718-1.393C983.362,668.403,985.099,666.841,986.503,666.424
							z"/>
					</g>
					<path style="fill:#3B455A;" d="M930.844,500.318c7.199,23.65,15.737,46.866,19.965,71.436
						c5.223,30.351,14.724,60.198,18.75,90.549c3.692,0.329,7.409,0.381,11.108,0.156c4.242-0.259,10.994-1.018,12.775-5.533
						c0.91-2.308,0.303-6.179,0.322-8.628c0.063-7.846-0.054-15.693-0.187-23.538c-0.377-22.195-0.228-44.631-3.06-66.65
						c-2.98-23.164-5.774-46.396-8.24-69.527c-1.275-11.955-3.004-23.863-5.292-35.667c-0.589-3.042-6.746-34.395-8.312-34.236
						c-18.585,1.889-36.162,7.014-52.741,15.619c-1.611,0.836-3.178,1.853-3.814,3.468c-0.635,1.615-0.224,3.062,0.194,4.584
						c3.988,14.517,9.624,28.239,13.933,42.719C927.743,490.107,929.269,495.145,930.844,500.318z"/>
				</g>
				<g>
					<g>
						<path style="fill:#E2B596;" d="M916.647,663.493c-2.857,0.921-5.772,0.566-8.667,0.955c-2.358-9.981-3.67-19.79-3.987-30.149
							c5.598,3.765,8.577,0.015,10.717,9.187C915.402,646.455,914.95,659.136,916.647,663.493z"/>
						<path style="fill:#3B455A;" d="M905.219,661.327c-0.321,5.551-5.029,11.282-7.729,16.138
							c-0.318,0.571-0.642,1.165-0.691,1.817c-0.072,0.968,0.471,1.863,0.995,2.681c0.726,1.136,1.518,2.33,2.744,2.892
							c1.204,0.552,2.602,0.388,3.909,0.178c2.188-0.352,4.36-0.805,6.508-1.355c0.535-0.137,1.081-0.286,1.529-0.609
							c0.531-0.382,0.87-0.969,1.194-1.537c1.661-2.917,3.05-4.976,3.158-8.324c0.112-3.459-0.121-7.062,0.704-10.449
							c0.406-1.643,0.94-3.742-0.431-4.734c-1.06-0.767-3.128,0.09-4.336,0.218c-2.132,0.225-4.077-0.016-6.085,0.983
							c-0.409,0.203-0.81,0.453-1.076,0.825C905.342,660.426,905.246,660.864,905.219,661.327z"/>
					</g>
					<path style="fill:#3B455A;" d="M929.575,486.055c-2.629,24.581-6.654,48.988-6.192,73.914
						c0.57,30.792-3.156,61.893-1.409,92.459c-3.564,1.017-7.205,1.766-10.881,2.239c-4.215,0.542-10.989,1.065-13.587-3.035
						c-1.328-2.096-1.458-6.012-1.937-8.414c-1.535-7.694-2.895-15.424-4.237-23.154c-3.798-21.87-8.159-43.879-9.513-66.039
						c-1.424-23.311-3.043-46.655-4.966-69.838c-0.994-11.982-1.532-24.002-1.502-36.026c0.008-3.098,0.166-35.05,1.734-35.188
						c18.609-1.635,36.835,0.097,54.736,5.435c1.74,0.519,3.47,1.223,4.397,2.69c0.927,1.467,0.795,2.965,0.67,4.539
						c-1.191,15.008-4.149,29.544-5.661,44.575C930.702,475.443,930.15,480.679,929.575,486.055z"/>
				</g>
				<path style="fill:#474EBB;" d="M951.132,288.827c0.294,0.118,0.587,0.242,0.877,0.372c4.849,2.161,8.872,5.783,12.807,9.347
					c5.91,5.353,8.836,7.718,10.808,15.262c1.84,7.035,2.824,14.411,3.787,21.608c4.945,36.949,4.24,73.426,7.19,110.539
					c0.803,10.102,1.194,21.947-6.609,28.413c-12.575-10.982-29.077-12.508-45.031-13.425c-11.203-0.644-21.952-4.892-33.253-4.277
					c-10.801,0.588-20.024-2.625-30.956-2.532c-2.636,0.022-5.98-0.196-6.879-2.674c4.409-11.086,5.031-23.241,6.556-35.073
					c3.945-30.606,15.795-59.52,21.63-89.811c1.983-10.296,3.703-27.475,12.182-34.874c9.214-8.04,29.141-7.087,40.268-4.783
					C946.762,287.382,949,287.969,951.132,288.827z"/>
				<g>
					<g>
						<g>
							<g>
								<path style="fill:#E2B596;" d="M941.389,293.72c-0.196,0.333-0.45,0.648-0.783,0.942c-1.315,1.158-3.081,1.758-4.807,1.906
									c-2.276,0.195-4.55-0.309-6.767-0.863c-2.994-0.749-2.787-2.515-3.07-5.288c-0.155-1.515-0.219-3.036-0.246-4.558
									c-0.015-0.834,0.475-3.791-0.022-4.403c-0.337-0.415-1.808-0.365-2.43-0.736c-0.986-0.588-1.78-1.613-2.336-2.597
									c-0.898-1.587-1.34-3.383-1.772-5.154c-0.751-3.081-1.503-6.162-2.254-9.243c-0.768-3.148-1.539-6.323-1.66-9.561
									c-0.182-4.881,0.99-11.69,4.856-15.033c3.526-3.049,8.467-3.907,12.973-4.226c5.965-0.422,12.043,1.01,16.981,4.443
									c1.994,1.386,3.859,3.143,4.951,5.476c1.683,3.596,1.294,7.944,0.861,12.006c-0.399,3.749-0.799,7.498-1.198,11.247
									c-0.459,4.312-1.28,9.264-4.652,11.426c-1.791,1.148-4.055,1.287-5.617,2.8c-1.958,1.895-2.008,4.902-2.228,7.434
									C942.04,291.182,942.071,292.56,941.389,293.72z"/>
							</g>
						</g>
					</g>
				</g>
				<path style="fill:#3B455A;" d="M915.586,261.106c0.126,0.86,0.236,1.74,0.297,2.648c0.513,7.723-0.683,15.15,0.865,22.896
					c-6.958-3.394-13.194-8.752-18.053-15.511c-0.835-1.162-1.645-2.396-2.059-3.846c-0.395-1.383-0.407-2.883-0.39-4.352
					c0.108-9.391,1.245-18.79,3.373-27.89c0.844-3.611,1.864-7.223,3.609-10.37c5.261-9.488,15.825-12.66,25.333-12.759
					c5.505-0.058,11.267,0.755,15.719,4.469c4.804,4.007,6.105,10.933,5.871,16.846c-0.058,1.451-0.163,2.962-0.895,4.217
					c-1.518,2.604-5.006,3.11-8.016,3.259c-4.229,0.209-8.494,0.277-12.63,1.184c-4.136,0.907-8.203,2.74-10.99,5.927
					C913.711,252.295,914.892,256.385,915.586,261.106z"/>
				<path style="fill:#3B455A;" d="M964.777,225.813c1.297,2.592,2.313,5.369,3.106,8.273c2.801,10.256,5.431,19.961,3.919,30.832
					c-0.21,1.513-0.486,3.032-1.049,4.422c-0.758,1.87-1.995,3.41-3.249,4.868c-5.013,5.83-10.637,10.926-16.695,15.129
					c2.558-13.096,5.07-27.135,0.984-39.51c-3.174-9.612-9.81-16.431-17.077-21.67c-4.06-2.927-14.99-8.853-12.188-15.388
					c3.86-9.002,25.014-3.272,30.876,0.354C958.576,216.322,962.221,220.706,964.777,225.813z"/>
			</g>
		</g>
	</g>
	<g>
		<g>
			<g>
				<path style="fill:#E2B596;" d="M285.537,272.622c-0.291,0.059-0.592,0.123-0.845,0.258c-2.363,1.26-2.841,3.332-4.763,5.184
					c-0.857,0.826-3.838,0.129-3.363,2.569c0.176,0.901,0.917,3.049,1.31,4.965c0.572,2.795-0.391,6.683-1.726,9.629
					c-1.794,3.959-3.785,8.108-6.131,11.726c-4.929,7.6-11.252,15.517-17.546,22.05c-11.251-9.912-28.242-12.764-42.112-7.069
					c-1.449,0.595-2.913,1.312-3.908,2.522c-0.841,1.024-1.277,2.322-1.546,3.619c-2.846,13.721,10.276,15.83,20.779,17.973
					c6.555,1.337,13.293,2.279,19.978,2.635c9.361,0.499,15.513-4.729,21.026-12.014c5.842-7.72,11.623-15.645,15.708-24.466
					c1.986-4.287,3.021-8.64,4.417-13.105c1.38-4.413,3.267-3.552,5.466-7.105c1.227-1.983,2.852-3.772,3.692-5.956
					c1.506-3.917-0.833-7.565-2.563-10.955c-0.431-0.844-0.719-1.415-1.446-1.926c-1.182-0.83-2.582-0.774-3.973-0.769
					C287.167,272.391,286.34,272.46,285.537,272.622z"/>
			</g>
			<g>
				<path style="fill:#D34E4E;" d="M229.957,353.373c0.736,0.25,1.469,0.465,2.194,0.631c3.972,0.911,8.71,0.585,12.774,0.65
					c7.294,0.116,15.238,0.022,20.947-4.52c2.201-1.751,3.893-4.046,5.545-6.322c7.835-10.786,15.399-21.769,22.684-32.934
					c-4.782-5.115-10.344-9.5-16.435-12.955c-1.709-0.969-3.628-1.895-5.56-1.541c-2.871,0.526-4.469,3.539-5.651,6.208
					c-1.925,4.347-3.85,8.694-5.775,13.042c-0.625,1.411-1.373,2.946-2.797,3.539c-0.93,0.387-1.982,0.291-2.982,0.173
					c-8.13-0.959-16.156-2.632-24.023-4.888c-3.628-1.04-7.874-1.853-10.994-3.986c-3.19-2.181-5.456-5.363-7.41-8.643
					c-2.141-3.594-4.027-7.396-6.836-10.497c-2.808-3.101-6.794-5.476-10.965-5.159c-3.076,0.233-5.844,1.869-8.485,3.462
					c-5.18,3.124-10.807,6.833-12.256,12.705c-1.241,5.03,1.015,10.284,3.975,14.536c6.295,9.046,15.691,15.369,24.864,21.478
					c6.379,4.248,12.796,8.521,19.749,11.789C224.859,351.242,227.421,352.513,229.957,353.373z"/>
			</g>
		</g>
		<g>
			<g>
				<g>
					<polygon style="fill:#3B455A;" points="130.155,672.891 129.658,681.377 146.131,690.858 155.115,682.87 147.127,673.886 
						130.653,664.405 					"/>
				</g>
				<g>
					<polygon style="fill:#CCD2D9;" points="118.517,415.172 117.006,440.943 144.819,554.636 129.427,670.104 146.062,674.458 
						193.326,535.93 194.457,494.15 183.579,408.166 					"/>
				</g>
			</g>
			<g>
				<g>
					<polygon style="fill:#CCD2D9;" points="225.157,429.04 236.981,536.898 230.269,678.117 214.622,679.649 192.159,552.152 
						158.166,425.784 					"/>
				</g>
				<g>
					<polygon style="fill:#3B455A;" points="214.53,677.778 215.359,686.238 233.107,693.041 240.738,683.752 231.45,676.121 					
						"/>
				</g>
			</g>
			<g>
				<path style="fill:#D34E4E;" d="M103.623,428.837c-1.115,9.838-2.017,23.152,1.726,23.984c0.701,0.156,1.414-0.133,2.065-0.415
					c6.875-2.978,11.967-7.588,18.738-10.454c7.096-3.004,15.012-4.222,22.725-4.876c11.54-1.039,23.258-1.267,34.842-0.414
					c9.106,0.671,18.169,2.278,27.154,3.857c7.474,1.314,14.279,4.186,22,4.353c7.914,0.172,15.88-1.53,22.979-5.049
					c0.26-0.129,0.536-0.277,0.663-0.538c0.139-0.285,0.06-0.624-0.021-0.931c-1.204-4.548-1.962-9.013-4.546-12.924
					c-2.886-4.368-4.729-9.751-6.661-14.6c-4.026-10.105-7.725-20.647-10.216-31.248c-3.907-14.457-8.585-28.618-12.315-43.105
					c-2.586-10.041-4.85-20.228-8.721-29.878c-3.031-7.555-8.644-18.701-16.275-22.602c-2.583-1.32-5.531-1.687-8.411-2.033
					c-8.736-1.051-17.472-2.101-26.208-3.151c-3.185-0.383-6.5-0.753-9.531,0.297c-4.542,1.574-7.426,5.93-9.971,10.008
					c-11.414,18.284-19.461,38.385-24.857,59.379c-2.817,10.962-5.501,21.958-7.819,33.03c-2.587,12.355-4.725,24.808-6.081,37.353
					C104.73,420.273,104.152,424.163,103.623,428.837z"/>
			</g>
			<g>
				<path style="fill:#FFFFFF;" d="M171.708,328.454c-0.123,4.993-1.284,9.896-2.439,14.757
					c-7.036,29.607-14.073,59.215-21.109,88.822c23.538,1.94,47.075,3.881,70.613,5.821c0.174-11.318,0.347-22.636,0.521-33.953
					c0.111-7.256,0.221-14.537-0.655-21.747c-1.413-11.63-5.357-22.815-9.275-33.895c-7.24-20.473-14.479-40.947-21.719-61.42
					c-0.387-1.095-0.797-2.227-1.618-3.065c-0.983-1.003-2.411-1.439-3.781-1.808c-6.617-1.781-14.118-3.462-20.965-3.086
					c-2.25,5.996,3.006,17.257,4.793,23.189C168.676,310.702,171.933,319.332,171.708,328.454z"/>
			</g>
			<g>
				<g>
					<path style="fill:#E2B596;" d="M179.951,286.062c-4.856-0.656-9.711-1.313-14.567-1.969c0.091-3.906,0.495-7.804,1.207-11.646
						c-0.086,0.466-7.512-4.358-8.118-5.354c-1.742-2.867-1.562-7.399-2.097-10.67c-1.14-6.967-2.096-14.782,2.052-20.495
						c4.296-5.916,12.551-7.323,19.846-6.849c9.16,0.595,19.121,4.189,23.105,12.459c3.598,7.47-2.709,17.427-4.921,24.778
						c-1.091,3.624-2.625,7.733-6.199,8.98c-1.897,0.662-4.099,0.371-5.832,1.388C181.374,278.478,181.619,282.935,179.951,286.062z
						"/>
				</g>
				<g>
					<path style="fill:#3B455A;" d="M217.016,229.31c1.004-5.002,2.008-10.004,3.012-15.006c0.373-1.858,0.745-3.786,0.301-5.628
						c-0.738-3.064-3.586-5.195-6.54-6.291c-2.954-1.096-6.141-1.418-9.144-2.372c-3.205-1.018-6.253-2.766-9.612-2.923
						c-6.389-0.3-11.798,5.158-18.179,5.589c-8.835,0.597-16.469-4.122-22.661,5.648c-1.138,1.795-1.603,3.938-2.632,5.798
						c-1.329,2.402-3.512,4.193-5.282,6.292c-7.784,9.225-6.922,24.383,0.663,33.495c3.677,4.418,4.998,8.231,10.455,10.038
						c-2.08-5.423,3.177-25.789,10.379-27.471c1.907-0.445,7.261,2.327,9.285,2.814c4.482,1.078,8.832,2.21,12.944,4.369
						c6.103,3.205,12.818,5.695,19.636,6.833c0.872,0.146,1.851,0.268,2.566-0.251c0.674-0.488,0.885-1.381,1.049-2.197
						C214.509,241.801,215.763,235.555,217.016,229.31z"/>
				</g>
			</g>
		</g>
		<g>
			<g>
				<g>
					
						<rect x="104.057" y="342.191" transform="matrix(0.9382 0.3461 -0.3461 0.9382 162.9019 -34.1571)" style="fill:#3B455A;" width="146.082" height="193.782"/>
					<polygon style="opacity:0.26;fill:#000909;" points="88.15,500.671 90.202,501.428 209.858,549.806 270.104,376.695 
						263.885,376.228 					"/>
					
						<rect x="111.797" y="348.429" transform="matrix(0.9382 0.3461 -0.3461 0.9382 162.5756 -34.3485)" style="fill:#FFFFFF;" width="131.347" height="179.286"/>
					<polygon style="opacity:0.05;fill:#000004;" points="146.44,330.348 235.076,363.043 118.938,404.469 					"/>
					<g>
						
							<rect x="179.373" y="352.913" transform="matrix(0.9382 0.3461 -0.3461 0.9382 135.9057 -49.976)" style="opacity:0.12;fill:#000100;" width="57.045" height="5.323"/>
						<g>
							<path style="fill:#E4EAE9;" d="M230.178,343.795l-0.83-0.306l0.205-0.557c1.934-5.243-1.41-11.306-7.468-13.54l-7.98-2.944
								c-6.059-2.235-12.537,0.204-14.471,5.448l-0.205,0.557l-0.83-0.306c-6.058-2.235-12.537,0.204-14.471,5.448l-3.912,10.607
								l53.52,19.742l3.912-10.607C239.58,352.092,236.236,346.03,230.178,343.795z M221.358,340.79l-14.101-5.201
								c-1.441-0.532-2.188-2.139-1.66-3.572c0.528-1.433,2.14-2.17,3.581-1.638l14.101,5.201c1.441,0.532,2.188,2.139,1.66,3.572
								C224.411,340.584,222.799,341.322,221.358,340.79z"/>
						</g>
					</g>
				</g>
				<g style="opacity:0.47;">
					<path style="fill:#8B9498;" d="M163.964,390.957c-6.031-2.225-12.062-4.449-18.093-6.674c-0.509-0.188-1.101,0.081-1.288,0.589
						c-2.211,5.995-4.422,11.99-6.633,17.985c-0.187,0.506,0.086,1.096,0.597,1.284c6.031,2.225,12.062,4.449,18.092,6.674
						c0.277,0.102,0.524,0.079,0.73-0.015c0.015-0.005,0.028-0.012,0.043-0.018c0.008-0.004,0.016-0.008,0.024-0.012
						c0.209-0.093,0.388-0.266,0.491-0.544c2.211-5.995,4.422-11.99,6.633-17.985C164.747,391.735,164.474,391.145,163.964,390.957z
						 M156.388,408.595c-5.403-1.993-10.805-3.986-16.208-5.979c1.981-5.371,3.961-10.741,5.942-16.112
						c5.403,1.993,10.805,3.986,16.208,5.979C160.35,397.853,158.369,403.224,156.388,408.595z"/>
					<path style="fill:#8B9498;" d="M151.7,424.211c-6.031-2.225-12.062-4.449-18.093-6.674c-0.509-0.188-1.101,0.082-1.288,0.589
						c-2.211,5.995-4.422,11.99-6.633,17.985c-0.187,0.506,0.086,1.096,0.597,1.284c6.031,2.225,12.062,4.449,18.092,6.674
						c0.277,0.102,0.524,0.079,0.73-0.015c0.015-0.005,0.029-0.012,0.043-0.018c0.008-0.004,0.016-0.008,0.024-0.012
						c0.209-0.093,0.388-0.266,0.491-0.544c2.211-5.995,4.422-11.99,6.633-17.985C152.483,424.989,152.21,424.4,151.7,424.211z
						 M144.124,441.849c-5.403-1.993-10.805-3.986-16.208-5.979c1.981-5.371,3.961-10.741,5.942-16.112
						c5.403,1.993,10.805,3.986,16.208,5.979C148.086,431.108,146.105,436.478,144.124,441.849z"/>
					<path style="fill:#8B9498;" d="M139.436,457.465c-6.031-2.225-12.062-4.449-18.093-6.674c-0.509-0.188-1.101,0.082-1.288,0.589
						c-2.211,5.995-4.422,11.99-6.633,17.985c-0.187,0.506,0.086,1.096,0.597,1.284c6.031,2.225,12.062,4.449,18.092,6.674
						c0.277,0.102,0.524,0.079,0.73-0.015c0.015-0.005,0.029-0.012,0.043-0.018c0.008-0.004,0.016-0.008,0.024-0.012
						c0.209-0.093,0.389-0.266,0.491-0.544c2.211-5.995,4.422-11.99,6.633-17.985C140.219,458.243,139.946,457.654,139.436,457.465z
						 M131.86,475.103c-5.403-1.993-10.805-3.986-16.208-5.979c1.981-5.371,3.961-10.741,5.942-16.112
						c5.403,1.993,10.805,3.986,16.208,5.979C135.822,464.362,133.841,469.733,131.86,475.103z"/>
				</g>
				<polygon style="fill:#EBB044;" points="149.455,393.336 154.122,393.492 154.907,398.478 180.026,391.568 182.167,392.879 
					152.12,403.189 				"/>
				<polygon style="fill:#EBB044;" points="135.372,426.877 140.039,427.033 140.825,432.019 165.943,425.109 168.084,426.421 
					138.037,436.73 				"/>
				<polygon style="fill:#EBB044;" points="123.388,458.212 128.054,458.368 128.84,463.354 153.959,456.445 156.1,457.756 
					126.053,468.066 				"/>
				
					<rect x="144.603" y="480.535" transform="matrix(0.9382 0.3461 -0.3461 0.9382 179.0012 -31.8253)" style="opacity:0.32;fill:#8B9498;" width="68.031" height="9.585"/>
				
					<rect x="157.592" y="445.314" transform="matrix(0.9382 0.3461 -0.3461 0.9382 167.6144 -38.4973)" style="opacity:0.32;fill:#8B9498;" width="68.031" height="9.585"/>
				
					<rect x="170.582" y="410.092" transform="matrix(0.9382 0.3461 -0.3461 0.9382 156.2269 -45.1692)" style="opacity:0.32;fill:#8B9498;" width="68.031" height="9.585"/>
			</g>
		</g>
		<g>
			<path style="fill:#E2B596;" d="M117.425,375.131c-0.418,1.118-0.415,2.682,0.674,3.169c0.653,0.292,1.404,0.046,2.108-0.079
				c2.664-0.472,5.551,1.115,6.58,3.618c1.212,2.947-0.189,6.493-2.638,8.531c-2.449,2.038-5.711,2.82-8.885,3.101
				c-1.993,0.176-4.219,0.1-5.679-1.268c-0.75-0.703-1.198-1.664-1.587-2.615c-1.996-4.888-3.661-11.263,0.202-15.708
				C111.239,370.383,120.25,367.568,117.425,375.131z"/>
			<path style="fill:#D34E4E;" d="M94.597,374.137c0.401-0.501,0.86-0.967,1.385-1.392c4.236-3.432,9.717-6.73,15.356-4.982
				c-1.698,10.446-0.082,21.406,4.559,30.918c0.367,0.753,0.758,1.626,0.418,2.391c-0.641,1.437-5.271,2.461-6.663,2.523
				c-6.137,0.272-12.465-2.788-15.127-7.314c-1.562-2.655-1.905-5.613-2.202-8.5C91.864,383.323,91.655,377.813,94.597,374.137z"/>
		</g>
	</g>
	<g>
		<rect x="347.759" y="425.204" style="fill:#474EBB;" width="242.567" height="234.236"/>
		<polygon style="fill:#334196;" points="590.326,659.44 650.31,599.456 650.31,365.22 590.326,425.204 		"/>
		<polygon style="fill:#5F6ACE;" points="590.326,425.204 650.31,365.22 407.743,365.22 347.759,425.204 		"/>
		<polygon style="fill:#334196;" points="511.78,365.22 451.796,425.204 451.796,472.416 486.246,472.416 486.246,425.204 
			486.289,425.204 546.272,365.22 		"/>
		<g>
			<polygon style="fill:#FFFFFF;" points="519.433,486.658 486.267,529.468 506.395,529.468 506.395,598.048 532.471,598.048 
				532.471,529.468 552.599,529.468 			"/>
			<polygon style="fill:#FFFFFF;" points="385.486,529.468 405.614,529.468 405.614,598.048 431.69,598.048 431.69,529.468 
				451.818,529.468 418.652,486.658 			"/>
		</g>
		<g>
			<rect x="379.865" y="611.296" style="fill:#FFFFFF;" width="178.355" height="3.526"/>
			<rect x="379.865" y="621.803" style="fill:#FFFFFF;" width="178.355" height="3.526"/>
			<rect x="379.865" y="632.311" style="fill:#FFFFFF;" width="178.355" height="3.526"/>
		</g>
	</g>
	<g>
		<g>
			<g>
				<g>
					<circle style="fill:#8EC3CB;" cx="744.14" cy="433.301" r="95.102"/>
				</g>
				<g style="opacity:0.16;">
					<path d="M793.896,352.131c9.471,14.786,14.962,32.365,14.962,51.226c0,52.523-42.579,95.102-95.102,95.102
						c-18.242,0-35.281-5.14-49.756-14.044c16.902,26.387,46.478,43.876,80.14,43.876c52.523,0,95.102-42.579,95.102-95.102
						C839.242,398.907,821.1,368.866,793.896,352.131z"/>
				</g>
				<g>
					<path style="fill:#95B84C;" d="M766.82,340.928c1.696,0.415,3.374,0.873,5.033,1.378L766.82,340.928z"/>
					<path style="fill:#FFFFFF;" d="M777.56,344.244c-2.522-0.332-5.159-0.344-8.076,0.119c1.183-0.83,1.941-1.509,2.369-2.057
						c-1.659-0.505-3.337-0.963-5.033-1.378c-0.123,0.038-0.245,0.078-0.364,0.12c-2.298,0.805-2.635,0.889-2.258,2.341
						c-0.893-0.36-1.748-0.775-2.533-1.258h-11.01c6.974,7.714-6.545,7.205-11.484,7.22c-0.903,0.003-1.114-1.806-0.599-2.281
						c0.246-0.227,6.199,0,4.627,0c4.645,0,4.061-0.316,4.061-4.939c-4.468,3.295-4.313,0-9.381,0
						c-4.754,0-7.085,0.262-11.255,2.135c1.358,1.157,2.715,2.314,4.073,3.47c-1.71-0.388-7.286-2.575-8.81-1.926
						c-0.709,0.302-0.892,2.193-1.769,2.193c-3.542,0-13.179,1.937-13.179-2.124c0-0.018-0.064-0.035-0.175-0.05
						c-8.744,3.741-16.81,8.756-23.972,14.809c4.582-0.755,9.396-0.489,10.344-0.489c0.423,0,3.334,7.517,3.362,8.095
						c0.158,3.28-2.079,4.576-3.737,7.693c-3.018,5.676-4.352,13.111-4.014,19.485c0.012,0.23,3.801,3.641,3.801,4.992
						c0,5.659,0.593,5.75,4.48,9.919v-6.941c2.318,6.076,5.12,8.415,7.213,14.361c2.375,6.747,11.762,1.565,14.952,6.009
						c1.405,1.957,4.025,1.059,5.277,2.97l3.396,5.184c2.047,3.124,4.543,2.042,8.201,2.042c3.514,0-3.198,12.14-3.198,13.163
						c0,4.209,5.746,13.791,5.71,15.477c-0.107,4.998,6.134,5.698,9.522,8.776c2.713,2.482,0.779,9.514,0.694,12.632
						c-0.197,7.266,4.447,12.487,5.64,19.348c0.445,2.558-0.538,5.317,0.031,7.768c0.585,2.518,2.746,4.086,2.714,6.869
						c-0.049,4.299,12.039,5.107,14.381,5.107c-0.011-0.007-8.825-4.577-8.825-4.029c0-4.08,2.099-3.797,2.101-6.285
						c0.001-2.956-2.683-5.391-1.007-9.574c1.812-4.523,1.607-4.385,6.509-4.385c-0.099-2.079-0.415-4.126-0.95-6.14
						c4.38-6.826,14.569-13.394,17.266-15.236c3.664-2.504,1.612-9.261,3.197-12.861c1.393-3.164,5.615-6.087,5.819-9.98
						c0.155-2.97-2.47-3.696-4.64-3.622c-2.165,0.073-2.38-3.547-4.017-3.547c-4.551,0-9.274-0.775-13.216-3.695
						c-0.653-0.483-1.384-6.291-2.499-7.73c-1.598-2.061-6.705,1.559-8.69-1.245c-0.75-1.06-2.524-5.216-3.736-5.216
						c-1.649,0-10.735-1.767-12.645-0.039c0.294-0.266-3.1-1.296-3.583-1.296c0.207,0-11.677,6.156-11.677,2.96
						c0-4.144,2.02-9.5-2.894-9.5c-7.9,0-1.179-2.054-1.179-5.673c0-4.643-7.651,1.274-11.682,1.278
						c0.107,0-4.539-7.618-2.312-7.618c1.599,0,1.848-3.257,3.034-4.643c3.12-3.648,8.449-4.031,12.2-3.344
						c1.519,0.278,7.025,6.665,7.04,7.982c-0.004-0.314,2.244-1.751,2.547-2.216c1.085-1.665,0.472-2.383,0.743-4.049
						c0.91-5.595,1.141-6.701,5.604-10.102c3.279-2.499,7.862-5.368,10.436-8.601c1.963-2.467,3.801-3.749,6.654-5.151
						c-0.292,0.143,2.71,1.829,3.339,1.829c2.58,0,3.203-2.18,4.616-4.138h-4.48c5.058-3.867-4.096-5.873,6.041-5.873
						c4.979,0,5.44,0.068,8.485-3.47c-4.843,0-3.666-0.032-3.666-4.965c0-0.821-1.369-3.833-2.676-2.549
						c-3.573,3.513-3.445-0.643-5.008-2.979c-2.022-3.02-4.204,0.089-5.048,1.92c-1.047,2.27-9.642,5.821-9.623,8.787
						c0.011,1.736-2.828,1.667-2.775-0.27c0.079-2.908-9.967-5.685-10.133-6.82c-0.219-1.498,4.972-5.537,9.487-5.537
						c2.074,0,1.059-2.402,1.698-2.402c4.302,0,9.373-1.337,11.725-4.805c-0.587,0-6.11,0.04-6.11-0.029
						c0-1.971-0.843-3.175,1.418-3.175c5.305,0,6.877,4.138,12.702,4.138c-2.082,1.513-4.164,3.025-6.245,4.538
						c2.923,0,7.301,4.855,9.549,3.349c4.149-2.781,1.353-5.324,4.803-5.897c0.37,0.388,0.867,0.761,1.692,1.053
						c1.079,0.381,4.962,1.075,5.622,2.061c0.795,1.188,2.816,8.221,1.331,8.833c-2.411,0.993-9.47,8.642-4.07,10.551
						c4.173,1.476,5.244-0.385,8.957-2.708c3.452-2.16,4.392-1.366,8.278,0.008c0.035,0.012,4.037-0.133,5.535,0.397
						c3.279,1.159,3.039-0.911,3.383-0.789c1.367,0.483,4.004,0.831,5.72,0.081C805.463,358.978,792.392,349.812,777.56,344.244z"/>
					<path style="fill:#FFFFFF;" d="M738.088,410.453c-0.642,0.644-1.285,1.288-1.927,1.932c5.992,0,9.639,1.932,14.954,1.932
						C747.548,408.729,744.752,410.453,738.088,410.453z"/>
					<path style="fill:#FFFFFF;" d="M757.86,415.292c-4.809-0.145-5.032,0.585-7.978,3.876c2.534,0,5.069,0.007,7.603,0.01
						C759.682,419.18,759.377,415.338,757.86,415.292z"/>
					<path style="fill:#FFFFFF;" d="M764.681,420.304C764.681,413.562,757.823,420.304,764.681,420.304L764.681,420.304z"/>
				</g>
				<g>
					<path style="fill:#A8D8DD;" d="M661.963,443.334c0-48.765,39.532-88.296,88.297-88.296c28.504,0,53.848,13.51,69.992,34.472
						c-15.247-26.469-43.824-44.289-76.564-44.289c-48.765,0-88.297,39.532-88.297,88.296c0,20.261,6.829,38.925,18.305,53.825
						C666.233,474.387,661.963,459.359,661.963,443.334z"/>
				</g>
				<g>
					<path style="fill:#A2C14B;" d="M769.573,349.084c0.408,0.125,0.814,0.254,1.219,0.384c0.121-0.088,0.242-0.176,0.364-0.264
						C770.586,349.204,770.068,349.155,769.573,349.084z"/>
					<path style="fill:#F4F4F4;" d="M764.91,353.742c2.923,0,7.301,4.855,9.549,3.349c3.092-2.073,2.329-4.012,3.166-5.103
						c-2.233-0.931-4.512-1.772-6.833-2.52C768.831,350.893,766.87,352.318,764.91,353.742z"/>
					<path style="fill:#A2C14B;" d="M769.573,349.084c-0.924-0.283-1.854-0.551-2.791-0.804
						C767.607,348.645,768.519,348.932,769.573,349.084z"/>
					<path style="fill:#F4F4F4;" d="M806.346,371.311c-5.563-5.603-11.876-10.457-18.771-14.414
						c0.738,2.492,1.335,5.832,0.332,6.245c-0.098,0.04-0.206,0.095-0.318,0.157c4.596,2.148,8.976,4.681,13.1,7.556
						c0.127,0.046,0.249,0.09,0.383,0.138C801.105,371.003,804.693,370.875,806.346,371.311z"/>
					<path style="fill:#F4F4F4;" d="M750.814,355.046c0.551-0.691,0.139-1.971,0.606-1.971c4.302,0,9.373-1.337,11.725-4.805
						c-0.587,0-6.11,0.04-6.11-0.029c0-0.821-0.144-1.506-0.151-2.029c-1.416-0.212-2.839-0.4-4.276-0.544
						c0.237,4.002-9.428,3.67-13.437,3.681c-0.903,0.003-1.114-1.806-0.599-2.281c0.246-0.227,6.199,0,4.627,0
						c3.209,0,3.922-0.153,4.056-1.77c-1.184-0.047-2.372-0.078-3.568-0.078c-4.952,0-9.806,0.414-14.536,1.198
						c0.515,0.439,1.031,0.878,1.546,1.317c-0.67-0.152-1.936-0.58-3.318-1.006c-12.367,2.309-23.824,7.196-33.797,14.082
						c0.941,1.845,2.893,6.958,2.915,7.432c0.158,3.28-2.079,4.576-3.737,7.693c-0.112,0.211-0.206,0.441-0.314,0.657
						c15.49-13.43,35.702-21.557,57.812-21.557C750.445,355.038,750.629,355.045,750.814,355.046z"/>
				</g>
				<path style="fill:#F2F2F2;" d="M754.468,511.124c0.585,2.518,2.746,4.086,2.714,6.869c-0.049,4.299,12.039,5.107,14.381,5.107
					c-0.011-0.007-8.825-4.577-8.825-4.029c0-4.08,2.099-3.797,2.101-6.285c0.001-2.956-2.683-5.391-1.007-9.574
					c1.812-4.523,1.607-4.385,6.509-4.385c-0.099-2.079-0.415-4.126-0.95-6.14c4.38-6.826,14.569-13.394,17.266-15.236
					c3.664-2.504,1.612-9.261,3.197-12.861c1.393-3.164,5.615-6.087,5.819-9.98c0.045-0.872-0.153-1.546-0.505-2.067
					c-10.451,17.261-26.238,30.927-45.072,38.721c1.417,4.001,3.581,7.713,4.342,12.092
					C754.881,505.913,753.898,508.672,754.468,511.124z"/>
			</g>
		</g>
	</g>
	<g>
		<g>
			<g>
				<g>
					<g>
						<path style="fill:#474EBB;" d="M656.753,174.986l-37.997-5.712l26.598,17.449c6.796,4.458,15.603,7.956,25.451,10.107
							l28.543,4.349L656.753,174.986z"/>
					</g>
					<g>
						<path style="fill:#474EBB;" d="M460.828,119.21c-3.177-3.194-6.11-6.6-9.128-10.339c-3.656-4.529-1.357-11.39,4.29-12.802
							l13.24-3.312c16.708-4.18,33.431-3.197,48.132,2.503l111.874,47.556c12.284,5.222,23.382,12.895,32.632,22.562l5.28,5.518
							c1.945,2.032,2.59,5,1.672,7.686c-1.049,3.066-3.912,5.131-7.119,5.134l-22.104-0.768
							c-13.569-3.905-30.202-7.018-43.771-10.923c-23.168-6.667-46.335-13.334-69.503-20.001
							c-6.701-1.928-13.406-3.842-20.102-5.785c-13.146-3.815-25.271-10.766-36.169-18.976
							C466.633,124.687,463.635,122.031,460.828,119.21z"/>
					</g>
					<g>
						<g>
							<path style="fill:#353A85;" d="M533.25,158.463l13.591,3.509c2.011,0.519,3.26,2.518,2.846,4.551l-0.84,4.12
								c-0.415,2.034-2.349,3.393-4.404,3.095l-14.159-2.049c-1.43-0.207-2.66-1.173-3.114-2.542
								c-1.299-3.916,0.475-7.3,2.016-9.311C530.133,158.602,531.744,158.074,533.25,158.463z"/>
						</g>
						<g style="opacity:0.05;">
							<path style="fill:#000100;" d="M538.862,160.183l5.025,13.476l-14.669-2.218c0,0,9.081,0.933,8.433-11.568L538.862,160.183z"
								/>
						</g>
						<g>
							<path style="fill:#F7F7F7;" d="M532.367,162.654c-0.912,2.803-1.359,5.876-1.156,8.791c0.008,0.114,0.029,0.219,0.04,0.331
								l-1.341-0.182c-1.324-0.18-2.448-1.118-2.845-2.473c-1.134-3.873,0.576-7.274,2.044-9.304
								c0.902-1.247,2.408-1.802,3.799-1.442l1.057,0.273C533.317,159.992,532.784,161.371,532.367,162.654z"/>
						</g>
					</g>
					<g>
						<g>
							<path style="fill:#353A85;" d="M549.56,182.741l13.84,2.361c2.047,0.349,3.457,2.235,3.211,4.295l-0.5,4.173
								c-0.247,2.06-2.064,3.575-4.138,3.451l-14.287-0.859c-1.443-0.087-2.748-0.946-3.313-2.271
								c-1.616-3.792-0.125-7.31,1.247-9.442C546.464,183.139,548.027,182.479,549.56,182.741z"/>
						</g>
						<g>
							<path style="fill:#F7F7F7;" d="M548.301,186.867c-0.679,2.867-0.873,5.966-0.432,8.853c0.017,0.113,0.046,0.216,0.067,0.327
								l-1.351-0.07c-1.335-0.068-2.533-0.91-3.039-2.225c-1.448-3.763-0.022-7.293,1.276-9.437c0.797-1.317,2.253-1.995,3.67-1.753
								l1.076,0.184C549.03,184.136,548.612,185.554,548.301,186.867z"/>
						</g>
						<g style="opacity:0.05;">
							<path style="fill:#000100;" d="M555.367,183.859l6.115,13.002l-14.809-0.984c0,0,9.132,0.171,7.461-12.225L555.367,183.859z"
								/>
						</g>
					</g>
					<g>
						<path style="fill:#474EBB;" d="M515.669,133.686l60.674,86.757c6.589,9.422,17.539,14.729,28.988,14.05l4.315-0.256
							l-30.418-86.86l-63.979-16.19L515.669,133.686z"/>
					</g>
					<g>
						<path style="fill:#FFFFFF;" d="M470.543,92.439c0,0,2.875,5.535,14.851,8.278l-3.54,7.217c0,0-14.797-4.063-20.401-13.233
							L470.543,92.439z"/>
					</g>
					<g>
						<polygon style="fill:#474EBB;" points="626.747,160.207 627.462,158.981 684.758,127.424 708.866,137.588 669.205,184.423 
													"/>
					</g>
				</g>
				<g style="opacity:0.1;">
					<g>
						<path style="fill:#EBB044;" d="M529.155,133.624l3.303,1.339c0.482,0.195,1.038-0.044,1.235-0.532l2.896-7.171
							c0.197-0.488-0.036-1.047-0.518-1.242l-3.303-1.339c-0.482-0.195-1.038,0.044-1.235,0.532l-2.896,7.171
							C528.439,132.869,528.673,133.428,529.155,133.624z"/>
					</g>
					<g>
						<path style="fill:#EBB044;" d="M520.404,130.077l3.303,1.339c0.482,0.195,1.038-0.044,1.235-0.532l2.896-7.17
							c0.197-0.488-0.036-1.047-0.518-1.242l-3.303-1.339c-0.482-0.195-1.038,0.044-1.235,0.532l-2.896,7.17
							C519.689,129.322,519.922,129.881,520.404,130.077z"/>
					</g>
					<g>
						<path style="fill:#EBB044;" d="M511.115,126.311l2.367,0.959c0.74,0.3,1.592-0.067,1.894-0.816l2.513-6.223
							c0.302-0.748-0.055-1.606-0.795-1.906l-2.367-0.959c-0.739-0.3-1.592,0.067-1.894,0.816l-2.513,6.223
							C510.018,125.154,510.375,126.011,511.115,126.311z"/>
					</g>
				</g>
				<g style="opacity:0.04;">
					<path style="fill:#000100;" d="M604.395,171.391c-15.871-4.817-31.751-9.637-47.35-15.273
						c-26.705-9.649-56.417-17.498-81-31.734c-3.06-1.772-22.841-14.228-25.283-17.526c-0.048-0.064-0.144-0.016-0.129,0.062
						c0.46,2.327,8.669,10.504,10.195,12.29c4.664,5.457,11.445,9.287,15.922,12.574c4.068,2.986,11.113,7.145,15.769,9.078
						c26.809,11.13,56.275,16.705,84.121,24.944c11.283,3.339,22.366,7.357,33.76,10.296c4.211,1.086,8.458,2.022,12.72,2.886
						c2.579,0.523,7.714,2.568,10.017,1.17C623.774,176.74,613.936,174.287,604.395,171.391z"/>
				</g>
			</g>
		</g>
	</g>
	<g>
		<g>
			<path style="fill:#EFC9AF;" d="M399.834,454.49c-0.031-0.383-0.066-0.779-0.173-1.123c-1.004-3.206-2.962-4.072-4.578-6.778
				c-0.721-1.207,0.219-4.976-2.179-4.655c-0.885,0.118-3.025,0.82-4.911,1.097c-2.749,0.404-6.417-1.308-9.141-3.387
				c-3.661-2.794-7.488-5.865-10.771-9.332c-6.896-7.283-13.972-16.407-19.715-25.325c10.578-13.352,14.856-34.97,10.602-53.581
				c-0.445-1.945-1.005-3.923-2.085-5.354c-0.913-1.21-2.127-1.93-3.355-2.434c-12.991-5.326-16.204,11.381-19.215,24.698
				c-1.879,8.311-3.392,16.908-4.335,25.505c-1.321,12.039,3.174,20.618,9.713,28.619c6.929,8.478,14.062,16.901,22.212,23.24
				c3.961,3.081,8.07,4.942,12.256,7.283c4.137,2.313,3.137,4.649,6.37,7.918c1.804,1.824,3.386,4.139,5.419,5.487
				c3.646,2.417,7.379-0.169,10.806-1.998c0.853-0.455,1.431-0.76,1.989-1.638c0.907-1.428,0.979-3.244,1.099-5.043
				C399.912,456.625,399.919,455.547,399.834,454.49z"/>
		</g>
		<g>
			<path style="fill:#7FC5A3;" d="M326.47,372.73c-0.953,6.588-1.676,13.106-2.19,19.42c-0.766,9.414-1.388,19.692,2.485,27.616
				c1.493,3.054,3.557,5.517,5.606,7.927c9.711,11.422,19.635,22.517,29.761,33.273c5.367-5.566,10.099-12.229,13.981-19.686
				c1.089-2.092,2.155-4.461,1.986-7.002c-0.25-3.775-3.016-6.201-5.487-8.049c-4.024-3.01-8.048-6.02-12.073-9.03
				c-1.306-0.977-2.721-2.128-3.166-4.04c-0.29-1.248-0.103-2.596,0.1-3.875c3.85-24.181,10.566-43.279,18.836-65.173
				c3.644-9.652,7.365-19.69,7.664-30.497c0.638-23.076-20.025-35.681-31.901-17.852C338.53,316.091,330.475,345.035,326.47,372.73z
				"/>
		</g>
	</g>
	<g>
		<g>
			<path style="fill:#AA6755;" d="M749.422,395.029c0.039-0.329,0.081-0.668,0.208-0.962c1.179-2.74,3.434-3.462,5.312-5.767
				c0.838-1.028-0.213-4.272,2.54-3.971c1.016,0.111,3.469,0.735,5.632,0.993c3.155,0.376,7.382-1.055,10.527-2.809
				c4.228-2.359,8.648-4.953,12.446-7.893c7.979-6.176,16.179-13.929,22.846-21.521c-12.045-11.568-16.788-30.161-11.754-46.085
				c0.526-1.664,1.185-3.355,2.437-4.572c1.058-1.029,2.458-1.633,3.873-2.053c14.965-4.432,18.524,9.937,21.876,21.395
				c2.092,7.151,3.763,14.543,4.778,21.929c1.422,10.343-3.809,17.657-11.383,24.452c-8.026,7.201-16.286,14.352-25.698,19.705
				c-4.574,2.602-9.309,4.155-14.136,6.119c-4.77,1.941-3.64,3.956-7.379,6.726c-2.087,1.546-3.922,3.516-6.268,4.651
				c-4.207,2.035-8.474-0.223-12.397-1.828c-0.977-0.4-1.638-0.667-2.271-1.426c-1.031-1.235-1.099-2.794-1.222-4.338
				C749.316,396.86,749.315,395.935,749.422,395.029z"/>
		</g>
		<g>
			<path style="fill:#EBB044;" d="M822.336,339.485c-2.084,0.564-4.222,1.374-6.754,2.571c-1.478,0.698-18.222,8.13-18.294,7.845
				c-1.182-4.559-5.562-8.923-7.716-13.257c-2.566-5.161-4.496-10.64-5.713-16.275c-2.007-9.292-6.369-18.333-9.739-27.233
				c-4.252-11.23,3.546-19.196,14.964-15.486c9.748,3.167,17.483,11.672,24.565,18.679c5.723,5.662,11.384,11.541,15.314,18.567
				c3.93,7.026,6.004,15.411,4.077,23.227C828.734,338.326,825.601,338.602,822.336,339.485z"/>
		</g>
	</g>
	<g>
		<g>
			<path style="fill:#D34E4E;" d="M872.381,365.147l107.085-0.172c7.129-0.011,12.917,5.95,12.928,13.316l0.114,75.805
				c0.011,7.366-5.759,13.346-12.889,13.357l-107.085,0.171c-7.129,0.012-12.918-5.95-12.929-13.316l-0.114-75.805
				C859.482,371.139,865.252,365.159,872.381,365.147z"/>
			<g>
				<path style="fill:#FFFFFF;" d="M952.659,419.789l25.52-0.041c1.922-0.003,3.479-1.616,3.476-3.602l-0.039-26.367
					c-0.003-1.986-1.564-3.594-3.486-3.591l-25.52,0.041c-1.922,0.003-3.478,1.616-3.475,3.602l0.039,26.367
					C949.176,418.185,950.737,419.792,952.659,419.789z"/>
				<path style="fill:#FFFFFF;" d="M952.929,459.67l25.52-0.041c1.922-0.003,3.478-1.616,3.476-3.602l-0.04-26.366
					c-0.003-1.986-1.564-3.594-3.487-3.591l-25.52,0.041c-1.922,0.003-3.479,1.616-3.476,3.602l0.04,26.367
					C949.446,458.065,951.007,459.673,952.929,459.67z"/>
				<path style="fill:#FFFFFF;" d="M912.815,419.853l25.52-0.041c1.922-0.003,3.479-1.616,3.476-3.602l-0.04-26.367
					c-0.003-1.986-1.564-3.594-3.486-3.591l-25.52,0.041c-1.922,0.003-3.478,1.616-3.476,3.602l0.04,26.367
					C909.332,418.248,910.893,419.856,912.815,419.853z"/>
				<path style="fill:#FFFFFF;" d="M913.085,459.734l25.52-0.041c1.922-0.003,3.478-1.616,3.475-3.602l-0.04-26.366
					c-0.003-1.986-1.564-3.594-3.486-3.591l-25.52,0.041c-1.922,0.003-3.479,1.616-3.476,3.602l0.04,26.367
					C909.602,458.129,911.163,459.737,913.085,459.734z"/>
				<path style="fill:#FFFFFF;" d="M872.971,419.917l25.52-0.041c1.922-0.003,3.478-1.616,3.476-3.602l-0.04-26.367
					c-0.003-1.986-1.564-3.594-3.486-3.591l-25.52,0.041c-1.922,0.003-3.479,1.616-3.476,3.602l0.04,26.367
					C869.488,418.312,871.049,419.92,872.971,419.917z"/>
				<path style="fill:#FFFFFF;" d="M873.242,459.797l25.52-0.041c1.922-0.003,3.478-1.616,3.475-3.602l-0.04-26.367
					c-0.003-1.986-1.564-3.594-3.486-3.591l-25.52,0.041c-1.922,0.003-3.478,1.616-3.476,3.602l0.04,26.366
					C869.758,458.193,871.319,459.801,873.242,459.797z"/>
			</g>
			<g>
				<path style="fill:#EBB044;" d="M965.245,354.085l3.723-0.006c2.035-0.003,3.687,1.698,3.69,3.8l0.021,14.239
					c0.003,2.102-1.644,3.809-3.678,3.812l-3.723,0.006c-2.035,0.003-3.686-1.698-3.69-3.8l-0.021-14.239
					C961.563,355.795,963.21,354.088,965.245,354.085z"/>
				<path style="fill:#EBB044;" d="M881.871,354.218l3.723-0.006c2.034-0.003,3.687,1.698,3.69,3.8l0.021,14.239
					c0.003,2.102-1.644,3.809-3.678,3.812l-3.723,0.006c-2.035,0.003-3.686-1.698-3.69-3.8l-0.021-14.239
					C878.189,355.928,879.836,354.221,881.871,354.218z"/>
			</g>
		</g>
	</g>
	<g>
		<g>
			<g>
				<path style="fill:#E2B596;" d="M999.777,421.224c1.165-2.727,2.053-5.553,2.93-8.382c-4.312-0.994-8.633-1.94-12.971-2.792
					c-0.087,0.802-0.171,1.598-0.244,2.38c-0.374,3.993-0.119,8.066-0.905,12.015c-0.404,2.027-1.045,4.204-2.273,5.9
					c-1.083,1.497-2.085,2.122-2.417,4.164c-0.308,1.888,2.151,2.524,1.179,4.494c-1.058,2.144-4.219,0.592-5.859,2.131
					c-0.468,0.44-0.738,1.047-0.97,1.646c-0.597,1.543-1.01,3.334-0.25,4.804c2.31,4.472,8.318,2.276,11.056-0.108
					c1.861-1.62,4.329-2.888,5.695-5.001c2.808-4.342,0.725-10.063,2.277-14.772C997.761,425.474,998.855,423.383,999.777,421.224z"
					/>
			</g>
		</g>
		<path style="fill:#474EBB;" d="M963.482,347.448c5.027,7.905,14.878,13.501,21.351,20.675c12.634,14.002,4.535,39.7,2.9,56.804
			l11.005,4.346L1014,377.056l-23.169-50.067c-6.724-14.53-18.769-25.926-33.649-31.835l-10.466-4.157
			c4.109,1.66,8.933,31.047,10.225,35.538c1.714,5.956,2.651,13.565,5.493,19.09C962.753,346.246,963.104,346.853,963.482,347.448z"
			/>
	</g>
	<g>
		<path style="fill:#E2B596;" d="M875.529,376.373c-0.406-5.33-5.673-9.621-11.016-9.478c-1.698,0.046-3.425,0.49-4.781,1.513
			c-1.356,1.023-2.289,2.678-2.198,4.374l1.37-1.25c-0.018,0.041-0.039,0.082-0.057,0.122c-1.179,2.747-2.062,5.622-2.627,8.558
			c-0.268,1.393-0.462,2.857-0.04,4.211c0.451,1.45,1.548,2.593,2.609,3.679c0.839,0.858,1.735,1.751,2.893,2.068
			c1.158,0.316,2.635-0.201,2.928-1.365c0.243-0.963-0.36-2.081,0.155-2.93c0.604-0.996,2.085-0.718,3.222-0.973
			c1.496-0.335,2.505-1.711,3.832-2.48c0.542-0.315,1.141-0.528,1.664-0.875C875.103,380.471,875.677,378.313,875.529,376.373z"/>
		<path style="fill:#474EBB;" d="M860.732,373.102c1.32-2.363,4.004-4.158,6.663-3.655c0.838,0.159,1.685,0.533,2.513,0.327
			c1.193-0.296,1.802-1.741,1.578-2.95c-0.224-1.209-1.052-2.208-1.899-3.1c-1.829-1.927-3.987-3.692-6.573-4.303
			c-3.209-0.758-6.677,0.43-9.167,2.592c-2.49,2.162-4.095,5.191-5.103,8.331c-1.413,4.401-2.915,17.188,4.315,17.465
			C861.039,388.115,858.285,377.483,860.732,373.102z"/>
	</g>
</g>
</svg>
