<?xml version="1.0" encoding="utf-8"?>
<!-- Generator: Adobe Illustrator 27.5.0, SVG Export Plug-In . SVG Version: 6.00 Build 0)  -->
<svg version="1.1" xmlns="http://www.w3.org/2000/svg" xmlns:xlink="http://www.w3.org/1999/xlink" x="0px" y="0px"
	 viewBox="0 0 500 500" style="enable-background:new 0 0 500 500;" xml:space="preserve">
<g id="Background_Simple">
	<g>
		<path style="fill:#92E3A9;" d="M312.545,59.2c0,0-78.574-24.379-149.972,23.108C91.176,129.794,60.401,219.163,33.566,290.848
			c-26.834,71.685-2.407,142.317,57.417,172.375c59.824,30.057,94.87-19.691,174.938-25.572
			c80.068-5.881,102.594,4.894,165.47-44.388c62.877-49.281,66.13-159.258,7.097-237.921C379.454,76.679,312.545,59.2,312.545,59.2z
			"/>
		<path style="opacity:0.7;fill:#FFFFFF;" d="M312.545,59.2c0,0-78.574-24.379-149.972,23.108
			C91.176,129.794,60.401,219.163,33.566,290.848c-26.834,71.685-2.407,142.317,57.417,172.375
			c59.824,30.057,94.87-19.691,174.938-25.572c80.068-5.881,102.594,4.894,165.47-44.388c62.877-49.281,66.13-159.258,7.097-237.921
			C379.454,76.679,312.545,59.2,312.545,59.2z"/>
	</g>
</g>
<g id="Floor">
	<line style="fill:none;stroke:#263238;stroke-miterlimit:10;" x1="498.255" y1="469.584" x2="9.469" y2="469.584"/>
</g>
<g id="Arrow">
	<polygon style="fill:#263238;stroke:#263238;stroke-linecap:round;stroke-linejoin:round;stroke-miterlimit:10;" points="
		470.347,19.071 400.179,50.169 423.211,62.47 354.276,169.553 280.539,116.962 198.671,218.349 152.043,176.059 11.06,236.713 
		11.06,335.131 145.819,250.308 187.212,304.175 288.057,190.318 364.577,240.036 455.773,74.876 479.916,88.442 	"/>
</g>
<g id="Fish">
	<g>
		<path style="fill:#92E3A9;stroke:#263238;stroke-linecap:round;stroke-linejoin:round;stroke-miterlimit:10;" d="M246.403,384.046
			l121.139-173.475c2.968-4.251,8.821-5.291,13.072-2.322l63.288,44.194c4.251,2.968,5.291,8.821,2.322,13.072L325.085,438.991
			c-2.969,4.251-8.821,5.291-13.072,2.322l-63.288-44.194C244.475,394.15,243.435,388.297,246.403,384.046z"/>
		<g>
			<path style="fill:#D6D6D6;stroke:#263238;stroke-linecap:round;stroke-linejoin:round;stroke-miterlimit:10;" d="
				M389.471,242.504c0,0-2.438-1.027-5.177-0.009c-2.739,1.017-6.761,4.519-12.296,9.217c-5.535,4.699-24.649,21.099-35.906,39.155
				c-11.257,18.056-17.327,30.944-18.337,34.972c-1.01,4.028-6.554,13.903-8.26,16.993c-1.707,3.09-4.2,6.983-4.2,6.983
				s-8.151,7.154-7.968,8.183c0.183,1.029,1.741,0.089,2.195,0.406c0.454,0.317,0.077,1.181,1.395,1.875
				c1.318,0.695,4.061,4.188,4.061,4.188l-7.506,15.267c0,0-6.398,4.321-8.56,7.094c-2.161,2.773-13.608,13.033-14.363,14.76
				c-0.755,1.726-1.25,3.189-0.884,2.99c0.366-0.199,1.966-1.352,1.966-1.352s-2.094,2.511-1.377,2.784
				c0.717,0.274,0.87,0.38,1.349-0.307c0.479-0.687,1.286-2.167,2.101-2.846c0.815-0.68,1.241-1.29,1.241-1.29
				s-2.418,5.576-2.052,5.377c0.914-0.497,1.378-1.648,1.515-2.007c0.137-0.359,0.647-1.251,0.647-1.251l-0.37,2.806
				c0.671,0.014,1.525-0.07,1.525-0.07l0.732-0.397c0,0,0.67-1.121,0.936-1.503l-0.203,2.242l3.119,0.248l1.708-0.17l2.31-0.544
				l3.34,0.743c0,0,2.75,4.19,4.657,5.522s3.091,2.726,3.801,3.335c0.71,0.609,2.885,2.696,2.885,2.696s0.405,0.396,1.374,0.959
				s1.693,0.501,2.006,0.379c0.313-0.122,0.328,0.343,0.822-1.015c0.494-1.358,2.099-5.118,2.099-5.118s0.674-3.729,0.503-6.573
				s1.089-14.564,1.088-15.7c-0.001-1.136,0.234-2.448,0.37-2.806s7.792-6.932,8.028-7.107c0.236-0.176,2.242,0.203,3.469-0.416
				c1.227-0.619,1.958-1.016,2.781-2.031c0.822-1.015,1.249-1.625,1.332-1.908c0.083-0.282,0.981-2.38,0.981-2.38l33.153-31.221
				c0,0-3.137,4.166-1.849,3.136c1.287-1.031,3.221-3.313,4.013-4.122s2.498-2.115,2.498-2.115l-1.178,3.15
				c0,0-2.625,4.41-1.377,2.784c1.248-1.625,2.87-3.785,3.692-4.8c0.822-1.015,1.339-2.243,1.606-2.625
				c0.266-0.382,2.344-3.357,2.344-3.357l1.287-1.031c0,0-1.286,2.167-1.727,3.448c-0.441,1.281-0.951,2.174-1.498,3.608
				c-0.547,1.434-0.821,2.151-0.821,2.151s1.104-0.931,2.193-2.328c1.089-1.396,2.162-3.258,2.162-3.258l1.537-3.013
				c0,0,6.46-11.04,6.651-11.475c0.19-0.435,11.871-20.088,15.924-29.631c4.053-9.543,10.365-24.719,10.978-28.036
				s-1.23-8.518-1.23-8.518L389.471,242.504z"/>
			<path style="fill:#FFFFFF;stroke:#263238;stroke-linecap:round;stroke-linejoin:round;stroke-miterlimit:10;" d="
				M384.294,242.495c-2.739,1.017-6.761,4.519-12.296,9.217c-5.535,4.699-24.649,21.099-35.906,39.155
				c-11.257,18.056-17.327,30.944-18.337,34.972c-0.945,3.771-5.865,12.667-7.889,16.322c1.913-2.012,5.211-5.57,9.096-10.145
				c6.176-7.275,8.949-10.349,8.949-10.349l-6.084,4.677c0,0-0.914,1.084,1.174-3.251c2.088-4.336,6.566-15.458,14.652-27.037
				c8.086-11.579,16.389-16.742,22.912-23.617c6.524-6.875,7.12-9.747,7.644-10.947c0.525-1.2,2.005-3.768,3.991-5.042
				c1.986-1.275,6.86-7.581,8.508-9.717c1.649-2.137,1.372,4.09,1.372,4.09c1.963-3.484,7.389-8.317,7.389-8.317
				S387.033,241.477,384.294,242.495z"/>
			<path style="fill:#D6D6D6;stroke:#263238;stroke-linecap:round;stroke-linejoin:round;stroke-miterlimit:10;" d="
				M407.934,266.147c0,0,2.835-17.292,2.953-22.753c0.118-5.462,0.47-7.856-1.215-7.712c-1.684,0.144-3.597,2.504-4.146,2.913
				c-0.549,0.408-3.563,0.944-3.563,0.944s2.354-3.372,3.594-5.146s-2.183-1.788-4.434-0.456c-2.25,1.332-7.478,4.282-7.478,4.282
				s-7.883,6.375-11.283,10.865c-3.399,4.49-4.177,7.115-1.512,11.616c2.665,4.501,8.113,8.041,12.104,9.508
				C396.946,271.674,404.501,272.197,407.934,266.147z"/>
			<path style="fill:#FFFFFF;stroke:#263238;stroke-linecap:round;stroke-linejoin:round;stroke-miterlimit:10;" d="
				M403.959,249.245c-1.061-0.741-1.377-2.122-0.705-3.085s2.078-1.142,3.139-0.401c1.061,0.741,1.377,2.122,0.705,3.085
				C406.425,249.807,405.02,249.986,403.959,249.245z"/>
			<path style="fill:#263238;stroke:#263238;stroke-linecap:round;stroke-linejoin:round;stroke-miterlimit:10;" d="
				M404.984,247.967c-0.518-0.362-0.757-0.915-0.533-1.236c0.224-0.321,0.826-0.288,1.344,0.074
				c0.518,0.362,0.757,0.916,0.533,1.236C406.104,248.362,405.503,248.329,404.984,247.967z"/>
			<path style="fill:none;stroke:#263238;stroke-linecap:round;stroke-linejoin:round;stroke-miterlimit:10;" d="M401.964,239.538
				c0,0-8.081,0.81-8.829,1.882c-0.749,1.073-0.533,2.287,2.352,3.105c2.886,0.818,5.831-1.114,6.929-1.544"/>
			<g>
				<path style="fill:#BABABA;stroke:#263238;stroke-linecap:round;stroke-linejoin:round;stroke-miterlimit:10;" d="
					M378.052,258.507c0,0-1.563,6.627-4.455,11.419c-2.892,4.791-9.824,10.167-9.894,8.642c-0.07-1.525,0.706-2.799,0.706-2.799
					l-1.28,0.695l0.494-1.358l-2.049,1.634l2.512-3.922l0.737-1.869l-1.433,0.589c0,0,1.324-2.708,1.75-3.318
					c0.426-0.611,1.302-1.702,2.513-2.786c1.211-1.084,3.214-2.977,4.654-3.901c1.44-0.924,3.177-2.436,3.177-2.436l0.503-0.557"/>
				<path style="fill:none;stroke:#263238;stroke-linecap:round;stroke-linejoin:round;stroke-miterlimit:10;" d="M376.553,260.979
					c0,0-4.135,10.961-12.144,14.79"/>
				<path style="fill:none;stroke:#263238;stroke-linecap:round;stroke-linejoin:round;stroke-miterlimit:10;" d="M374.329,262.377
					c0,0-3.133,7.574-10.705,12.729"/>
				
					<line style="fill:none;stroke:#263238;stroke-linecap:round;stroke-linejoin:round;stroke-miterlimit:10;" x1="372.722" y1="263.865" x2="364.823" y2="270.95"/>
			</g>
			<g>
				<path style="fill:#BABABA;stroke:#263238;stroke-linecap:round;stroke-linejoin:round;stroke-miterlimit:10;" d="
					M275.604,405.704c0.479-0.687,1.286-2.167,2.101-2.846c0.815-0.68,1.241-1.29,1.241-1.29s-2.418,5.576-2.052,5.377
					c0.914-0.496,1.378-1.648,1.515-2.007c0.137-0.359,0.647-1.251,0.647-1.251l-0.37,2.806c0.671,0.014,1.525-0.07,1.525-0.07
					l0.732-0.397c0,0,0.67-1.121,0.936-1.503l-0.203,2.242l3.119,0.248l1.708-0.17l2.31-0.544l3.34,0.743c0,0,2.75,4.19,4.657,5.522
					s3.091,2.726,3.801,3.335c0.71,0.609,2.885,2.696,2.885,2.696s0.405,0.396,1.374,0.959c0.969,0.563,1.693,0.501,2.006,0.379
					c0.313-0.122,0.328,0.343,0.822-1.015c0.494-1.358,2.098-5.118,2.098-5.118s0.674-3.729,0.503-6.573s1.089-14.564,1.088-15.7
					c-0.001-0.811,0.118-1.705,0.237-2.284l-1.405,1.492c0,0-3.177,8.586-6.838,8.222c-3.66-0.364-8.588-4.744-9.549-8.077
					c-0.893-3.099,0.148-7.414,0.838-9.139c-2.001,1.493-4.542,3.533-5.753,5.087c-2.161,2.773-13.608,13.033-14.363,14.76
					c-0.755,1.726-1.25,3.189-0.884,2.99c0.366-0.199,1.965-1.352,1.965-1.352s-2.094,2.511-1.377,2.784
					C274.972,406.284,275.125,406.39,275.604,405.704z"/>
				<g>
					<path style="fill:none;stroke:#263238;stroke-linecap:round;stroke-linejoin:round;stroke-miterlimit:10;" d="M309.169,409.592
						c0.095-1.57,0.052-3.177-0.221-4.709"/>
					<path style="fill:none;stroke:#263238;stroke-linecap:round;stroke-linejoin:round;stroke-miterlimit:10;" d="M306.873,419.933
						c0,0,1.566-3.94,2.137-8.615"/>
					<path style="fill:none;stroke:#263238;stroke-linecap:round;stroke-linejoin:round;stroke-miterlimit:10;" d="M306.273,410.848
						c-0.209,2.534-0.948,5.32-2.779,7.747"/>
					<path style="fill:none;stroke:#263238;stroke-linecap:round;stroke-linejoin:round;stroke-miterlimit:10;" d="M305.497,403.099
						c0,0,0.907,2.842,0.839,6.481"/>
					<path style="fill:none;stroke:#263238;stroke-linecap:round;stroke-linejoin:round;stroke-miterlimit:10;" d="M300.608,415.899
						c0,0,1.942-4.993,1.982-6.845"/>
					<path style="fill:none;stroke:#263238;stroke-linecap:round;stroke-linejoin:round;stroke-miterlimit:10;" d="M303.07,414.871
						c0,0,1.276-6.312,0.536-9.961"/>
					<path style="fill:none;stroke:#263238;stroke-linecap:round;stroke-linejoin:round;stroke-miterlimit:10;" d="M297.56,404.666
						c0.252-0.816,0.5-1.711,0.731-2.685"/>
					<path style="fill:none;stroke:#263238;stroke-linecap:round;stroke-linejoin:round;stroke-miterlimit:10;" d="M294.967,410.778
						c0,0,1.042-1.613,2.139-4.734"/>
					<path style="fill:none;stroke:#263238;stroke-linecap:round;stroke-linejoin:round;stroke-miterlimit:10;" d="M292.692,399.011
						c0,0-2.757,5.387-3.882,7.287"/>
					<path style="fill:none;stroke:#263238;stroke-linecap:round;stroke-linejoin:round;stroke-miterlimit:10;" d="M285.598,403.823
						c1.397-2.003,3.469-5.054,5.239-7.986"/>
					<path style="fill:none;stroke:#263238;stroke-linecap:round;stroke-linejoin:round;stroke-miterlimit:10;" d="M283.991,406.089
						c0,0,0.254-0.349,0.683-0.952"/>
					<path style="fill:none;stroke:#263238;stroke-linecap:round;stroke-linejoin:round;stroke-miterlimit:10;" d="M283.817,397.357
						c-0.494,0.474-0.923,0.929-1.232,1.329"/>
					<path style="fill:none;stroke:#263238;stroke-linecap:round;stroke-linejoin:round;stroke-miterlimit:10;" d="M289.298,392.883
						c0,0-2.517,1.822-4.581,3.646"/>
					<path style="fill:none;stroke:#263238;stroke-linecap:round;stroke-linejoin:round;stroke-miterlimit:10;" d="M282.172,395.787
						c-0.56,0.626-1.099,1.283-1.597,1.966"/>
					<path style="fill:none;stroke:#263238;stroke-linecap:round;stroke-linejoin:round;stroke-miterlimit:10;" d="M290.272,389.022
						c0,0-3.618,2.202-6.97,5.569"/>
					<path style="fill:none;stroke:#263238;stroke-linecap:round;stroke-linejoin:round;stroke-miterlimit:10;" d="M284.69,400.299
						c-0.772,1.016-1.719,2.391-2.812,4.224"/>
					<path style="fill:none;stroke:#263238;stroke-linecap:round;stroke-linejoin:round;stroke-miterlimit:10;" d="M287.022,397.714
						c0,0-0.322,0.239-0.92,0.885"/>
				</g>
			</g>
			<path style="fill:#263238;stroke:#263238;stroke-linecap:round;stroke-linejoin:round;stroke-miterlimit:10;" d="
				M401.036,256.893c-0.361-0.252-0.512-0.657-0.339-0.905c0.173-0.248,0.606-0.245,0.966,0.007
				c0.361,0.252,0.512,0.657,0.339,0.905C401.829,257.148,401.397,257.145,401.036,256.893z"/>
			<path style="fill:#263238;stroke:#263238;stroke-linecap:round;stroke-linejoin:round;stroke-miterlimit:10;" d="
				M398.136,259.481c-0.315-0.22-0.444-0.582-0.286-0.807c0.157-0.225,0.541-0.23,0.856-0.009c0.316,0.22,0.444,0.582,0.286,0.807
				C398.835,259.698,398.452,259.702,398.136,259.481z"/>
			<path style="fill:#263238;stroke:#263238;stroke-linecap:round;stroke-linejoin:round;stroke-miterlimit:10;" d="
				M401.947,262.021c-0.18-0.126-0.237-0.356-0.127-0.514c0.11-0.158,0.346-0.184,0.526-0.058c0.18,0.126,0.237,0.356,0.127,0.514
				C402.363,262.121,402.127,262.147,401.947,262.021z"/>
			<path style="fill:#263238;stroke:#263238;stroke-linecap:round;stroke-linejoin:round;stroke-miterlimit:10;" d="
				M404.205,261.655c-0.113-0.079-0.153-0.215-0.09-0.306c0.063-0.09,0.205-0.099,0.318-0.021s0.153,0.215,0.09,0.306
				C404.46,261.725,404.318,261.734,404.205,261.655z"/>
			<path style="fill:#263238;stroke:#263238;stroke-linecap:round;stroke-linejoin:round;stroke-miterlimit:10;" d="
				M403.214,264.727c-0.225-0.157-0.268-0.486-0.095-0.734s0.496-0.321,0.721-0.164c0.225,0.157,0.268,0.486,0.095,0.734
				C403.762,264.81,403.439,264.884,403.214,264.727z"/>
			<path style="fill:#263238;stroke:#263238;stroke-linecap:round;stroke-linejoin:round;stroke-miterlimit:10;" d="
				M398.843,264.466c-0.338-0.236-0.484-0.61-0.327-0.835c0.157-0.225,0.559-0.217,0.897,0.019c0.338,0.236,0.484,0.61,0.327,0.835
				C399.583,264.711,399.181,264.703,398.843,264.466z"/>
			<path style="fill:#263238;stroke:#263238;stroke-linecap:round;stroke-linejoin:round;stroke-miterlimit:10;" d="
				M395.125,264.055c-0.338-0.236-0.523-0.555-0.413-0.713c0.11-0.158,0.473-0.094,0.811,0.142c0.338,0.236,0.523,0.555,0.413,0.713
				C395.826,264.354,395.463,264.291,395.125,264.055z"/>
			<path style="fill:#263238;stroke:#263238;stroke-linecap:round;stroke-linejoin:round;stroke-miterlimit:10;" d="M391.78,262.326
				c-0.316-0.22-0.482-0.527-0.372-0.684c0.11-0.158,0.455-0.107,0.771,0.113c0.315,0.22,0.482,0.527,0.372,0.685
				C392.44,262.597,392.095,262.546,391.78,262.326z"/>
			<path style="fill:#263238;stroke:#263238;stroke-linecap:round;stroke-linejoin:round;stroke-miterlimit:10;" d="
				M398.558,250.185c-0.225-0.157-0.306-0.431-0.18-0.611c0.126-0.18,0.411-0.199,0.636-0.042c0.225,0.157,0.306,0.431,0.18,0.611
				C399.068,250.324,398.783,250.343,398.558,250.185z"/>
			<path style="fill:#263238;stroke:#263238;stroke-linecap:round;stroke-linejoin:round;stroke-miterlimit:10;" d="
				M398.863,253.312c-0.158-0.11-0.133-0.419,0.056-0.689c0.189-0.27,0.47-0.4,0.628-0.29c0.158,0.11,0.133,0.419-0.056,0.689
				S399.021,253.422,398.863,253.312z"/>
			<path style="fill:#263238;stroke:#263238;stroke-linecap:round;stroke-linejoin:round;stroke-miterlimit:10;" d="
				M399.916,246.763c-0.203-0.142-0.265-0.403-0.139-0.583c0.126-0.18,0.392-0.212,0.595-0.07c0.203,0.142,0.265,0.403,0.139,0.583
				C400.385,246.874,400.119,246.905,399.916,246.763z"/>
			<g>
				<path style="fill:none;stroke:#263238;stroke-linecap:round;stroke-linejoin:round;stroke-miterlimit:10;" d="M386.155,304.18
					c0,0-10.638-14.195-13.828-22.187"/>
				<path style="fill:none;stroke:#263238;stroke-linecap:round;stroke-linejoin:round;stroke-miterlimit:10;" d="M383.212,305.883
					c0,0-10.638-14.195-13.828-22.187"/>
				<path style="fill:none;stroke:#263238;stroke-linecap:round;stroke-linejoin:round;stroke-miterlimit:10;" d="M380.268,307.586
					c0,0-10.638-14.195-13.829-22.187"/>
				<path style="fill:none;stroke:#263238;stroke-linecap:round;stroke-linejoin:round;stroke-miterlimit:10;" d="M377.324,309.29
					c0,0-10.638-14.195-13.828-22.187"/>
				<path style="fill:none;stroke:#263238;stroke-linecap:round;stroke-linejoin:round;stroke-miterlimit:10;" d="M374.38,310.993
					c0,0-10.638-14.195-13.828-22.187"/>
				<path style="fill:none;stroke:#263238;stroke-linecap:round;stroke-linejoin:round;stroke-miterlimit:10;" d="M371.115,311.721
					c0,0-10.638-14.195-13.828-22.187"/>
				<path style="fill:none;stroke:#263238;stroke-linecap:round;stroke-linejoin:round;stroke-miterlimit:10;" d="M367.85,312.449
					c0,0-10.638-14.195-13.829-22.187"/>
				<path style="fill:none;stroke:#263238;stroke-linecap:round;stroke-linejoin:round;stroke-miterlimit:10;" d="M386.471,300.139
					c0,0-13.591,9.055-22.057,10.411"/>
				<path style="fill:none;stroke:#263238;stroke-linecap:round;stroke-linejoin:round;stroke-miterlimit:10;" d="M384.869,297.767
					c0,0-13.591,9.055-22.057,10.411"/>
				<path style="fill:none;stroke:#263238;stroke-linecap:round;stroke-linejoin:round;stroke-miterlimit:10;" d="M383.267,295.396
					c0,0-13.591,9.055-22.057,10.411"/>
				<path style="fill:none;stroke:#263238;stroke-linecap:round;stroke-linejoin:round;stroke-miterlimit:10;" d="M381.665,293.024
					c0,0-13.591,9.055-22.057,10.411"/>
				<path style="fill:none;stroke:#263238;stroke-linecap:round;stroke-linejoin:round;stroke-miterlimit:10;" d="M380.063,290.652
					c0,0-13.591,9.055-22.057,10.411"/>
				<path style="fill:none;stroke:#263238;stroke-linecap:round;stroke-linejoin:round;stroke-miterlimit:10;" d="M378.461,288.281
					c0,0-13.591,9.055-22.057,10.411"/>
				<path style="fill:none;stroke:#263238;stroke-linecap:round;stroke-linejoin:round;stroke-miterlimit:10;" d="M376.86,285.909
					c0,0-13.591,9.055-22.057,10.411"/>
				<path style="fill:none;stroke:#263238;stroke-linecap:round;stroke-linejoin:round;stroke-miterlimit:10;" d="M375.258,283.537
					c0,0-13.591,9.055-22.057,10.411"/>
			</g>
		</g>
		<path style="opacity:0.59;fill:#FFFFFF;" d="M434.974,272.518c0,0-10.037-16.227-10.94-18.534
			c-0.903-2.307-8.517-16.003-8.517-16.003l-3.635-3.795l-14.359-5.837c0,0,12.603,20.952,14.548,23.567
			c1.945,2.615-1.671,15.593-2.118,18.633c-0.447,3.04-7.54,26.997-7.54,26.997s4.868-0.371,7.233,0.442
			c2.365,0.813,8.36,1.229,9.933-1.024C421.153,294.71,434.974,272.518,434.974,272.518z"/>
		<path style="opacity:0.59;fill:#FFFFFF;" d="M365.555,230.327c0,0,2.502,47.417,1.407,49.586
			c-1.095,2.168-21.905,65.569-21.905,65.569s-2.818-28.365-3.668-33.148c-0.85-4.783-1.852-20.148-1.852-20.148l-3.515-22.566
			l2.637-7.376l30.288-43.374L365.555,230.327z"/>
		<path style="opacity:0.59;fill:#FFFFFF;" d="M340.569,407.71c0,0-4.802-15.923-5.902-17.948c-1.1-2.025-6.606-42.741-6.606-42.741
			l-6.443,51.227c0,0,0.811,19.84,0.645,23.076c-0.165,3.237-8.369-9.615-8.369-9.615s0.233,6.866-1.899,12.92
			c-2.132,6.053-3.057,9.178-1.367,10.358c1.69,1.18,6.393,4.045,7.828,3.79s5.034-3.608,5.034-3.608L340.569,407.71z"/>
		<path style="opacity:0.59;fill:#FFFFFF;" d="M358.828,378.561c0,0-1.619-13.281-6.148-10.997
			c-4.528,2.285-3.718,22.124-3.49,24.797C349.419,395.035,358.828,378.561,358.828,378.561z"/>
		<path style="opacity:0.59;fill:#FFFFFF;" d="M279.506,388.952c0,0,9.958-28.66,9.475-32.769s6.887-32.062,7.195-33.104
			c0.308-1.042-44.843,64.216-44.843,64.216s-0.952,4.363,2.428,6.723c3.38,2.36,11.968,6.262,11.968,6.262
			S278.076,393.4,279.506,388.952z"/>
	</g>
</g>
<g id="Bread">
	<g>
		<g>
			<path style="fill:#BDBDBD;stroke:#263238;stroke-linecap:round;stroke-linejoin:round;stroke-miterlimit:10;" d="
				M236.024,436.525L236.024,436.525c-15.885,2.259-30.594-8.786-32.853-24.671l-25.059-176.17
				c-2.259-15.885,8.786-30.594,24.671-32.853l0,0c15.885-2.259,30.594,8.786,32.853,24.671l25.059,176.171
				C262.954,419.557,251.909,434.265,236.024,436.525z"/>
			<path style="fill:#FFFFFF;stroke:#263238;stroke-linecap:round;stroke-linejoin:round;stroke-miterlimit:10;" d="M226.37,222.021
				c0,0-14.313,14.389-23.714,23.405c-9.401,9.016-11.463,17.99-12.682,23.505c-1.219,5.515-2.391,11.358-0.147,10.705
				c2.244-0.653,4.905-13.149,8.191-17.524c11.508-15.326,15.763-15.931,22.405-23.219
				C227.065,231.604,232.871,216.088,226.37,222.021z"/>
			<path style="fill:#FFFFFF;stroke:#263238;stroke-linecap:round;stroke-linejoin:round;stroke-miterlimit:10;" d="
				M231.257,256.381c0,0-14.313,14.389-23.714,23.405c-9.401,9.016-11.463,17.99-12.682,23.505s-2.391,11.358-0.147,10.704
				c2.244-0.653,4.906-13.149,8.191-17.524c11.508-15.326,15.763-15.931,22.405-23.219
				C231.952,265.964,237.758,250.449,231.257,256.381z"/>
			<path style="fill:#FFFFFF;stroke:#263238;stroke-linecap:round;stroke-linejoin:round;stroke-miterlimit:10;" d="
				M236.145,290.742c0,0-14.313,14.389-23.714,23.405c-9.401,9.016-11.463,17.99-12.682,23.505
				c-1.219,5.515-2.391,11.358-0.147,10.705c2.244-0.653,4.905-13.149,8.191-17.525c11.508-15.325,15.763-15.931,22.405-23.219
				S242.646,284.809,236.145,290.742z"/>
			<path style="fill:#FFFFFF;stroke:#263238;stroke-linecap:round;stroke-linejoin:round;stroke-miterlimit:10;" d="
				M241.032,325.102c0,0-14.313,14.389-23.714,23.405c-9.401,9.016-11.463,17.99-12.682,23.505
				c-1.219,5.515-2.391,11.358-0.147,10.704c2.244-0.653,4.906-13.149,8.191-17.524c11.508-15.325,15.763-15.931,22.405-23.219
				C241.728,334.685,247.533,319.17,241.032,325.102z"/>
			<path style="fill:#FFFFFF;stroke:#263238;stroke-linecap:round;stroke-linejoin:round;stroke-miterlimit:10;" d="
				M246.032,360.251c0,0-14.313,14.389-23.714,23.405c-9.401,9.016-11.463,17.99-12.682,23.505
				c-1.219,5.515-2.391,11.358-0.147,10.704c2.244-0.653,4.905-13.149,8.191-17.524c11.508-15.326,15.763-15.931,22.405-23.219
				C246.727,369.834,252.533,354.318,246.032,360.251z"/>
		</g>
		<g>
			<path style="fill:#BDBDBD;stroke:#263238;stroke-linecap:round;stroke-linejoin:round;stroke-miterlimit:10;" d="
				M236.401,460.184L236.401,460.184c-15.958-1.669-27.54-15.959-25.871-31.916l18.515-176.978
				c1.669-15.958,15.959-27.54,31.916-25.871l0,0c15.958,1.67,27.54,15.959,25.871,31.916l-18.515,176.978
				C266.648,450.271,252.359,461.853,236.401,460.184z"/>
			<path style="fill:#FFFFFF;stroke:#263238;stroke-linecap:round;stroke-linejoin:round;stroke-miterlimit:10;" d="
				M279.177,249.767c0,0-17.381,10.478-28.692,16.939c-11.311,6.46-15.492,14.664-18.015,19.717
				c-2.523,5.053-5.08,10.436-2.744,10.348c2.336-0.088,7.955-11.563,12.205-15.008c14.888-12.068,19.162-11.621,27.377-17.076
				C277.522,259.231,286.925,245.592,279.177,249.767z"/>
			<path style="fill:#FFFFFF;stroke:#263238;stroke-linecap:round;stroke-linejoin:round;stroke-miterlimit:10;" d="
				M275.566,284.285c0,0-17.381,10.478-28.692,16.939c-11.311,6.461-15.492,14.664-18.015,19.717
				c-2.523,5.053-5.08,10.436-2.744,10.348c2.336-0.088,7.955-11.563,12.205-15.008c14.889-12.068,19.162-11.621,27.377-17.076
				S283.314,280.11,275.566,284.285z"/>
			<path style="fill:#FFFFFF;stroke:#263238;stroke-linecap:round;stroke-linejoin:round;stroke-miterlimit:10;" d="
				M271.954,318.803c0,0-17.381,10.478-28.692,16.939c-11.311,6.461-15.492,14.664-18.015,19.718
				c-2.523,5.053-5.08,10.436-2.744,10.348c2.336-0.088,7.955-11.563,12.205-15.008c14.889-12.068,19.162-11.621,27.377-17.077
				C270.3,328.267,279.703,314.628,271.954,318.803z"/>
			<path style="fill:#FFFFFF;stroke:#263238;stroke-linecap:round;stroke-linejoin:round;stroke-miterlimit:10;" d="
				M268.343,353.321c0,0-17.381,10.478-28.692,16.939c-11.311,6.461-15.492,14.664-18.015,19.717
				c-2.523,5.054-5.08,10.436-2.744,10.348c2.336-0.088,7.955-11.563,12.205-15.008c14.889-12.068,19.162-11.621,27.377-17.076
				C266.689,362.785,276.092,349.146,268.343,353.321z"/>
			<path style="fill:#FFFFFF;stroke:#263238;stroke-linecap:round;stroke-linejoin:round;stroke-miterlimit:10;" d="M264.65,388.63
				c0,0-17.381,10.478-28.692,16.939c-11.311,6.461-15.492,14.664-18.015,19.717c-2.523,5.054-5.08,10.436-2.744,10.348
				s7.955-11.563,12.205-15.008c14.889-12.068,19.162-11.621,27.377-17.076C262.995,398.095,272.398,384.456,264.65,388.63z"/>
		</g>
	</g>
</g>
<g id="Meat">
	<g>
		<path style="fill:#92E3A9;stroke:#263238;stroke-miterlimit:10;" d="M299.003,353.065c0,0,6.146,23.535,10.081,28.066
			c3.935,4.532,13.998,12.515,26.85,10.951c12.851-1.564,16.72-8.918,28.5-14.04c11.78-5.122,29.957-6.244,42.971-12.316
			c13.015-6.071,20.263-7.258,24.949-14.335c4.687-7.077,3.286-24.436,3.286-24.436L299.003,353.065z"/>
		<path style="fill:#FFFFFF;stroke:#263238;stroke-miterlimit:10;" d="M402.785,288.923c-2.652-1.243-23.942-13.029-46.216-10.818
			c-22.274,2.212-41.723,22.015-46.51,38.976c-4.787,16.961-15.116,30.081-9.029,40.954c6.087,10.874,17.419,26.465,28.836,27.411
			c11.418,0.946,26.167-16.542,31.446-17.682c5.279-1.141,27.886-10.087,41.952-11.176c14.066-1.089,39.321-12.07,31.83-33.204
			C427.604,302.25,410.38,292.483,402.785,288.923z"/>
		<path style="fill:#92E3A9;stroke:#263238;stroke-miterlimit:10;" d="M345.692,289.539c0,0-6.176,4.745-17.154,12.878
			c-10.977,8.132-17.832,12.19-15.967,20.125c1.866,7.935,0.214,10.111-3.369,15.281c-3.583,5.171-2.674,13.236-0.792,18.439
			c1.882,5.203,13.525,23.305,22.834,20.081c9.309-3.224,14.25-7.02,20.442-14.498c6.192-7.478,22.61-11.479,33.293-16.061
			c10.683-4.582,23.787-25.681,20.686-32.667c-3.101-6.986-6.75-13.702-17.639-20.597c-10.889-6.895-24.951-8.481-28.232-8.227
			C356.514,284.547,345.692,289.539,345.692,289.539z"/>
		<path style="fill:#92E3A9;stroke:#263238;stroke-miterlimit:10;" d="M412.921,310.565c0,0-1.479,19.118-8.628,26.727
			c-7.149,7.608,1.842,12.033,6.21,12.606c4.368,0.572,21.784-10.391,20.065-20.102s-8.763-19.862-12.976-23.575
			C413.379,302.507,412.921,310.565,412.921,310.565z"/>
		<path style="fill:#92E3A9;stroke:#263238;stroke-miterlimit:10;" d="M394.412,344.884c0,0-3.853,4.622-10.56,6.905
			c-6.708,2.283-19.707,5.622-15.755,7.421c3.951,1.799,26.537-5.582,30.374-7.472C402.306,349.849,396.735,344.761,394.412,344.884
			z"/>
		<g>
			<path style="fill:none;stroke:#263238;stroke-miterlimit:10;" d="M313.64,349.563c0,0,1.301-3.826,13.046-9.082
				c11.746-5.255,15.138-2.68,20.265-5.205c5.127-2.526,7.486-5.281,15.992-3.101c8.507,2.18,11.695,3.264,11.695,3.264"/>
			<path style="fill:none;stroke:#263238;stroke-miterlimit:10;" d="M321.443,326.607c0,0,3.009-4.668,7.486-5.281
				c4.476-0.613,7.894-2.296,10.024-2.284c2.13,0.012,5.981-2.947,5.981-2.947c7.04-1.875,7.04-1.875,7.04-1.875"/>
			<path style="fill:none;stroke:#263238;stroke-miterlimit:10;" d="M374.61,304.13c0,0-11.912-2.626-15.113-1.58
				c-3.201,1.046-8.953,1.225-8.953,1.225l-5.535-0.459l-7.894,2.296"/>
			<path style="fill:none;stroke:#263238;stroke-miterlimit:10;" d="M321.879,360.9c0,0,9.615-5.268,13.238-5.46
				c3.622-0.192,6.835-3.367,6.835-3.367"/>
		</g>
	</g>
</g>
<g id="Beetroots">
	<g>
		<g>
			<g>
				<path style="fill:#92E3A9;stroke:#263238;stroke-miterlimit:10;" d="M181.133,257.477l0.453,7.722l0.606,8.073l0.477,5.294
					l3.19,4.443l0.786,1.991l0.042,1.816l1.157,3.414l1.442,2.539c0,0,5.615,8.47,7.888,10.813c2.273,2.342,9.947,8.08,11.631,9.263
					c1.684,1.183,6.775,7.881,7.169,8.209c0.394,0.328,7.083,5.912,8.463,3.726c1.38-2.186,4.672-15.462,4.672-15.462
					s-3.019-26.779-4.723-29.536c-1.704-2.758-3.692-5.975-4.916-7.442c-1.224-1.467-3.782-2.935-5.028-4.642
					c-1.246-1.707-4.369-8.098-7.254-10.506c-2.886-2.409-8.462-5.06-8.462-5.06l-5.228-0.135l-3.632,0.085
					c0,0-3.895,1.2-4.464,1.615C184.833,254.111,182.601,254.918,181.133,257.477z"/>
				<path style="fill:none;stroke:#263238;stroke-miterlimit:10;" d="M210.827,294.615c0,0,1.85-6.498,2.48-7.61
					c0.63-1.112,1.497-5.005,1.497-5.005s0.235-0.995,0.602-2.327c0.367-1.332,1.085-2.37,0.881-3.732
					c-0.204-1.362-0.627-2.46-0.627-2.46"/>
				<path style="fill:none;stroke:#263238;stroke-miterlimit:10;" d="M199.249,257.996c0.292,0.542,0.424,1.098,0.554,2.548
					c0.131,1.449-0.471,2.883-0.471,2.883l-1.602,8.342l-0.104,1.552c0,0-6.602,0.595-7.948,0.067
					c-1.346-0.528-3.556-1.628-3.556-1.628s-0.337-0.132-0.849-0.411"/>
				<path style="fill:none;stroke:#263238;stroke-miterlimit:10;" d="M188.547,277.954c0,0,9.629,3.272,10.888,3.727
					c1.258,0.455,4.449,0.736,4.449,0.736s2.83-5.531,3.123-5.882c0.293-0.351,4.221-6.306,4.251-6.876
					c0.03-0.571,0.03-0.571,0.03-0.571"/>
				<polyline style="fill:none;stroke:#263238;stroke-miterlimit:10;" points="191.454,285.89 197.76,289.218 201.871,291.607 
					203.715,292.253 207.988,293.735 				"/>
				<polyline style="fill:none;stroke:#263238;stroke-miterlimit:10;" points="214.978,302.845 219.742,294.461 221.768,287.217 
									"/>
				<path style="fill:none;stroke:#263238;stroke-miterlimit:10;" d="M219.114,310.914c0,0,2.067-4.082,2.317-4.916
					c0.249-0.834,0.778-2.181,0.778-2.181l1.129-1.887l0.69-2.254"/>
				<path style="fill:#263238;stroke:#263238;stroke-miterlimit:10;" d="M191.082,262.888c0,0,16.778,28.693,18.175,32.085
					c1.397,3.392,12.994,27.093,13.561,29.346c0.567,2.254,2.397,15.154,2.397,15.154l3.979-0.929l-6.088-19.103l-11.247-23.854
					C211.86,295.587,194.886,266.063,191.082,262.888z"/>
			</g>
			<path style="fill:#263238;stroke:#263238;stroke-miterlimit:10;" d="M222.985,340.25c0,0-8.74,2.582-13.162,13.259
				c-4.422,10.676,3.985,20.687,10.16,24.046c6.176,3.359,16.499,7.486,18.793,9.401c2.293,1.914,4.174,4.681,4.613,7.742
				c0.439,3.06-1.33,6.972,0.319,5.355c1.649-1.617,1.828-5.059,1.3-7.296c-0.528-2.236-0.937-4.973,0.977-7.266
				c1.914-2.293,9.393-9.819,13.607-17.377c4.213-7.558,5.396-14.353,1.547-20.859c-3.849-6.505-8.759-10.305-13.525-10.691
				c-4.766-0.386-11.686,1.217-14.659,1.605c-2.973,0.388-5.816,0.885-5.816,0.885L222.985,340.25z"/>
			<g>
				<path style="fill:#92E3A9;stroke:#263238;stroke-miterlimit:10;" d="M220.205,332.072c0,0,0.847-4.504,2.416-6.567
					c1.569-2.063,4.782-7.198,3.849-9.202c-0.932-2.005-4.216-3.212-5.525-4.765c-1.309-1.553-2.646-7.113-2.646-7.113
					s-6.054-3.214-6.957-3.968c-0.903-0.754-2.348-2.879-3.718-3.257c-1.371-0.378-1.416,0.044-2.591-0.936
					c-1.174-0.98-1.866-2.171-3.463-2.278c-1.597-0.107-3.992-0.726-4.594-0.923c-0.602-0.196-0.148-2.576-2.905-3.497
					c-2.756-0.921-3.66-0.756-5.016-0.968c-1.356-0.212-5.513-0.923-5.513-0.923l-3.616,0.66l-4.852,0.855l-3.255,0.962
					c0,0-1.01,0.843-2.396,1.218c-1.386,0.376-1.913,0.089-3.165,1.037c-1.251,0.948-2.474,4.066-2.474,4.066l-0.198,2.44
					l-0.499,2.802l0.433,4.806l4.936,7.492l4.169,4.553l4.653,3.424c0,0,7.518-0.928,8.302-0.581
					c0.783,0.347,1.987,1.659,2.89,3.332c0.902,1.673,2.829,3.588,3.975,3.318c1.145-0.27,2.365,0.288,2.365,0.288
					s-0.726,3.073,0.825,4.52s2.982,1.569,3.614,2.097c0.632,0.528-0.679,1.732,0.555,2.456c1.235,0.724,2.711,0.424,3.253,0.877
					c0.542,0.452,1.292,4.144,3.642,5.185c2.349,1.041,4.476-1.322,4.883-2.361c0.408-1.039,3.652-7.681,3.652-7.681
					L220.205,332.072z"/>
				<path style="fill:#263238;stroke:#263238;stroke-miterlimit:10;" d="M225.215,339.473c0,0-6.951-11.32-10.443-15.767
					c-3.492-4.447-16.967-14.929-20.687-16.348c-3.72-1.419-19.505-6.012-19.505-6.012l-5.392-1.435c0,0,16.718,5.678,20.423,6.932
					c3.705,1.253,6.522,1.919,9.623,4.814c3.101,2.895,11.714,9.471,12.556,10.481c0.843,1.01,7.584,10.929,8.111,12.134
					c0.526,1.206,3.084,5.979,3.084,5.979L225.215,339.473z"/>
				<path style="fill:none;stroke:#263238;stroke-miterlimit:10;" d="M209.736,306.943c-0.424-1.108-0.824-2.249-1.124-3.4"/>
				<path style="fill:none;stroke:#263238;stroke-miterlimit:10;" d="M212.771,320.962c0.12,0.407-0.298-4.234-0.627-6.961
					c-0.15-1.243-0.685-2.713-1.32-4.315"/>
				<path style="fill:none;stroke:#263238;stroke-miterlimit:10;" d="M206.237,316.121c0,0,0.275-4.369-1.547-6.043
					c-1.822-1.674-4.997-6.317-6.125-8.638c-1.128-2.321-2.091-3.738-2.091-3.738"/>
				<path style="fill:none;stroke:#263238;stroke-miterlimit:10;" d="M185.665,311.364c-0.98,0.6-2.174,1.251-3.922,1.784
					c-3.496,1.067-2.652,1.158-3.496,1.067"/>
				<path style="fill:none;stroke:#263238;stroke-miterlimit:10;" d="M193.347,308.427c0,0-3.27,0.796-5.048,1.457
					c-0.267,0.099-0.523,0.218-0.777,0.353"/>
				<path style="fill:none;stroke:#263238;stroke-miterlimit:10;" d="M201.839,314.596c0,0-2.667,0.992-5.696,1.683
					c-3.029,0.691-4.716,0.508-4.716,0.508"/>
				<path style="fill:none;stroke:#263238;stroke-miterlimit:10;" d="M202.655,323.998c1.443,0.241,2.89,0.54,3.786,0.876
					c2.335,0.876,4.263,0.953,4.263,0.953l4.007,0.892"/>
				<path style="fill:none;stroke:#263238;stroke-miterlimit:10;" d="M198.035,323.376c0,0,1.244,0.128,2.823,0.349"/>
				<path style="fill:none;stroke:#263238;stroke-miterlimit:10;" d="M219.257,329.901c0,0-1.366-5.892-1.53-8.634
					c-0.163-2.742-0.01-5.68-0.176-6.584"/>
				<path style="fill:none;stroke:#263238;stroke-miterlimit:10;" d="M217.899,332.446c0,0-5.436-2.852-7.064-2.371
					c-1.628,0.481-5.486,3.084-7.49,2.178"/>
				<path style="fill:none;stroke:#263238;stroke-miterlimit:10;" d="M197.309,308.822c0,0-1.202-4.069-3.038-5.908
					c-1.837-1.84-3.808-4.252-3.808-4.252l-1.972-2.412l-1.159-1.733"/>
			</g>
			<g>
				<path style="fill:#92E3A9;stroke:#263238;stroke-miterlimit:10;" d="M231.257,320.299c0,0-2.679-2.85-4.349-6.542
					c-1.669-3.693,0.773-6.252,0.941-8.105c0.167-1.853-0.329-2.727-1.126-5.078c-0.797-2.351,0.125-5.107,0.005-6.433
					c-0.12-1.326-2.799-4.176-4.482-8.953c-1.683-4.777,4.092-11.145,5.283-11.837c1.191-0.692,4.824-3.943,5.806-6.956
					c0.982-3.012,6.952-8.145,9.438-8.369c2.486-0.224,6.223-0.477,6.989,1.542c0.767,2.019,0.78,4.023,0.78,4.023
					s2.378,3.211,2.421,5.546c0.043,2.335,0.25,7.413-0.188,9.039c-0.438,1.627-2.402,7.651-2.402,7.651l-0.696,3.404l1.399,2.547
					l-4.495,6.67l-1.465,4.142l-0.514,2.636l-0.529,1.551l0.285,1.311c0,0,1.445,1.206,1.339,1.884
					c-0.106,0.678-0.031,0.587-0.107,1.597c-0.076,1.009-1.978,4.94-1.978,4.94l-1.221,1.28l-1.192,2.53c0,0-0.906,2.003-2.517,1.73
					c-1.612-0.272-3.118-0.304-3.118-0.304L231.257,320.299z"/>
				<path style="fill:none;stroke:#263238;stroke-miterlimit:10;" d="M229.701,289.231c-0.877-2.136-2.137-4.354-2.137-4.354
					l-1.263-2.894"/>
				<path style="fill:none;stroke:#263238;stroke-miterlimit:10;" d="M234.198,298.23c0,0-2.382-3.698-3.501-6.281"/>
				<path style="fill:none;stroke:#263238;stroke-miterlimit:10;" d="M232.884,276.085c0.122-2.938,0.612-4.19,0.612-4.19"/>
				<path style="fill:none;stroke:#263238;stroke-miterlimit:10;" d="M236.767,288.726c0,0-1.925-4.672-2.27-5.727
					c-0.304-0.928-1.309-1.017-1.574-3.868"/>
				<line style="fill:none;stroke:#263238;stroke-miterlimit:10;" x1="247.233" y1="276.004" x2="249.163" y2="273.324"/>
				<path style="fill:none;stroke:#263238;stroke-miterlimit:10;" d="M236.723,267.845c0,0,1.607,6.706,1.621,7.79
					c0.014,1.085,0.871,3.18,0.916,3.677c0.045,0.497,0.225,1.567,0.225,1.567s3.045-2.363,4.04-2.452
					c0.249-0.022,0.553-0.123,0.869-0.261"/>
				<line style="fill:none;stroke:#263238;stroke-miterlimit:10;" x1="243.206" y1="296.161" x2="245.546" y2="294.368"/>
				<path style="fill:none;stroke:#263238;stroke-miterlimit:10;" d="M244.614,290.072c-0.544,0.553-0.989,1.036-1.176,1.311
					c-0.664,0.979-1.267,1.701-1.267,1.701l-2.864,1.595l-3.377,2.393c0,0-1.014,5.438-1.059,5.86
					c-0.046,0.422,3.406-2.061,3.406-2.061l2.961-3.073"/>
				<path style="fill:none;stroke:#263238;stroke-miterlimit:10;" d="M248.037,286.792c0,0-0.787,0.722-1.716,1.608"/>
				<path style="fill:none;stroke:#263238;stroke-miterlimit:10;" d="M240.609,308.953c-0.626,0.832-1.133,1.5-1.133,1.5
					s-1.674,1.822-2.638,2.243c-0.965,0.421-0.648,0.226-2.125,0.526c-1.477,0.3-1.477,0.3-1.477,0.3s-2.828-5.426-3.039-5.908
					c-0.21-0.482-0.331-0.889-0.617-1.281"/>
				<path style="fill:none;stroke:#263238;stroke-miterlimit:10;" d="M242.9,305.801c-0.101,0.185-0.555,0.817-1.102,1.558"/>
				<path style="fill:none;stroke:#263238;stroke-miterlimit:10;" d="M230.66,299.545c0.742,1.75,1.514,3.584,1.575,3.791
					c0.12,0.407,0.707,1.357,0.903,1.673s0.707,1.357,0.707,1.357s3.933-0.856,6.586-2.932c2.653-2.077,3.392-3.146,3.392-3.146"/>
				<path style="fill:none;stroke:#263238;stroke-miterlimit:10;" d="M229.258,296.253c0,0,0.39,0.91,0.887,2.079"/>
				<path style="fill:#263238;stroke:#263238;stroke-miterlimit:10;" d="M227.139,339.053c0,0,4.095-18.659,4.621-24.843
					c0.526-6.184,2.38-17.662,3.945-21.654c1.566-3.992,5.592-18.072,6.026-18.592c0.434-0.52,3.652-7.549,3.652-7.549
					s-6.526,19.72-8.115,26.121c-1.589,6.4-2.988,18.92-3.338,21.719c-0.35,2.799-1.617,14.104-2.031,16.187
					c-0.414,2.083,1.057,7.726,1.057,7.726L227.139,339.053z"/>
			</g>
			<g>
				<path style="fill:#92E3A9;stroke:#263238;stroke-miterlimit:10;" d="M238.647,329.992c0,0,1.184-10.967,0.915-13.031
					c-0.27-2.064,4.531-13.691,8.014-17.681c3.483-3.99,8.818-5.974,8.818-5.974l4.899-4.034c0,0,5.228-0.387,6.674,0.819
					c1.445,1.206,3.628,3.182,3.628,3.182s0.782,1.266-0.409,2.877c-1.191,1.611-3.076,2.95-3.076,2.95s-0.136,0.346-3.648,3.086
					c-3.513,2.739-4.417,3.823-4.417,3.823l-1.84,2.755L255.7,312.5l-0.288,1.446c0,0,1.266-0.782-0.981,2.093
					c-2.247,2.876-2.429,3.644-2.429,3.644s1.94,3.919,0.478,5.303c-1.462,1.385-3.422,2.815-3.422,2.815l-1.703,0.571
					c0,0-0.829,0.075-1.642-0.604c-0.813-0.679-0.526-1.206-1.551-1.448c-1.024-0.242-2.727,0.329-2.727,0.329l-2.747,5.678
					L238.647,329.992z"/>
				<path style="fill:#263238;stroke:#263238;stroke-miterlimit:10;" d="M236.276,337.628c0,0,3.372-10.652,5.284-13.472
					c1.912-2.82,10.21-13.554,11.731-15.376c1.52-1.822,13.842-12.181,13.842-12.181s-10.298,9.95-12.153,12.54
					c-1.855,2.59-8.37,10.946-10.467,13.641c-2.096,2.695-2.791,4.261-4.496,7.589s-0.97,6.854-0.97,6.854L236.276,337.628z"/>
				<path style="fill:none;stroke:#263238;stroke-miterlimit:10;" d="M248.603,314.392c0,0-0.526-2.125-0.615-3.119
					c-0.09-0.994,0.623-6.99,0.623-6.99l0.5-3.721"/>
				<path style="fill:none;stroke:#263238;stroke-miterlimit:10;" d="M254.438,307.768l-0.464-3.3c0,0,0.138-3.103,0.003-3.676
					c-0.135-0.573-0.331-0.889-0.21-1.401"/>
				<polyline style="fill:none;stroke:#263238;stroke-miterlimit:10;" points="261.856,301.085 261.663,298.012 261.679,296.339 
					261.801,294.908 262.525,293.673 				"/>
				<path style="fill:none;stroke:#263238;stroke-miterlimit:10;" d="M243.849,323.759c0,0,1.522-0.722,1.929-0.842
					c0.407-0.12,0.919,0.001,1.386-0.375c0.467-0.376,1.1-0.767,1.1-0.767l1.477-1.219l0.438-0.708l1.116-1.521"/>
			</g>
		</g>
		<g>
			<g>
				<path style="fill:#92E3A9;stroke:#263238;stroke-miterlimit:10;" d="M273.416,301.007l-4.47,6.314l-4.569,6.683l-2.934,4.432
					l-0.284,5.463l-0.63,2.046l-1.101,1.444l-1.229,3.388l-0.46,2.883c0,0-0.906,10.122-0.594,13.371
					c0.312,3.249,2.72,12.523,3.296,14.498c0.576,1.975,0.368,10.386,0.47,10.889c0.102,0.502,1.838,9.041,4.281,8.196
					c2.443-0.846,13.307-9.156,13.307-9.156s14.369-22.798,14.761-26.015c0.392-3.218,0.849-6.972,0.809-8.882
					c-0.04-1.91-1.121-4.654-1.027-6.765c0.094-2.111,1.647-9.052,0.898-12.736c-0.749-3.683-3.447-9.237-3.447-9.237l-3.998-3.372
					l-2.889-2.202c0,0-3.791-1.496-4.495-1.527C278.408,300.69,276.16,299.926,273.416,301.007z"/>
				<path style="fill:none;stroke:#263238;stroke-miterlimit:10;" d="M273.406,348.557c0,0,5.503-3.919,6.69-4.393
					c1.187-0.475,4.295-2.973,4.295-2.973s0.805-0.63,1.924-1.441c1.118-0.811,2.328-1.173,3.019-2.364
					c0.691-1.191,1.046-2.313,1.046-2.313"/>
				<path style="fill:none;stroke:#263238;stroke-miterlimit:10;" d="M287.238,312.729c-0.11,0.606-0.355,1.122-1.159,2.335
					c-0.803,1.213-2.169,1.958-2.169,1.958l-6.462,5.514l-1.05,1.147c0,0-5.527-3.659-6.249-4.913
					c-0.721-1.253-1.76-3.492-1.76-3.492s-0.18-0.313-0.406-0.851"/>
				<path style="fill:none;stroke:#263238;stroke-miterlimit:10;" d="M266.415,321.629c0,0,5.476,8.57,6.174,9.711
					c0.699,1.141,3.015,3.354,3.015,3.354s5.664-2.552,6.113-2.643c0.448-0.091,7.235-2.288,7.615-2.715
					c0.38-0.427,0.38-0.427,0.38-0.427"/>
				<polyline style="fill:none;stroke:#263238;stroke-miterlimit:10;" points="263.727,329.642 266.573,336.18 268.291,340.614 
					269.328,342.27 271.739,346.096 				"/>
				<polyline style="fill:none;stroke:#263238;stroke-miterlimit:10;" points="271.506,357.576 280.464,354.005 286.571,349.614 
									"/>
				<path style="fill:none;stroke:#263238;stroke-miterlimit:10;" d="M269.696,366.461c0,0,4.164-1.897,4.88-2.392
					c0.716-0.496,1.969-1.217,1.969-1.217l2.06-0.769l1.947-1.329"/>
				<path style="fill:#263238;stroke:#263238;stroke-miterlimit:10;" d="M277.805,311.448c0,0-4.821,32.886-5.849,36.408
					c-1.028,3.522-6.776,29.274-7.741,31.388c-0.965,2.114-7.593,13.331-7.593,13.331l3.688,1.76l7.178-18.72l6.117-25.653
					C273.605,349.961,278.792,316.303,277.805,311.448z"/>
			</g>
			<path style="fill:#263238;stroke:#263238;stroke-miterlimit:10;" d="M254.395,391.789c0,0-8.438-3.443-18.56,2.132
				c-10.122,5.575-9.81,18.643-7.086,25.124c2.725,6.481,8.208,16.152,8.803,19.08s0.335,6.263-1.234,8.927
				c-1.569,2.664-5.393,4.614-3.096,4.381c2.298-0.233,4.588-2.809,5.573-4.885c0.985-2.076,2.374-4.469,5.302-5.064
				c2.927-0.595,13.469-1.8,21.48-5.071c8.011-3.27,13.179-7.838,14.237-15.323c1.058-7.484-0.404-13.519-3.884-16.797
				c-3.48-3.279-9.885-6.349-12.45-7.903c-2.564-1.554-5.095-2.942-5.095-2.942L254.395,391.789z"/>
			<g>
				<path style="fill:#92E3A9;stroke:#263238;stroke-miterlimit:10;" d="M257.332,383.665c0,0,3.475-2.988,5.988-3.619
					c2.513-0.631,8.23-2.634,8.754-4.782c0.524-2.148-1.286-5.142-1.338-7.172c-0.053-2.031,2.377-7.207,2.377-7.207
					s-2.72-6.291-2.954-7.444c-0.234-1.153-0.035-3.715-0.869-4.866c-0.835-1.151-1.133-0.85-1.438-2.349
					c-0.305-1.499-0.101-2.861-1.282-3.942c-1.18-1.081-2.663-3.061-3.011-3.59c-0.348-0.53,1.493-2.105-0.084-4.546
					c-1.577-2.441-2.386-2.877-3.312-3.889c-0.926-1.012-3.729-4.165-3.729-4.165l-3.236-1.743l-4.323-2.363l-3.142-1.282
					c0,0-1.315,0.027-2.632-0.546s-1.55-1.126-3.119-1.167c-1.569-0.041-4.472,1.63-4.472,1.63l-1.679,1.782l-2.14,1.876
					l-2.664,4.024l-0.825,8.933l0.412,6.16l1.495,5.58c0,0,6.451,3.972,6.846,4.732c0.395,0.76,0.516,2.537,0.175,4.407
					c-0.34,1.87-0.032,4.569,1.032,5.074c1.063,0.504,1.667,1.702,1.667,1.702s-2.486,1.946-2.179,4.045
					c0.307,2.099,1.348,3.088,1.512,3.895c0.164,0.807-1.612,0.928-1.1,2.265c0.512,1.337,1.853,2.025,1.993,2.717
					c0.141,0.692-1.579,4.043-0.395,6.324c1.184,2.281,4.321,1.763,5.288,1.206c0.967-0.557,7.65-3.717,7.65-3.717L257.332,383.665z
					"/>
				<path style="fill:#263238;stroke:#263238;stroke-miterlimit:10;" d="M256.622,392.574c0,0,1.643-13.182,1.694-18.836
					c0.051-5.654-3.924-22.256-5.943-25.688c-2.019-3.432-11.476-16.879-11.476-16.879l-3.314-4.489c0,0,9.509,14.877,11.619,18.17
					c2.11,3.293,3.894,5.572,4.508,9.77c0.613,4.198,3.231,14.712,3.259,16.028c0.027,1.315-0.904,13.272-1.246,14.542
					c-0.342,1.27-1.327,6.596-1.327,6.596L256.622,392.574z"/>
				<path style="fill:none;stroke:#263238;stroke-miterlimit:10;" d="M264.853,357.502c0.361-1.13,0.762-2.271,1.246-3.357"/>
				<path style="fill:none;stroke:#263238;stroke-miterlimit:10;" d="M258.467,370.346c-0.16,0.393,2.412-3.492,3.858-5.828
					c0.66-1.065,1.159-2.546,1.664-4.194"/>
				<path style="fill:none;stroke:#263238;stroke-miterlimit:10;" d="M256.388,362.484c0,0,2.944-3.24,2.567-5.685
					c-0.377-2.445,0.043-8.054,0.612-10.571c0.569-2.517,0.702-4.225,0.702-4.225"/>
				<path style="fill:none;stroke:#263238;stroke-miterlimit:10;" d="M243.294,345.919c-1.14-0.144-2.479-0.382-4.177-1.057
					c-3.396-1.351-2.795-0.753-3.396-1.351"/>
				<path style="fill:none;stroke:#263238;stroke-miterlimit:10;" d="M251.128,348.424c0,0-3.05-1.421-4.852-2.015
					c-0.271-0.089-0.545-0.156-0.827-0.21"/>
				<path style="fill:none;stroke:#263238;stroke-miterlimit:10;" d="M253.906,358.546c0,0-2.703-0.891-5.499-2.244
					c-2.797-1.352-4-2.549-4-2.549"/>
				<path style="fill:none;stroke:#263238;stroke-miterlimit:10;" d="M248.67,366.398c0.976,1.089,1.92,2.226,2.409,3.049
					c1.276,2.142,2.734,3.407,2.734,3.407l2.572,3.199"/>
				<path style="fill:none;stroke:#263238;stroke-miterlimit:10;" d="M245.451,363.026c0,0,0.892,0.877,1.987,2.036"/>
				<path style="fill:none;stroke:#263238;stroke-miterlimit:10;" d="M257.948,381.378c0,0,2.613-5.454,4.198-7.698
					c1.585-2.243,3.54-4.442,3.976-5.251"/>
				<path style="fill:none;stroke:#263238;stroke-miterlimit:10;" d="M255.298,382.517c0,0-2.464-5.623-4.035-6.264
					c-1.571-0.641-6.211-1.019-7.209-2.977"/>
				<path style="fill:none;stroke:#263238;stroke-miterlimit:10;" d="M253.975,351.207c0,0,1.603-3.928,1.318-6.512
					c-0.285-2.584-0.318-5.699-0.318-5.699l-0.033-3.115l0.178-2.077"/>
			</g>
			<g>
				<path style="fill:#92E3A9;stroke:#263238;stroke-miterlimit:10;" d="M273.317,381.376c0,0-0.312-3.899,0.69-7.825
					c1.003-3.926,4.509-4.399,5.797-5.741c1.288-1.343,1.446-2.335,2.293-4.669c0.846-2.333,3.287-3.91,4.022-5.02
					c0.735-1.11,0.422-5.009,2.092-9.791c1.669-4.782,10.157-6.147,11.519-5.944c1.362,0.203,6.23-0.066,8.879-1.805
					c2.648-1.739,10.517-2.018,12.598-0.64c2.081,1.378,5.157,3.514,4.495,5.57c-0.663,2.056-1.904,3.629-1.904,3.629
					s-0.149,3.993-1.574,5.843c-1.425,1.851-4.435,5.945-5.793,6.941c-1.358,0.997-6.655,4.475-6.655,4.475l-2.67,2.224
					l-0.499,2.863l-7.677,2.401l-3.731,2.319l-2.048,1.737l-1.382,0.881l-0.596,1.202c0,0,0.375,1.845-0.131,2.308
					c-0.506,0.463-0.391,0.44-1.081,1.18c-0.69,0.741-4.63,2.622-4.63,2.622l-1.753,0.236l-2.511,1.231c0,0-1.958,0.998-3.047-0.221
					c-1.088-1.22-2.245-2.185-2.245-2.185L273.317,381.376z"/>
				<path style="fill:none;stroke:#263238;stroke-miterlimit:10;" d="M291.508,356.142c0.649-2.216,1.051-4.734,1.051-4.734
					l0.821-3.049"/>
				<path style="fill:none;stroke:#263238;stroke-miterlimit:10;" d="M289.398,365.979c0,0,0.449-4.376,1.189-7.092"/>
				<path style="fill:none;stroke:#263238;stroke-miterlimit:10;" d="M302.205,347.864c1.93-2.219,3.095-2.889,3.095-2.889"/>
				<path style="fill:none;stroke:#263238;stroke-miterlimit:10;" d="M297.341,360.161c0,0,1.415-4.85,1.804-5.89
					c0.342-0.915-0.387-1.612,1.187-4.004"/>
				<line style="fill:none;stroke:#263238;stroke-miterlimit:10;" x1="313.461" y1="356.764" x2="316.642" y2="355.877"/>
				<path style="fill:none;stroke:#263238;stroke-miterlimit:10;" d="M310.35,343.828c0,0-2.934,6.24-3.6,7.096
					c-0.667,0.856-1.306,3.027-1.581,3.443c-0.276,0.416-0.803,1.364-0.803,1.364s3.854,0.057,4.686,0.608
					c0.208,0.138,0.509,0.249,0.842,0.339"/>
				<line style="fill:none;stroke:#263238;stroke-miterlimit:10;" x1="297.726" y1="369.989" x2="300.672" y2="370.05"/>
				<path style="fill:none;stroke:#263238;stroke-miterlimit:10;" d="M302.629,366.114c-0.77,0.092-1.419,0.191-1.737,0.29
					c-1.13,0.35-2.052,0.537-2.052,0.537l-3.232-0.543l-4.131-0.241c0,0-4.188,3.613-4.488,3.914
					c-0.299,0.301,3.948,0.518,3.948,0.518l4.231-0.55"/>
				<path style="fill:none;stroke:#263238;stroke-miterlimit:10;" d="M307.351,365.691c0,0-1.065,0.073-2.344,0.184"/>
				<path style="fill:none;stroke:#263238;stroke-miterlimit:10;" d="M287.707,378.357c-1.009,0.259-1.822,0.464-1.822,0.464
					s-2.445,0.377-3.461,0.103c-1.016-0.274-0.647-0.229-1.987-0.917c-1.341-0.688-1.341-0.688-1.341-0.688s1.181-6.004,1.318-6.512
					c0.137-0.508,0.297-0.901,0.319-1.386"/>
				<path style="fill:none;stroke:#263238;stroke-miterlimit:10;" d="M291.465,377.326c-0.195,0.082-0.944,0.291-1.833,0.529"/>
				<path style="fill:none;stroke:#263238;stroke-miterlimit:10;" d="M285.815,364.796c-0.513,1.83-1.057,3.744-1.138,3.944
					c-0.16,0.393-0.295,1.501-0.34,1.87c-0.045,0.369-0.295,1.501-0.295,1.501s3.606,1.789,6.975,1.824
					c3.369,0.035,4.614-0.338,4.614-0.338"/>
				<path style="fill:none;stroke:#263238;stroke-miterlimit:10;" d="M286.776,361.349c0,0-0.264,0.954-0.606,2.178"/>
				<path style="fill:#263238;stroke:#263238;stroke-miterlimit:10;" d="M258.387,393.448c0,0,14.853-12.013,19.126-16.514
					c4.273-4.501,12.891-12.306,16.607-14.445c3.716-2.139,15.655-10.62,16.319-10.755c0.664-0.135,7.567-3.614,7.567-3.614
					s-17.414,11.323-22.653,15.329c-5.239,4.005-14.152,12.908-16.173,14.876c-2.021,1.967-10.073,10.004-11.697,11.372
					c-1.624,1.368-4.001,6.694-4.001,6.694L258.387,393.448z"/>
			</g>
			<g>
				<path style="fill:#92E3A9;stroke:#263238;stroke-miterlimit:10;" d="M273.033,393.561c0,0,7.775-7.825,8.854-9.605
					c1.079-1.78,12.09-7.861,17.302-8.801c5.212-0.94,10.618,0.843,10.618,0.843l6.346-0.089c0,0,4.325,2.963,4.7,4.808
					c0.375,1.845,0.846,4.751,0.846,4.751s-0.18,1.477-2.117,1.991c-1.937,0.514-4.245,0.383-4.245,0.383s-0.322,0.186-4.776,0.131
					c-4.454-0.055-5.838,0.226-5.838,0.226l-3.158,1.002l-4.288,1.352l-1.128,0.95c0,0,1.478,0.18-2.074,1.022
					c-3.551,0.842-4.173,1.329-4.173,1.329s-0.932,4.272-2.94,4.44c-2.007,0.168-4.43,0.06-4.43,0.06l-1.687-0.618
					c0,0-0.694-0.459-0.905-1.497c-0.211-1.038,0.342-1.27-0.307-2.099c-0.649-0.829-2.335-1.446-2.335-1.446l-5.691,2.718
					L273.033,393.561z"/>
				<path style="fill:#263238;stroke:#263238;stroke-miterlimit:10;" d="M266.412,398.043c0,0,9.287-6.212,12.541-7.219
					c3.254-1.008,16.44-4.207,18.765-4.68c2.325-0.473,18.418-0.866,18.418-0.866s-14.257,1.338-17.323,2.201
					c-3.066,0.864-13.374,3.319-16.694,4.115c-3.32,0.795-4.841,1.585-8.251,3.118c-3.41,1.534-5.039,4.747-5.039,4.747
					L266.412,398.043z"/>
				<path style="fill:none;stroke:#263238;stroke-miterlimit:10;" d="M290.552,387.598c0,0,0.917-1.988,1.468-2.82
					c0.551-0.832,4.853-5.069,4.853-5.069l2.715-2.593"/>
				<path style="fill:none;stroke:#263238;stroke-miterlimit:10;" d="M299.247,386.07l1.699-2.867c0,0,2.046-2.337,2.298-2.869
					c0.252-0.531,0.297-0.901,0.711-1.225"/>
				<polyline style="fill:none;stroke:#263238;stroke-miterlimit:10;" points="309.214,385.484 310.983,382.963 312.04,381.668 
					313.029,380.626 314.366,380.114 				"/>
				<path style="fill:none;stroke:#263238;stroke-miterlimit:10;" d="M280.989,391.943c0,0,1.64,0.387,2.032,0.547
					c0.393,0.16,0.717,0.575,1.317,0.573c0.6-0.002,1.339,0.088,1.339,0.088l1.915-0.029l0.784-0.279l1.821-0.49"/>
			</g>
		</g>
	</g>
</g>
<g id="Basket">
	<g>
		<g>
			
				<rect x="322.605" y="264.351" transform="matrix(0.9197 -0.3926 0.3926 0.9197 -94.3664 153.6109)" style="fill:#263238;stroke:#263238;stroke-linecap:round;stroke-linejoin:round;stroke-miterlimit:10;" width="11.485" height="86.302"/>
			
				<rect x="275.68" y="264.351" transform="matrix(-0.9197 -0.3926 0.3926 -0.9197 419.5161 700.8038)" style="fill:#263238;stroke:#263238;stroke-linecap:round;stroke-linejoin:round;stroke-miterlimit:10;" width="11.485" height="86.302"/>
		</g>
		<path style="fill:#92E3A9;stroke:#263238;stroke-linecap:round;stroke-linejoin:round;stroke-miterlimit:10;" d="M186.747,370.834
			l21.494,89.831c1.251,5.23,5.927,8.919,11.305,8.919h170.68c5.378,0,10.053-3.689,11.304-8.919l21.494-89.831H186.747z
			 M407.886,377.161l-9.358,39.112h-7.822l8.357-39.112H407.886z M386.373,377.161l-7.231,39.112h-13.391l5.927-39.112H386.373z
			 M358.987,377.161l-4.801,39.112h-13.391l3.497-39.112H358.987z M331.602,377.161l-2.371,39.112h-11.771l1.225-39.112H331.602z
			 M290.417,377.161l1.284,39.112h-11.162l-2.371-39.112H290.417z M265.477,377.161l3.497,39.112h-13.39l-4.801-39.112H265.477z
			 M238.092,377.161l5.927,39.112h-13.391l-7.231-39.112H238.092z M210.707,377.161l8.357,39.112h-7.822l-9.358-39.112H210.707z
			 M220.624,455.481l-6.502-27.175h7.514l7.445,34.846C225,462.585,221.605,459.58,220.624,455.481z M239.315,463.258l-6.462-34.951
			h12.989l5.296,34.951H239.315z M261.351,463.258l-4.29-34.951h12.989l3.125,34.951H261.351z M283.387,463.258l-2.119-34.951
			h10.828l1.147,34.951H283.387z M315.99,463.258l1.094-34.951h11.418l-2.119,34.951H315.99z M336.595,463.258l3.125-34.951h12.989
			l-4.29,34.951H336.595z M358.631,463.258l5.296-34.951h12.989l-6.462,34.951H358.631z M389.146,455.481
			c-0.981,4.099-4.376,7.103-8.457,7.671l7.445-34.846h7.514L389.146,455.481z"/>
		<path style="fill:#92E3A9;stroke:#263238;stroke-linecap:round;stroke-linejoin:round;stroke-miterlimit:10;" d="M424.462,371.55
			H185.309c-3.57,0-6.464-2.894-6.464-6.464v-12.132c0-3.57,2.894-6.464,6.464-6.464h239.153c3.57,0,6.464,2.894,6.464,6.464v12.132
			C430.926,368.656,428.032,371.55,424.462,371.55z"/>
		
			<rect x="170.325" y="342.911" style="fill:#92E3A9;stroke:#263238;stroke-linecap:round;stroke-linejoin:round;stroke-miterlimit:10;" width="269.121" height="5.728"/>
		<path style="fill:#263238;stroke:#263238;stroke-linecap:round;stroke-linejoin:round;stroke-miterlimit:10;" d="M352.725,356.253
			c0-3.116-2.525-5.641-5.641-5.641c-3.115,0-5.641,2.526-5.641,5.641c0,3.115,2.525,5.641,5.641,5.641
			C350.2,361.894,352.725,359.368,352.725,356.253z"/>
		<path style="fill:#263238;stroke:#263238;stroke-linecap:round;stroke-linejoin:round;stroke-miterlimit:10;" d="M268.112,356.253
			c0-3.116-2.526-5.641-5.641-5.641c-3.115,0-5.641,2.526-5.641,5.641c0,3.115,2.525,5.641,5.641,5.641
			C265.586,361.894,268.112,359.368,268.112,356.253z"/>
	</g>
</g>
<g id="Milk">
	<g>
		<g>
			<path style="fill:#FFFFFF;stroke:#263238;stroke-linecap:round;stroke-linejoin:round;stroke-miterlimit:10;" d="M478.043,308.1
				c-5.148-7.355-19.521-17.167-24.079-20.175H427.01c-7.69,5.213-29.344,20.429-31.149,27.646c-2.197,8.789,0,147.225,0,147.225
				s2.637,6.153,5.713,6.592c3.076,0.439,78.227,0,78.227,0s4.834-0.879,5.274-10.548c0.439-9.668,0-89.214,0-89.214
				S484.196,316.89,478.043,308.1z M475.406,365.892c0,4.49-3.64,8.13-8.13,8.13s-8.13-3.64-8.13-8.13v-44.827
				c0-4.49,3.64-8.131,8.13-8.131s8.13,3.64,8.13,8.131V365.892z"/>
			
				<rect x="425.698" y="278.18" style="fill:#FFFFFF;stroke:#263238;stroke-linecap:round;stroke-linejoin:round;stroke-miterlimit:10;" width="29.236" height="10.72"/>
			
				<line style="fill:none;stroke:#263238;stroke-linecap:round;stroke-linejoin:round;stroke-miterlimit:10;" x1="457.827" y1="322.359" x2="457.827" y2="314.693"/>
			<path style="fill:none;stroke:#263238;stroke-linecap:round;stroke-linejoin:round;stroke-miterlimit:10;" d="M472.56,383.012
				c-2.173,0.767-4.625,0.623-7.262-0.201c-7.032-2.197-7.471-13.624-7.471-13.624v-43.633"/>
			<path style="fill:none;stroke:#263238;stroke-linecap:round;stroke-linejoin:round;stroke-miterlimit:10;" d="M480.68,370.506
				c-1.234,5.553-3.142,9.085-5.543,11.046"/>
			<path style="fill:#263238;stroke:#263238;stroke-linecap:round;stroke-linejoin:round;stroke-miterlimit:10;" d="
				M456.901,284.884H423.94v-15.792c0-0.744,0.603-1.347,1.347-1.347h30.267c0.744,0,1.347,0.603,1.347,1.347V284.884z"/>
		</g>
		<rect x="397.744" y="353.522" style="fill:#92E3A9;" width="47.484" height="76.91"/>
	</g>
</g>
<g id="Eggs">
	<g>
		<path style="fill:#828282;stroke:#263238;stroke-linecap:round;stroke-linejoin:round;stroke-miterlimit:10;" d="M309.814,434.114
			c0,0,5.845-8.214,7.898-7.898c2.053,0.316,7.266,7.582,7.266,7.582L309.814,434.114z"/>
		<path style="fill:#828282;stroke:#263238;stroke-linecap:round;stroke-linejoin:round;stroke-miterlimit:10;" d="M364.313,434.114
			c0,0,5.845-8.214,7.898-7.898c2.053,0.316,7.266,7.582,7.266,7.582L364.313,434.114z"/>
		<path style="fill:#828282;stroke:#263238;stroke-linecap:round;stroke-linejoin:round;stroke-miterlimit:10;" d="M418.811,434.114
			c0,0,5.845-8.214,7.898-7.898c2.053,0.316,7.266,7.582,7.266,7.582L418.811,434.114z"/>
		
			<rect x="281.714" y="436.413" style="fill:#828282;stroke:#263238;stroke-linecap:round;stroke-linejoin:round;stroke-miterlimit:10;" width="176.26" height="33.165"/>
		<path style="fill:#FFFFFF;stroke:#263238;stroke-linecap:round;stroke-linejoin:round;stroke-miterlimit:10;" d="M415.083,438.114
			c0,10.275-6.617,18.604-14.779,18.604c-8.162,0-14.779-8.329-14.779-18.604c0-10.274,6.616-25.906,14.779-25.906
			C408.466,412.208,415.083,427.84,415.083,438.114z"/>
		<polygon style="fill:#BDBDBD;stroke:#263238;stroke-linecap:round;stroke-linejoin:round;stroke-miterlimit:10;" points="
			417.708,469.584 382.901,469.584 375.442,434.463 425.167,434.463 		"/>
		<polygon style="fill:#BDBDBD;stroke:#263238;stroke-linecap:round;stroke-linejoin:round;stroke-miterlimit:10;" points="
			411.699,469.584 388.91,469.584 384.027,434.463 416.582,434.463 		"/>
		
			<rect x="367.68" y="433.42" style="fill:#BDBDBD;stroke:#263238;stroke-linecap:round;stroke-linejoin:round;stroke-miterlimit:10;" width="60.096" height="4.694"/>
		<path style="fill:#FFFFFF;stroke:#263238;stroke-linecap:round;stroke-linejoin:round;stroke-miterlimit:10;" d="M470.638,438.114
			c0,10.275-6.617,18.604-14.779,18.604c-8.162,0-14.779-8.329-14.779-18.604c0-10.274,6.617-25.906,14.779-25.906
			C464.022,412.208,470.638,427.84,470.638,438.114z"/>
		<polygon style="fill:#BDBDBD;stroke:#263238;stroke-linecap:round;stroke-linejoin:round;stroke-miterlimit:10;" points="
			473.264,469.584 438.456,469.584 430.997,434.463 480.723,434.463 		"/>
		<polygon style="fill:#BDBDBD;stroke:#263238;stroke-linecap:round;stroke-linejoin:round;stroke-miterlimit:10;" points="
			467.905,469.584 443.814,469.584 438.652,434.463 473.068,434.463 		"/>
		
			<rect x="427.808" y="433.42" style="fill:#BDBDBD;stroke:#263238;stroke-linecap:round;stroke-linejoin:round;stroke-miterlimit:10;" width="55.523" height="4.694"/>
		<path style="fill:#FFFFFF;stroke:#263238;stroke-linecap:round;stroke-linejoin:round;stroke-miterlimit:10;" d="M359.079,438.114
			c0,10.275-6.617,18.604-14.778,18.604c-8.162,0-14.779-8.329-14.779-18.604c0-10.274,6.617-25.906,14.779-25.906
			C352.462,412.208,359.079,427.84,359.079,438.114z"/>
		<polygon style="fill:#BDBDBD;stroke:#263238;stroke-linecap:round;stroke-linejoin:round;stroke-miterlimit:10;" points="
			361.704,469.584 326.896,469.584 319.438,434.463 369.163,434.463 		"/>
		<polygon style="fill:#BDBDBD;stroke:#263238;stroke-linecap:round;stroke-linejoin:round;stroke-miterlimit:10;" points="
			356.346,469.584 332.255,469.584 327.093,434.463 361.508,434.463 		"/>
		
			<rect x="316.249" y="433.42" style="fill:#BDBDBD;stroke:#263238;stroke-linecap:round;stroke-linejoin:round;stroke-miterlimit:10;" width="55.523" height="4.694"/>
		<path style="fill:#FFFFFF;stroke:#263238;stroke-linecap:round;stroke-linejoin:round;stroke-miterlimit:10;" d="M304.711,438.114
			c0,10.275-6.617,18.604-14.779,18.604s-14.779-8.329-14.779-18.604c0-10.274,6.617-25.906,14.779-25.906
			S304.711,427.84,304.711,438.114z"/>
		<polygon style="fill:#BDBDBD;stroke:#263238;stroke-linecap:round;stroke-linejoin:round;stroke-miterlimit:10;" points="
			307.337,469.584 272.529,469.584 265.07,434.463 314.796,434.463 		"/>
		<polygon style="fill:#BDBDBD;stroke:#263238;stroke-linecap:round;stroke-linejoin:round;stroke-miterlimit:10;" points="
			301.978,469.584 277.887,469.584 272.725,434.463 307.141,434.463 		"/>
		
			<rect x="261.881" y="433.42" style="fill:#BDBDBD;stroke:#263238;stroke-linecap:round;stroke-linejoin:round;stroke-miterlimit:10;" width="55.523" height="4.694"/>
	</g>
</g>
<g id="Clouds">
	<g>
		<path style="fill:#FFFFFF;stroke:#263238;stroke-linecap:round;stroke-linejoin:round;stroke-miterlimit:10;" d="M198.286,47.449
			c-2.179,0.383-4.339-0.755-5.398-2.698c-2.666-4.887-13.469-22.075-34.095-23.221c-24.063-1.337-25.845,20.943-32.975,25.4
			c-7.13,4.456-9.803-4.902-23.617-6.684C88.387,38.464,86.605,53.169,83.04,54.506c-3.565,1.337-11.14-8.021-19.607-6.238
			c-8.466,1.782-7.575,10.249-11.14,11.14c-3.565,0.891-8.912-2.674-12.477-1.337c-3.565,1.337-5.347,6.684-5.347,6.684h184.926
			c0,0-2.324-12.961-7.498-16.773C206.231,43.807,201.984,46.8,198.286,47.449z"/>
		<path style="fill:#FFFFFF;stroke:#263238;stroke-linecap:round;stroke-linejoin:round;stroke-miterlimit:10;" d="M201.244,56.083
			c-1.092,0.192-2.174-0.378-2.705-1.352c-1.336-2.449-6.749-11.062-17.085-11.636c-12.058-0.67-12.951,10.495-16.524,12.728
			c-3.573,2.233-4.912-2.456-11.835-3.349c-6.922-0.893-7.815,6.476-9.602,7.145c-1.786,0.67-5.582-4.019-9.825-3.126
			c-4.243,0.893-3.796,5.136-5.582,5.582c-1.786,0.447-4.466-1.34-6.252-0.67c-1.786,0.67-2.68,3.349-2.68,3.349h92.667
			c0,0-1.165-6.495-3.757-8.405C205.226,54.257,203.098,55.757,201.244,56.083z"/>
	</g>
	<g>
		<path style="fill:#FFFFFF;stroke:#263238;stroke-linecap:round;stroke-linejoin:round;stroke-miterlimit:10;" d="M468.64,126.449
			c-1.67,0.293-3.324-0.578-4.135-2.066c-2.042-3.744-10.318-16.911-26.118-17.789c-18.433-1.024-19.799,16.044-25.261,19.457
			c-5.462,3.414-7.51-3.755-18.092-5.12c-10.582-1.365-11.948,9.899-14.678,10.924c-2.731,1.024-8.534-6.145-15.02-4.779
			c-6.486,1.365-5.803,7.851-8.534,8.534c-2.731,0.683-6.827-2.048-9.558-1.024c-2.731,1.024-4.096,5.12-4.096,5.12h141.663
			c0,0-1.781-9.929-5.744-12.849C474.727,123.658,471.473,125.951,468.64,126.449z"/>
		<path style="fill:#FFFFFF;stroke:#263238;stroke-linecap:round;stroke-linejoin:round;stroke-miterlimit:10;" d="M470.906,133.062
			c-0.837,0.147-1.665-0.29-2.072-1.036c-1.023-1.876-5.171-8.474-13.088-8.914c-9.237-0.513-9.921,8.04-12.658,9.75
			c-2.737,1.71-3.763-1.882-9.066-2.566c-5.303-0.684-5.987,4.961-7.355,5.474c-1.368,0.513-4.276-3.079-7.526-2.395
			c-3.25,0.684-2.908,3.934-4.276,4.276c-1.368,0.342-3.421-1.026-4.79-0.513c-1.368,0.513-2.053,2.566-2.053,2.566h70.988
			c0,0-0.892-4.975-2.878-6.439C473.956,131.664,472.326,132.813,470.906,133.062z"/>
	</g>
</g>
<g id="Character">
	<g>
		<path style="fill:#92E3A9;stroke:#263238;stroke-linecap:round;stroke-linejoin:round;stroke-miterlimit:10;" d="M85.7,252.745
			l11.618,15.946l11.39,14.123c0,0-1.822,4.1-5.695,6.378c-3.872,2.278-16.857,1.595-16.857,1.595L85.7,252.745z"/>
		<path style="fill:#92E3A9;stroke:#263238;stroke-linecap:round;stroke-linejoin:round;stroke-miterlimit:10;" d="M101.19,264.362
			l-3.873,2.05c0,0-2.278,6.606-1.139,8.884c1.139,2.278,7.062,8.428,8.656,8.428s4.556-0.228,5.467-3.417
			c0.911-3.189,1.594-8.201,0.911-9.568c-0.683-1.367-5.923-4.784-5.923-4.784L101.19,264.362z"/>
		<path style="fill:#263238;stroke:#263238;stroke-linecap:round;stroke-linejoin:round;stroke-miterlimit:10;" d="M43.557,309.239
			c0,0-6.075,14.971-4.708,24.083c1.367,9.112,4.708,24.438,3.797,32.183c-0.911,7.745-0.683,25.058-0.683,25.058l1.822,59.911
			l-1.367,2.506l-0.228,15.49c0,0,14.807,4.556,21.641,5.239c6.834,0.683,14.123,0.228,14.351-2.278
			c0.228-2.506-2.734-5.695-4.328-7.062c-1.594-1.367-10.023-9.568-10.023-9.568s-0.456-3.872-0.228-4.556
			c0.228-0.683-1.822-5.239-2.278-6.834c-0.456-1.595,2.734-41.231,2.734-41.231l3.873-45.332L81.6,450.245
			c0,0-2.961,3.417-2.734,4.556c0.228,1.139,2.05,14.807,2.05,14.807s2.278,1.367,5.467,1.139c3.189-0.228,8.201,0.228,14.123,0.911
			c5.923,0.683,11.618-1.139,14.351-1.822c2.734-0.683,1.367-3.873-0.228-4.556c-1.595-0.683-12.301-6.606-13.896-7.289
			c-1.595-0.683-3.873-2.961-4.1-4.328c-0.228-1.367-1.822-65.834-1.822-65.834l-6.834-61.733l-0.228-10.934L43.557,309.239z"/>
		<path style="fill:#92E3A9;stroke:#263238;stroke-linecap:round;stroke-linejoin:round;stroke-miterlimit:10;" d="M58.592,236.571
			c0,0-12.529,4.328-16.857,13.212c-4.328,8.884-0.683,55.127-0.911,57.633c-0.228,2.506,1.139,2.506,4.784,4.328
			c3.645,1.822,34.625,7.29,39.637,5.923c5.012-1.367,5.239-4.1,5.467-7.062c0.228-2.961,0.911-27.564,1.367-30.069
			c0.456-2.506-0.683-21.869-4.556-28.247c-3.873-6.378-8.772-10.333-8.772-10.333L58.592,236.571z"/>
		<g>
			<path style="fill:#BFBFBF;stroke:#263238;stroke-linecap:round;stroke-linejoin:round;stroke-miterlimit:10;" d="M80.538,245.512
				l-17.136-13.113l2.682-6.258c0,0,0.298-2.831,0.447-6.854s1.341-10.133,3.427-12.815c2.086-2.682,9.984-4.768,9.984-4.768
				s8.494-1.788,13.262,2.98c4.768,4.768,6.854,10.58,7.153,15.199c0.298,4.619-2.086,6.109-2.086,7.6
				c0,1.49,0.894,6.109-0.745,7.004c-1.639,0.894-3.129,0.894-3.129,0.894s-2.086,5.811-5.662,7.749
				c-3.576,1.937-4.917,1.937-5.812,1.639c-0.894-0.298-1.49-1.043-1.49-1.043L80.538,245.512z"/>
			
				<line style="fill:none;stroke:#263238;stroke-linecap:round;stroke-linejoin:round;stroke-miterlimit:10;" x1="89.726" y1="236.642" x2="92.805" y2="237.098"/>
			<path style="fill:none;stroke:#263238;stroke-linecap:round;stroke-linejoin:round;stroke-miterlimit:10;" d="M97.685,223.318
				c0,0-1.08-1.62-2.565-1.89c-1.485-0.27-2.43-0.27-2.43-0.27"/>
			<path style="fill:none;stroke:#263238;stroke-linecap:round;stroke-linejoin:round;stroke-miterlimit:10;" d="M91.476,225.208
				c0,0,1.35,2.025,2.969,1.62"/>
			<path style="fill:#263238;stroke:#263238;stroke-linecap:round;stroke-linejoin:round;stroke-miterlimit:10;" d="M91.88,204.151
				l0.662-0.047c-4.85-4.02-12.601-2.401-12.601-2.401s-7.898,2.086-9.984,4.768c-2.086,2.682-3.278,8.792-3.427,12.815
				c-0.069,1.872-0.171,3.48-0.26,4.671c0.484,0.087,0.941,0.104,1.313,0.037c1.485-0.27,3.645-3.374,3.645-3.374s0,0-0.135-2.16
				c-0.135-2.16,2.835-4.859,4.859-5.129c2.025-0.27,2.025,2.295,2.7,3.644c0.675,1.35,1.89,1.89,2.97,2.025
				c1.08,0.135,1.215-0.675,1.89-1.755c0.675-1.08,5.264-3.914,6.614-6.209c1.35-2.295-0.81-4.589-1.35-6.344
				C88.236,202.936,91.88,204.151,91.88,204.151z"/>
			<path style="fill:none;stroke:#263238;stroke-linecap:round;stroke-linejoin:round;stroke-miterlimit:10;" d="M71.228,220.619
				c0,0,0,2.295,0.945,3.509c0.945,1.215,2.97,0.945,3.374,0.54"/>
			<path style="fill:none;stroke:#263238;stroke-linecap:round;stroke-linejoin:round;stroke-miterlimit:10;" d="M81.432,243.724
				c0,0-2.105-2.183-3.319-5.153c-1.215-2.97-1.08-5.129-1.08-5.129"/>
		</g>
		<g>
			<path style="fill:#BFBFBF;stroke:#263238;stroke-linecap:round;stroke-linejoin:round;stroke-miterlimit:10;" d="M97.376,238.211
				c0,0-0.149,5.215,0.894,6.854c1.043,1.639,2.98,4.023,2.98,4.023l-1.341,19.52c0,0,4.023,5.812,6.109,6.706
				c2.086,0.894,2.405-1.65,3.725-4.172c0.801-1.53,1.467-10.208-2.533-22.501c-0.599-1.842,0.149-4.768,0.149-4.768
				s-0.149-4.172-0.298-6.408s-0.745-5.364-0.745-5.364l-9.09,0.745L97.376,238.211"/>
			<path style="fill:#BFBFBF;stroke:#263238;stroke-linecap:round;stroke-linejoin:round;stroke-miterlimit:10;" d="
				M103.187,243.426l-1.043-0.745c0,0-0.298,1.639-1.937,1.639c-1.639,0-1.49-1.639-2.086-2.533
				c-0.596-0.894-1.49-8.792-1.341-9.984c0.149-1.192,3.874-1.788,3.874-1.788s-2.533-1.192-3.874-1.788
				c-1.341-0.596-1.639-1.043-1.49-2.235c0.149-1.192,4.619,0.149,4.619,0.149s3.874,1.341,5.513,2.98
				c1.639,1.639,1.639,3.427,1.788,7.004c0.084,2.025,0.149,7.749,0.149,7.749"/>
			<path style="fill:none;stroke:#263238;stroke-linecap:round;stroke-linejoin:round;stroke-miterlimit:10;" d="M100.654,230.015
				c0,0,2.041-0.05,2.979,0.575"/>
			<path style="fill:none;stroke:#263238;stroke-linecap:round;stroke-linejoin:round;stroke-miterlimit:10;" d="M97.525,234.485
				c0,0,2.086-1.788,5.812-0.596"/>
			<path style="fill:none;stroke:#263238;stroke-linecap:round;stroke-linejoin:round;stroke-miterlimit:10;" d="M97.642,238.915
				c0,0,1.075-1.284,2.118-1.433c1.043-0.149,2.384-0.149,2.384-0.149"/>
		</g>
		<path style="fill:#92E3A9;stroke:#263238;stroke-linecap:round;stroke-linejoin:round;stroke-miterlimit:10;" d="M57.473,229.42
			l-0.805,6.786L77.6,248.167l1.15-6.211C78.751,241.956,60.348,229.305,57.473,229.42z"/>
		<path style="fill:#BFBFBF;stroke:#263238;stroke-linecap:round;stroke-linejoin:round;stroke-miterlimit:10;" d="M80.461,293.293
			c0,0,2.506-1.139,3.189-2.961c0.683-1.822,3.645-2.05,4.556-2.278c0.911-0.228,4.556-3.645,5.695-2.961s0.683,2.278-0.456,3.417
			c-1.139,1.139-3.189,2.05-3.189,2.05s10.934,2.05,11.39,2.733c0.456,0.683-1.822,3.873-2.506,4.1
			c-0.683,0.228-1.822,0.456-3.189,1.367c-1.367,0.911-4.1,2.278-6.378,2.734c-2.278,0.456-6.151,0.456-6.151,0.456l-4.784,0.456
			c0,0-20.957,2.961-29.614,4.1s-16.401-1.595-19.363-4.328c-2.961-2.734-3.645-5.695-3.645-5.695s7.517-4.328,18.68-4.328
			C55.858,292.154,80.461,293.293,80.461,293.293z"/>
		<g>
			<path style="fill:#92E3A9;stroke:#263238;stroke-linecap:round;stroke-linejoin:round;stroke-miterlimit:10;" d="M55.631,242.722
				c0,0-11.162,5.012-13.896,7.062c-2.734,2.05-15.49,35.536-16.174,38.953c-0.683,3.417-1.822,4.784-0.683,5.239
				c1.139,0.456,1.139,2.506,1.139,2.506l18.907-8.656l19.818-24.83"/>
			
				<line style="fill:none;stroke:#263238;stroke-linecap:round;stroke-linejoin:round;stroke-miterlimit:10;" x1="44.924" y1="287.826" x2="31.077" y2="285.245"/>
			
				<line style="fill:none;stroke:#263238;stroke-linecap:round;stroke-linejoin:round;stroke-miterlimit:10;" x1="31.869" y1="281.285" x2="41.903" y2="284.981"/>
			<path style="fill:#92E3A9;stroke:#263238;stroke-linecap:round;stroke-linejoin:round;stroke-miterlimit:10;" d="M47.43,291.926
				c0,0-1.139-3.645-2.506-4.1c-1.367-0.456-18.907,5.011-20.046,6.15c-1.139,1.139,0.911,7.29,3.189,8.884
				c2.278,1.595,5.012,1.367,5.012,1.367L47.43,291.926z"/>
		</g>
		<path style="fill:none;stroke:#263238;stroke-linecap:round;stroke-linejoin:round;stroke-miterlimit:10;" d="M52.897,280.308
			c0,0,14.579-8.884,18.452-12.073"/>
		<path style="fill:none;stroke:#263238;stroke-linecap:round;stroke-linejoin:round;stroke-miterlimit:10;" d="M71.713,272.384
			c-3.455,1.759-7.634,3.954-9.021,4.963"/>
		<path style="fill:none;stroke:#263238;stroke-linecap:round;stroke-linejoin:round;stroke-miterlimit:10;" d="M76.816,269.83
			c0,0-1.289,0.632-3.101,1.542"/>
		<g>
			<path style="fill:#263238;stroke:#263238;stroke-linecap:round;stroke-linejoin:round;stroke-miterlimit:10;" d="
				M101.646,293.293l7.181,0.294c0,0-3.101-3.003-5.425-3.519c-2.323-0.516-6.711-0.086-7.228,0.086
				c-0.516,0.172-3.184,0.688-3.184,0.688L101.646,293.293z"/>
			<path style="fill:#FFFFFF;stroke:#263238;stroke-linecap:round;stroke-linejoin:round;stroke-miterlimit:10;" d="M92.991,290.842
				c0,0,7.942-1.826,10.85-0.164c2.908,1.662,7.894,18.074,8.933,25.553c1.039,7.479-5.401,36.148-5.194,44.25
				c0.208,8.102,7.479,56.091,9.556,63.778c2.078,7.687-2.493,29.708-2.493,29.708s1.039,10.387,3.947,13.296
				c2.908,2.909,8.31,4.57,8.31,4.57h8.725c0,0-8.725-10.387-10.387-13.711c-1.662-3.324-1.662-6.44-0.208-14.127
				c1.454-7.687,3.947-14.542,3.324-18.697c-0.623-4.155-13.504-56.507-13.296-63.155c0.208-6.648,0.831-3.324,2.285-15.165
				s3.947-22.437,3.532-28.877c-0.415-6.44,0.208-9.141-0.831-12.049c-1.039-2.908-4.57-12.673-6.648-14.127
				C111.32,290.47,100.47,287.725,92.991,290.842z"/>
			<path style="fill:#263238;stroke:#263238;stroke-linecap:round;stroke-linejoin:round;stroke-miterlimit:10;" d="
				M126.901,471.832c0,0,16.991-16.048,21.473-17.169c4.482-1.12,13.32,1.867,13.32,1.867s-10.208-0.125-12.698,2.863
				c-2.49,2.988-13.37,12.438-13.37,12.438H126.901z"/>
			<path style="fill:#FFFFFF;stroke:#263238;stroke-linecap:round;stroke-linejoin:round;stroke-miterlimit:10;" d="
				M151.237,454.415c0,0,11.328,16.806,13.569,18.673c2.241,1.867,4.233,2.49,7.096,2.49c2.863,0,6.224-0.747,6.224-0.747
				s16.681-3.859,22.283-1.992c5.602,1.867,11.826,5.727,16.681,5.229c4.855-0.498,10.208-2.863,13.943-2.988
				c3.735-0.125,10.083,3.112,10.083,3.112l3.61-2.739c0,0-4.357-3.486-11.453-3.486s-12.324,3.735-19.296,1.992
				c-6.971-1.743-12.698-6.971-18.424-6.473c-5.727,0.498-22.781,4.855-26.142,3.237c-3.361-1.618-8.216-14.192-8.216-14.192
				S153.851,453.792,151.237,454.415z"/>
		</g>
	</g>
</g>
</svg>
