<svg width="133" height="133" viewBox="0 0 133 133" fill="none" xmlns="http://www.w3.org/2000/svg">
<g id="Double Tap Swipe Up / undefined / Glyph: undefined">
<path id="Vector" d="M83.3937 30.8467C85.5497 30.269 87.766 31.5486 88.3437 33.7046L92.7818 50.2677C93.3595 52.4238 92.08 54.6399 89.9239 55.2177C87.7678 55.7954 85.5516 54.5159 84.9738 52.3598L83.0612 45.2217L63.6899 78.7737C62.5738 80.7069 60.1021 81.3692 58.1689 80.2531C56.2358 79.137 55.5735 76.6652 56.6896 74.7321L76.0608 41.18L68.9227 43.0927C66.7667 43.6704 64.5504 42.3908 63.9728 40.2348C63.3951 38.0788 64.6746 35.8626 66.8307 35.2848L83.3937 30.8467ZM86.4413 91.9088C93.4122 79.8349 91.1327 64.9586 81.8017 55.4866L77.5472 62.8556C83.1012 69.796 84.1536 79.7047 79.441 87.8671C73.3025 98.4993 59.7074 102.142 49.0754 96.0036C38.4432 89.8651 34.8004 76.2701 40.9389 65.638C45.6515 57.4755 54.7589 53.4325 63.5464 54.7723L67.801 47.4032C54.9324 44.0583 40.9094 49.5224 33.9386 61.5963C25.5679 76.0948 30.5356 94.6335 45.0337 103.004C59.532 111.375 78.0706 106.407 86.4413 91.9088ZM75.9408 85.8463C79.5112 79.6622 79.0371 72.2523 75.3387 66.6808L70.222 75.5432C70.4766 77.6401 70.0779 79.8344 68.9404 81.8046C66.1503 86.6373 59.9706 88.2932 55.1379 85.503C50.3052 82.7129 48.6493 76.5332 51.4395 71.7005C52.577 69.7302 54.2779 68.2877 56.2212 67.4599L61.338 58.5974C54.6638 58.1804 48.0095 61.4747 44.4391 67.6588C39.4167 76.3578 42.3972 87.481 51.0962 92.5034C59.7951 97.5257 70.9184 94.5453 75.9408 85.8463Z" fill="#A1CD38"/>
</g>
</svg>
