<svg width="48" height="48" viewBox="0 0 48 48" fill="none" xmlns="http://www.w3.org/2000/svg">
<g id="Call / undefined / Glyph: undefined">
<path id="Vector" d="M15.5442 4.87798L17.6974 4.18996C19.715 3.54526 21.8706 4.58716 22.7348 6.62464L24.4542 10.6793C25.2036 12.4462 24.7878 14.5241 23.4262 15.8163L19.6376 19.4123C19.8714 21.5632 20.5944 23.6812 21.8066 25.7664C23.019 27.8514 24.533 29.581 26.3488 30.9552L30.8992 29.4378C32.624 28.8626 34.5024 29.5236 35.5604 31.078L38.025 34.699C39.255 36.5058 39.0338 38.9986 37.5076 40.5306L35.8722 42.1724C34.2444 43.8066 31.9194 44.3994 29.7686 43.7286C24.6908 42.1446 20.0222 37.4422 15.7626 29.6214C11.4969 21.789 9.9914 15.1438 11.2461 9.68578C11.7741 7.38914 13.4092 5.56018 15.5442 4.87798Z" fill="#A1CD38"/>
</g>
</svg>
