<svg width="73" height="72" viewBox="0 0 73 72" fill="none" xmlns="http://www.w3.org/2000/svg">
<g id="Frame">
<path id="Vector" d="M59.2565 5.75977H13.1756C9.20545 5.75977 5.97546 8.98975 5.97546 12.9599V59.0408C5.97546 63.011 9.20545 66.241 13.1756 66.241H59.2565C63.2267 66.241 66.4567 63.011 66.4567 59.0408V12.9599C66.4567 8.98975 63.2267 5.75977 59.2565 5.75977ZM53.5051 32.1454C53.1782 32.1757 52.847 32.1958 52.5115 32.1958C48.7343 32.1958 45.415 30.2532 43.4839 27.317C43.4839 35.0197 43.4839 43.7837 43.4839 43.9306C43.4839 50.7117 37.9859 56.2098 31.2048 56.2098C24.4237 56.2098 18.9256 50.7117 18.9256 43.9306C18.9256 37.1495 24.4237 31.6515 31.2048 31.6515C31.4611 31.6515 31.7117 31.6745 31.9637 31.6904V37.7414C31.7117 37.7111 31.464 37.6651 31.2048 37.6651C27.7429 37.6651 24.9378 40.4702 24.9378 43.9321C24.9378 47.3939 27.7429 50.1991 31.2048 50.1991C34.6666 50.1991 37.7238 47.4717 37.7238 44.0098C37.7238 43.873 37.7843 15.7939 37.7843 15.7939H43.5674C44.1118 20.965 48.2864 25.0461 53.5051 25.4205V32.1454Z" fill="#93C754"/>
</g>
</svg>
