<svg width="97" height="97" viewBox="0 0 97 97" fill="none" xmlns="http://www.w3.org/2000/svg">
<g id="Eye / undefined / Glyph: undefined">
<path id="Vector" d="M48.4996 36.3935C57.428 36.3935 64.6662 43.6316 64.6662 52.5601C64.6662 61.4889 57.428 68.7268 48.4996 68.7268C39.5709 68.7268 32.3328 61.4889 32.3328 52.5601C32.3328 43.6316 39.5709 36.3935 48.4996 36.3935ZM48.4996 22.229C67.1458 22.229 83.2421 34.9603 87.7082 52.8018C88.1148 54.4257 87.1278 56.0719 85.5039 56.4785C83.8795 56.8847 82.2337 55.8981 81.8272 54.2738C78.0324 39.1149 64.3482 28.2915 48.4996 28.2915C32.6438 28.2915 18.9553 39.1242 15.1673 54.2924C14.7616 55.9163 13.1161 56.9041 11.4919 56.4987C9.86768 56.0929 8.87981 54.4476 9.28543 52.8232C13.7438 34.9712 29.8451 22.229 48.4996 22.229Z" fill="#A1CD38"/>
</g>
</svg>
