<svg width="59" height="58" viewBox="0 0 59 58" fill="none" xmlns="http://www.w3.org/2000/svg">
<g id="Frame">
<path id="Vector" d="M46.5886 12.0277C42.0622 7.49889 36.043 5.00289 29.6302 5.00049C16.4158 5.00049 5.66136 15.7501 5.65656 28.9645C5.65416 33.1885 6.75816 37.3117 8.85576 40.9453L5.60376 53.0005L18.163 50.0317C21.6646 51.9421 25.6054 52.9477 29.6182 52.9501H29.6278C42.8398 52.9501 53.5942 42.1981 53.6014 28.9861C53.6062 22.5805 51.115 16.5589 46.5886 12.0277ZM41.359 37.5301C40.8598 38.9293 38.4142 40.2781 37.315 40.3765C36.2158 40.4773 35.1862 40.8733 30.127 38.8789C24.0382 36.4789 20.1934 30.2365 19.8958 29.8381C19.5958 29.4373 17.4502 26.5909 17.4502 23.6437C17.4502 20.6965 18.9982 19.2469 19.5478 18.6493C20.0974 18.0493 20.7454 17.9005 21.1462 17.9005C21.5446 17.9005 21.9454 17.9005 22.2934 17.9149C22.7206 17.9317 23.1934 17.9533 23.6422 18.9493C24.175 20.1349 25.339 23.0965 25.4878 23.3965C25.6366 23.6965 25.7374 24.0469 25.5382 24.4453C25.339 24.8437 25.2382 25.0933 24.9406 25.4437C24.6406 25.7941 24.3118 26.2237 24.043 26.4925C23.743 26.7901 23.431 27.1165 23.779 27.7141C24.1294 28.3141 25.3294 30.2749 27.1102 31.8613C29.3998 33.9013 31.327 34.5325 31.927 34.8349C32.527 35.1349 32.875 35.0845 33.2254 34.6837C33.5758 34.2853 34.723 32.9365 35.1214 32.3365C35.5198 31.7365 35.9206 31.8373 36.4702 32.0365C37.0198 32.2357 39.9646 33.6853 40.5622 33.9853C41.1622 34.2853 41.5606 34.4341 41.7094 34.6837C41.8582 34.9309 41.8582 36.1309 41.359 37.5301Z" fill="#93C754"/>
</g>
</svg>
